<?xml version="1.0" encoding="utf-8"?>
<!-- Generator: Adobe Illustrator 27.5.0, SVG Export Plug-In . SVG Version: 6.00 Build 0)  -->
<svg version="1.1" id="Layer_1" xmlns="http://www.w3.org/2000/svg" xmlns:xlink="http://www.w3.org/1999/xlink" x="0px" y="0px"
	 viewBox="0 0 396 288" style="enable-background:new 0 0 396 288;" xml:space="preserve">
<g id="New_Symbol">
</g>
<g>
	<g>
		<defs>
			<rect id="SVGID_1_" x="0" y="0" width="396" height="288"/>
		</defs>
		
			<linearGradient id="SVGID_00000041278006852604449740000010881673173636660668_" gradientUnits="userSpaceOnUse" x1="-14.0369" y1="313.4559" x2="311.296" y2="53.456">
			<stop  offset="0.0108" style="stop-color:#E6EBF0"/>
			<stop  offset="1" style="stop-color:#FFFFFF"/>
		</linearGradient>
		
			<use xlink:href="#SVGID_1_"  style="overflow:visible;fill-rule:evenodd;clip-rule:evenodd;fill:url(#SVGID_00000041278006852604449740000010881673173636660668_);"/>
		<clipPath id="SVGID_00000087375352351130940640000012369954787295948420_">
			<use xlink:href="#SVGID_1_"  style="overflow:visible;"/>
		</clipPath>
		<g style="clip-path:url(#SVGID_00000087375352351130940640000012369954787295948420_);">
			<g>
				<g>
					
						<linearGradient id="SVGID_00000159461110374770179730000017138335170437037702_" gradientUnits="userSpaceOnUse" x1="348.0323" y1="296.1748" x2="404.835" y2="296.1748">
						<stop  offset="0.0108" style="stop-color:#E6EBF0"/>
						<stop  offset="1" style="stop-color:#0686FF"/>
					</linearGradient>
					<path style="fill:url(#SVGID_00000159461110374770179730000017138335170437037702_);" d="M349.144,317.622
						c0.139-0.186,0.273-0.365,0.413-0.551c1.053-1.271,2.119-2.558,3.193-3.855c1.125-1.26,2.26-2.53,3.399-3.805
						c1.176-1.243,2.355-2.492,3.535-3.74c1.245-1.176,2.49-2.352,3.731-3.524c1.274-1.138,2.542-2.271,3.801-3.395
						c1.3-1.077,2.59-2.145,3.864-3.2c1.323-0.991,2.629-1.97,3.914-2.934c1.322-0.928,2.622-1.84,3.895-2.732
						c1.284-0.861,2.54-1.704,3.762-2.524c2.484-1.542,4.916-2.978,7.116-4.316c4.512-2.511,8.271-4.604,10.902-6.068
						c2.65-1.431,4.165-2.249,4.165-2.249s-1.548,0.755-4.258,2.078c-1.34,0.69-2.966,1.528-4.832,2.489
						c-1.865,0.966-3.976,2.027-6.254,3.261c-2.239,1.3-4.655,2.662-7.229,4.189c-1.251,0.804-2.536,1.629-3.85,2.473
						c-1.286,0.869-2.602,1.767-3.917,2.69c-1.304,0.964-2.63,1.944-3.972,2.936c-1.291,1.055-2.598,2.123-3.916,3.199
						c-1.277,1.125-2.563,2.259-3.855,3.398c-1.26,1.176-2.524,2.357-3.79,3.538c-1.177,1.262-2.354,2.524-3.526,3.781
						c-1.137,1.29-2.27,2.575-3.394,3.851c-1.079,1.32-2.149,2.63-3.207,3.925c-0.271,0.367-0.534,0.723-0.804,1.087H349.144z"/>
					
						<linearGradient id="SVGID_00000098203441750066690520000005460919228914877830_" gradientUnits="userSpaceOnUse" x1="356.732" y1="299.2842" x2="407.6182" y2="299.2842">
						<stop  offset="0.0108" style="stop-color:#E6EBF0"/>
						<stop  offset="1" style="stop-color:#0686FF"/>
					</linearGradient>
					<path style="fill:url(#SVGID_00000098203441750066690520000005460919228914877830_);" d="M407.618,280.947
						c-0.56,0.272-1.866,0.907-3.781,1.837c-2.574,1.329-6.252,3.228-10.665,5.506c-2.152,1.239-4.483,2.581-6.95,4
						c-1.204,0.769-2.439,1.558-3.704,2.364c-1.239,0.847-2.505,1.713-3.793,2.593c-1.255,0.922-2.531,1.86-3.823,2.81
						c-1.243,1.013-2.501,2.038-3.769,3.071c-1.228,1.082-2.465,2.171-3.708,3.266c-1.206,1.124-2.417,2.252-3.627,3.38
						c-1.137,1.22-2.274,2.44-3.407,3.655c-1.093,1.241-2.182,2.477-3.262,3.703c-0.134,0.164-0.264,0.324-0.398,0.488h1.211
						c1.047-1.173,2.102-2.354,3.161-3.54c1.123-1.189,2.25-2.383,3.378-3.578c1.203-1.136,2.407-2.271,3.605-3.403
						c1.225-1.093,2.444-2.182,3.653-3.263c1.251-1.033,2.491-2.059,3.717-3.072c1.275-0.951,2.534-1.889,3.773-2.813
						c1.265-0.884,2.508-1.753,3.726-2.604c1.237-0.827,2.447-1.636,3.625-2.423c2.435-1.469,4.736-2.858,6.861-4.141
						c4.338-2.412,7.954-4.421,10.485-5.828c1.867-1.008,3.14-1.695,3.692-1.993V280.947z"/>
					
						<linearGradient id="SVGID_00000163041780472472017370000018211816032601585815_" gradientUnits="userSpaceOnUse" x1="365.7974" y1="303.0674" x2="407.6182" y2="303.0674">
						<stop  offset="0.0108" style="stop-color:#E6EBF0"/>
						<stop  offset="1" style="stop-color:#0686FF"/>
					</linearGradient>
					<path style="fill:url(#SVGID_00000163041780472472017370000018211816032601585815_);" d="M407.618,288.513
						c-0.172,0.083-0.338,0.164-0.521,0.253c-2.472,1.273-6.003,3.092-10.241,5.274c-2.087,1.164-4.308,2.467-6.679,3.822
						c-1.2,0.721-2.346,1.485-3.564,2.253c-1.243,0.81-2.407,1.638-3.648,2.479c-1.207,0.882-2.434,1.778-3.676,2.686
						c-1.209,0.953-2.405,1.951-3.625,2.94c-1.18,1.036-2.369,2.081-3.563,3.129c-1.158,1.077-2.322,2.158-3.485,3.24
						c-0.94,1.012-1.879,2.023-2.817,3.031h1.331c0.722-0.767,1.444-1.534,2.167-2.302c1.156-1.089,2.313-2.178,3.464-3.262
						c1.176-1.048,2.347-2.092,3.509-3.127c1.203-0.987,2.381-1.987,3.572-2.939c1.225-0.909,2.436-1.807,3.628-2.691
						c1.215-0.845,2.41-1.677,3.58-2.49c1.188-0.786,2.362-1.603,3.485-2.312c2.339-1.405,4.542-2.763,6.591-3.964
						c4.163-2.315,7.632-4.245,10.061-5.596c0.152-0.082,0.288-0.156,0.433-0.234V288.513z"/>
				</g>
				<g>
					
						<linearGradient id="SVGID_00000121250728718696720410000007354074244872680379_" gradientUnits="userSpaceOnUse" x1="312.5987" y1="278.1805" x2="407.6182" y2="278.1805">
						<stop  offset="0.0108" style="stop-color:#E6EBF0"/>
						<stop  offset="1" style="stop-color:#0686FF"/>
					</linearGradient>
					<path style="fill:url(#SVGID_00000121250728718696720410000007354074244872680379_);" d="M407.618,238.739
						c-5.331,3.574-10.953,6.8-16.725,9.815c-9.32,4.915-18.972,9.516-28.108,15.097c-9.145,5.536-17.868,12.068-25.484,19.648
						c-7.593,7.633-14.116,16.351-19.644,25.479c-1.776,2.909-3.443,5.866-5.058,8.842h1.043c1.541-2.815,3.127-5.606,4.807-8.344
						c5.555-9.128,11.998-17.69,19.558-25.271c7.597-7.573,16.156-14.005,25.267-19.552c9.1-5.583,18.687-10.174,28.032-15.126
						c5.602-2.94,11.089-6.102,16.314-9.588V238.739z"/>
					
						<linearGradient id="SVGID_00000025420789508311257470000017389874077646647949_" gradientUnits="userSpaceOnUse" x1="320.336" y1="282.2539" x2="407.6182" y2="282.2539">
						<stop  offset="0.0108" style="stop-color:#E6EBF0"/>
						<stop  offset="1" style="stop-color:#0686FF"/>
					</linearGradient>
					<path style="fill:url(#SVGID_00000025420789508311257470000017389874077646647949_);" d="M407.618,246.886
						c-3.727,2.339-7.564,4.542-11.493,6.618c-9.319,4.995-19.07,9.52-28.301,15.023c-2.281,1.429-4.563,2.859-6.848,4.291
						l-6.605,4.682l-6.321,5.105l-5.933,5.511c-7.646,7.65-14.136,16.47-19.586,25.707c-0.75,1.258-1.478,2.526-2.194,3.798h1.063
						c0.633-1.113,1.275-2.22,1.934-3.319c1.427-2.267,2.855-4.538,4.285-6.809l4.654-6.539l5.065-6.248l5.484-5.884l5.899-5.495
						l6.235-5.054l6.549-4.661c2.268-1.427,4.533-2.853,6.797-4.277c9.208-5.514,18.874-10.017,28.238-15.059
						c3.768-2,7.472-4.126,11.079-6.383V246.886z"/>
					
						<linearGradient id="SVGID_00000029013818503979002400000012679165395795204245_" gradientUnits="userSpaceOnUse" x1="328.2378" y1="286.2229" x2="407.6182" y2="286.2229">
						<stop  offset="0.0108" style="stop-color:#E6EBF0"/>
						<stop  offset="1" style="stop-color:#0686FF"/>
					</linearGradient>
					<path style="fill:url(#SVGID_00000029013818503979002400000012679165395795204245_);" d="M407.618,254.824
						c-2.07,1.229-4.167,2.425-6.292,3.58c-9.306,5.108-19.092,9.65-28.419,15.067l-1.762,1.007l-1.72,1.077l-3.44,2.156
						c-1.165,0.691-2.255,1.5-3.362,2.281l-3.319,2.352c-0.562,0.38-1.102,0.792-1.623,1.23l-1.588,1.282l-3.176,2.566
						c-2.031,1.793-3.98,3.665-5.971,5.497c-7.345,7.376-13.478,15.831-18.708,24.702h1.092
						c5.165-8.655,11.177-16.843,18.296-23.972c1.991-1.828,3.939-3.715,5.958-5.502l3.131-2.537l1.564-1.269
						c0.513-0.433,1.046-0.841,1.604-1.22l3.29-2.34c1.098-0.777,2.177-1.582,3.334-2.271l3.414-2.148l1.706-1.074l1.746-1.002
						c9.309-5.432,19.023-9.958,28.38-15.118c1.977-1.079,3.931-2.199,5.866-3.346V254.824z"/>
				</g>
				<g>
					
						<linearGradient id="SVGID_00000072959709314174815330000015410317444220460431_" gradientUnits="userSpaceOnUse" x1="279.6079" y1="257.9805" x2="407.6182" y2="257.9805">
						<stop  offset="0.0108" style="stop-color:#E6EBF0"/>
						<stop  offset="1" style="stop-color:#0686FF"/>
					</linearGradient>
					<path style="fill:url(#SVGID_00000072959709314174815330000015410317444220460431_);" d="M407.618,198.339
						c-3.712,4.141-7.752,8.048-12.122,11.643c-7.958,6.584-16.921,12.017-26.272,16.901c-9.32,4.915-18.971,9.516-28.108,15.097
						l-3.408,2.135c-1.135,0.714-2.287,1.403-3.364,2.206l-3.287,2.33l-1.644,1.166c-0.556,0.378-1.093,0.782-1.609,1.217
						c-2.085,1.704-4.218,3.363-6.267,5.107l-5.893,5.476c-7.619,7.656-14.124,16.357-19.657,25.491
						c-5.597,9.164-10.179,18.779-15.102,28.116c-0.42,0.804-0.85,1.6-1.278,2.397h0.98c0.357-0.663,0.717-1.325,1.07-1.991
						c4.942-9.33,9.554-18.951,15.121-28.024l2.135-3.393c0.714-1.13,1.404-2.28,2.202-3.344l2.318-3.255l1.159-1.628
						c0.376-0.551,0.778-1.082,1.21-1.592c1.693-2.063,3.337-4.17,5.071-6.2l5.45-5.847l5.886-5.484
						c2.03-1.734,4.129-3.371,6.189-5.062c0.508-0.431,1.04-0.833,1.592-1.209l1.631-1.161l3.26-2.321
						c1.068-0.8,2.212-1.486,3.339-2.198l3.382-2.129c9.1-5.582,18.687-10.174,28.032-15.126
						c9.344-4.903,18.387-10.405,26.381-17.048c4.15-3.428,8.025-7.15,11.603-11.093V198.339z"/>
					
						<linearGradient id="SVGID_00000174583613970623068320000000828490074981092761_" gradientUnits="userSpaceOnUse" x1="287.3321" y1="262.9007" x2="407.6182" y2="262.9007">
						<stop  offset="0.0108" style="stop-color:#E6EBF0"/>
						<stop  offset="1" style="stop-color:#0686FF"/>
					</linearGradient>
					<path style="fill:url(#SVGID_00000174583613970623068320000000828490074981092761_);" d="M407.618,208.18
						c-0.396,0.405-0.788,0.807-1.185,1.213c-1.918,1.723-3.842,3.452-5.771,5.186c-7.939,6.687-16.834,12.302-26.207,17.256
						c-9.316,4.993-19.078,9.523-28.295,15.019c-2.283,1.43-4.568,2.862-6.855,4.295l-6.605,4.682l-6.321,5.106l-5.92,5.498
						l-5.533,5.96l-5.094,6.308l-4.689,6.616c-1.429,2.28-2.857,4.559-4.284,6.835c-4.962,8.326-9.102,17.007-13.527,25.469h0.995
						c4.363-8.327,8.472-16.868,13.335-24.99c1.428-2.267,2.856-4.538,4.286-6.809l4.654-6.539l5.065-6.248l5.472-5.872l5.912-5.507
						l6.234-5.054l6.55-4.661c2.265-1.426,4.528-2.85,6.789-4.273c9.221-5.522,18.878-10.019,28.245-15.063
						c9.359-4.969,18.356-10.667,26.317-17.405c1.933-1.743,3.86-3.482,5.781-5.214c0.217-0.223,0.433-0.444,0.65-0.668V208.18z"/>
					
						<linearGradient id="SVGID_00000080194499810026788640000016190918755375195266_" gradientUnits="userSpaceOnUse" x1="294.9883" y1="267.5679" x2="407.6182" y2="267.5679">
						<stop  offset="0.0108" style="stop-color:#E6EBF0"/>
						<stop  offset="1" style="stop-color:#0686FF"/>
					</linearGradient>
					<path style="fill:url(#SVGID_00000080194499810026788640000016190918755375195266_);" d="M407.618,217.514
						c-0.61,0.541-1.216,1.086-1.839,1.617c-7.911,6.753-16.774,12.525-26.125,17.603c-9.306,5.108-19.092,9.649-28.418,15.067
						l-1.762,1.007l-1.719,1.077l-3.441,2.156c-1.165,0.691-2.254,1.5-3.362,2.281l-3.319,2.352c-0.562,0.38-1.101,0.792-1.623,1.23
						l-1.587,1.282l-3.176,2.565c-2.037,1.798-3.967,3.652-5.984,5.51c-7.673,7.707-14.071,16.636-19.457,25.971
						c-3.888,6.693-7.31,13.588-10.817,20.389h1.002c3.45-6.667,6.822-13.406,10.622-19.917c5.397-9.31,11.73-18.102,19.355-25.738
						c7.655-7.64,16.432-13.954,25.734-19.35c9.309-5.432,19.022-9.958,28.38-15.117c9.347-5.101,18.281-10.933,26.243-17.763
						c0.429-0.393,0.862-0.777,1.294-1.165V217.514z"/>
				</g>
				<g>
					
						<linearGradient id="SVGID_00000175283678368177470790000012636953277404126099_" gradientUnits="userSpaceOnUse" x1="244.0723" y1="230.503" x2="407.6182" y2="230.503">
						<stop  offset="0.0108" style="stop-color:#E6EBF0"/>
						<stop  offset="1" style="stop-color:#0686FF"/>
					</linearGradient>
					<path style="fill:url(#SVGID_00000175283678368177470790000012636953277404126099_);" d="M407.618,143.384
						c-3.952,7.615-8.075,15.286-13.167,22.565c-5.726,8.224-12.645,15.797-20.626,22.363c-7.957,6.583-16.921,12.017-26.271,16.902
						c-9.321,4.914-18.972,9.515-28.109,15.096l-3.408,2.135c-1.135,0.714-2.287,1.402-3.364,2.206l-3.287,2.33l-1.644,1.166
						c-0.556,0.378-1.093,0.782-1.609,1.217c-2.085,1.704-4.219,3.363-6.267,5.107l-5.893,5.476
						c-7.619,7.656-14.124,16.357-19.656,25.492c-5.597,9.164-10.178,18.78-15.102,28.116c-4.444,8.502-9.329,16.653-15.144,24.066
						h1.018l0.265-0.336c0.803-1.02,1.632-2.019,2.352-3.115l2.243-3.226l1.124-1.616c0.362-0.547,0.694-1.112,1.043-1.668
						c2.825-4.423,5.397-9.032,7.871-13.701c4.942-9.33,9.554-18.951,15.121-28.024l2.135-3.393c0.714-1.13,1.404-2.28,2.202-3.344
						l2.317-3.255l1.159-1.628c0.375-0.551,0.777-1.082,1.209-1.592c1.693-2.063,3.337-4.17,5.071-6.199l5.45-5.847l5.886-5.484
						c2.03-1.734,4.13-3.371,6.19-5.062c0.508-0.431,1.039-0.833,1.592-1.209l1.63-1.161l3.26-2.321
						c1.068-0.8,2.212-1.486,3.339-2.199l3.382-2.128c9.1-5.582,18.687-10.174,28.032-15.125
						c9.344-4.903,18.387-10.406,26.381-17.048c7.993-6.602,14.989-14.276,20.733-22.573c4.807-6.897,8.786-14.224,12.539-21.457
						V143.384z"/>
					
						<linearGradient id="SVGID_00000122686601840660312700000017121978367311035015_" gradientUnits="userSpaceOnUse" x1="252.6182" y1="237.6961" x2="407.6182" y2="237.6961">
						<stop  offset="0.0108" style="stop-color:#E6EBF0"/>
						<stop  offset="1" style="stop-color:#0686FF"/>
					</linearGradient>
					<path style="fill:url(#SVGID_00000122686601840660312700000017121978367311035015_);" d="M407.618,157.771
						c-2.435,4.279-5.042,8.512-7.943,12.621c-1.515,2.005-3.037,4.019-4.564,6.041c-1.653,1.924-3.314,3.856-4.98,5.795
						c-1.783,1.825-3.572,3.657-5.368,5.496c-1.918,1.723-3.841,3.452-5.771,5.186c-7.939,6.686-16.834,12.301-26.207,17.255
						c-9.316,4.993-19.077,9.523-28.295,15.018c-2.283,1.431-4.568,2.863-6.854,4.295l-6.605,4.682l-6.321,5.105l-5.92,5.498
						l-5.534,5.96l-5.094,6.308l-4.688,6.616c-1.427,2.277-2.853,4.553-4.277,6.826c-5.53,9.278-10.019,18.966-15.031,28.316
						c-3.476,6.57-7.276,12.89-11.546,18.833h0.982c1.097-1.578,2.193-3.155,3.294-4.739c1.387-2.241,2.776-4.487,4.169-6.738
						c1.288-2.312,2.58-4.629,3.874-6.951c5.025-9.332,9.563-19.062,15.049-28.224c1.429-2.271,2.859-4.543,4.29-6.818l4.655-6.539
						l5.066-6.248l5.471-5.872l5.912-5.507l6.235-5.053l6.549-4.662c2.265-1.426,4.528-2.851,6.79-4.274
						c9.222-5.521,18.878-10.018,28.245-15.062c9.358-4.969,18.356-10.667,26.317-17.405c1.933-1.744,3.86-3.482,5.78-5.214
						c1.81-1.859,3.614-3.713,5.412-5.56c1.673-1.955,3.34-3.902,5-5.842c1.537-2.043,3.069-4.079,4.594-6.106
						c2.658-3.782,5.059-7.666,7.314-11.59V157.771z"/>
					
						<linearGradient id="SVGID_00000093883832862375154060000005838875977161399709_" gradientUnits="userSpaceOnUse" x1="260.8687" y1="244.2066" x2="407.6182" y2="244.2066">
						<stop  offset="0.0108" style="stop-color:#E6EBF0"/>
						<stop  offset="1" style="stop-color:#0686FF"/>
					</linearGradient>
					<path style="fill:url(#SVGID_00000093883832862375154060000005838875977161399709_);" d="M407.618,170.792
						c-0.89,1.346-1.796,2.686-2.743,4.009c-5.875,8.258-12.809,15.881-20.767,22.659c-7.91,6.754-16.773,12.525-26.123,17.605
						c-9.306,5.107-19.093,9.648-28.419,15.066l-1.762,1.007l-1.719,1.077l-3.44,2.156c-1.165,0.692-2.254,1.5-3.362,2.281
						l-3.319,2.352c-0.561,0.38-1.101,0.792-1.623,1.23l-1.587,1.282l-3.176,2.566c-2.032,1.793-3.98,3.665-5.972,5.497
						c-7.699,7.731-14.078,16.644-19.469,25.983c-5.432,9.352-9.953,19.099-15.072,28.426c-2.546,4.686-5.264,9.248-8.195,13.633
						h1.006c2.841-4.266,5.487-8.691,7.956-13.216c5.147-9.337,9.695-19.088,15.112-28.372c5.392-9.304,11.742-18.115,19.342-25.725
						c1.991-1.828,3.939-3.715,5.958-5.501l3.13-2.537l1.564-1.268c0.513-0.433,1.046-0.842,1.604-1.221l3.29-2.34
						c1.098-0.777,2.177-1.582,3.333-2.271l3.414-2.149l1.706-1.073l1.746-1.002c9.309-5.432,19.022-9.957,28.38-15.116
						c9.346-5.102,18.28-10.934,26.242-17.765c1.927-1.761,3.895-3.462,5.771-5.257c1.814-1.87,3.623-3.733,5.425-5.59
						c1.681-1.962,3.354-3.918,5.021-5.866c1.546-2.046,3.085-4.083,4.618-6.113c0.728-1.021,1.436-2.05,2.129-3.085V170.792z"/>
				</g>
				<g>
					
						<linearGradient id="SVGID_00000026846400118329921580000017549631467913231276_" gradientUnits="userSpaceOnUse" x1="199.8496" y1="201.2576" x2="407.6182" y2="201.2576">
						<stop  offset="0.0108" style="stop-color:#E6EBF0"/>
						<stop  offset="1" style="stop-color:#0686FF"/>
					</linearGradient>
					<path style="fill:url(#SVGID_00000026846400118329921580000017549631467913231276_);" d="M407.618,84.894
						c-2.194,2.87-4.299,5.855-6.286,8.954c-5.042,7.765-9.379,16.206-13.804,24.812c-4.444,8.607-8.973,17.366-14.747,25.62
						c-5.727,8.224-12.645,15.797-20.626,22.363c-7.958,6.583-16.921,12.017-26.272,16.901c-9.32,4.914-18.972,9.515-28.108,15.097
						l-3.407,2.135c-1.135,0.714-2.288,1.403-3.365,2.206l-3.286,2.33l-1.645,1.166c-0.556,0.378-1.093,0.782-1.608,1.217
						c-2.086,1.704-4.219,3.363-6.267,5.107l-5.893,5.476c-7.618,7.657-14.124,16.357-19.656,25.491
						c-5.597,9.164-10.178,18.781-15.101,28.117c-4.89,9.354-10.3,18.289-16.907,26.278l-0.6,0.762l-0.636,0.709l-1.29,1.435
						l-2.572,2.863c-1.779,1.842-3.645,3.589-5.452,5.379c-1.918,1.666-3.833,3.321-5.763,4.947
						c-1.499,1.117-2.985,2.255-4.477,3.362h1.334c7.329-5.381,14.144-11.748,20.093-18.955l2.41-3.05
						c0.802-1.02,1.631-2.019,2.352-3.115l2.243-3.226l1.123-1.616c0.362-0.547,0.694-1.112,1.043-1.667
						c2.825-4.423,5.399-9.031,7.872-13.701c4.942-9.33,9.552-18.952,15.12-28.025l2.135-3.393c0.714-1.13,1.404-2.28,2.202-3.344
						l2.317-3.254l1.159-1.628c0.376-0.551,0.778-1.082,1.21-1.592c1.692-2.064,3.337-4.17,5.071-6.2l5.45-5.848l5.885-5.484
						c2.03-1.734,4.13-3.372,6.19-5.062c0.508-0.431,1.039-0.833,1.592-1.21l1.631-1.161l3.26-2.321
						c1.068-0.8,2.213-1.486,3.339-2.198l3.383-2.129c9.1-5.583,18.686-10.175,28.032-15.126
						c9.344-4.903,18.387-10.405,26.381-17.048c7.994-6.602,14.989-14.276,20.734-22.573c5.754-8.256,10.327-17.129,14.738-25.719
						c4.406-8.613,8.725-17.053,13.716-24.772c1.835-2.873,3.757-5.637,5.755-8.295V84.894z"/>
					
						<linearGradient id="SVGID_00000082351489937455887030000017156733834499851183_" gradientUnits="userSpaceOnUse" x1="210.8804" y1="207.1431" x2="407.6182" y2="207.1431">
						<stop  offset="0.0108" style="stop-color:#E6EBF0"/>
						<stop  offset="1" style="stop-color:#0686FF"/>
					</linearGradient>
					<path style="fill:url(#SVGID_00000082351489937455887030000017156733834499851183_);" d="M407.618,96.665
						c-0.31,0.473-0.626,0.94-0.931,1.418c-10.104,15.607-17.018,34.115-28.684,50.638c-1.515,2.005-3.037,4.02-4.564,6.041
						c-1.653,1.924-3.314,3.856-4.98,5.795c-1.783,1.826-3.573,3.657-5.368,5.496c-1.917,1.723-3.842,3.451-5.771,5.185
						c-7.94,6.687-16.833,12.302-26.206,17.256c-9.316,4.994-19.078,9.523-28.295,15.019c-2.284,1.43-4.568,2.862-6.854,4.295
						l-6.605,4.682l-6.321,5.106l-5.932,5.511c-7.647,7.649-14.137,16.469-19.587,25.706c-5.519,9.26-10.015,18.961-15.026,28.307
						c-4.954,9.368-10.546,18.242-17.261,26.214c-1.728,1.923-3.451,3.841-5.169,5.752c-1.841,1.799-3.676,3.591-5.504,5.377
						c-1.23,1.058-2.453,2.108-3.678,3.161h1.278c4.885-4.177,9.491-8.785,13.709-13.787c1.611-2.039,3.227-4.084,4.848-6.135
						c1.499-2.156,3.001-4.319,4.508-6.487c1.386-2.241,2.775-4.487,4.168-6.738c1.289-2.312,2.58-4.629,3.874-6.951
						c5.029-9.335,9.559-19.053,15.056-28.232c1.427-2.268,2.855-4.538,4.285-6.809l4.654-6.539l5.066-6.248l5.485-5.884
						l5.899-5.495l6.234-5.054l6.549-4.662c2.265-1.426,4.528-2.85,6.79-4.273c9.222-5.521,18.878-10.019,28.245-15.062
						c9.359-4.969,18.356-10.667,26.317-17.406c1.934-1.743,3.86-3.481,5.781-5.213c1.81-1.86,3.614-3.713,5.412-5.561
						c1.673-1.954,3.34-3.902,5-5.842c1.537-2.043,3.068-4.079,4.593-6.106c11.677-16.616,18.572-35.173,28.593-50.707
						c0.129-0.203,0.264-0.399,0.394-0.601V96.665z"/>
					
						<linearGradient id="SVGID_00000163071068077260950240000004967630047781623447_" gradientUnits="userSpaceOnUse" x1="221.1162" y1="213.7259" x2="407.6182" y2="213.7259">
						<stop  offset="0.0108" style="stop-color:#E6EBF0"/>
						<stop  offset="1" style="stop-color:#0686FF"/>
					</linearGradient>
					<path style="fill:url(#SVGID_00000163071068077260950240000004967630047781623447_);" d="M407.618,109.83
						c-7.839,13.946-14.427,29.349-24.414,43.3c-5.874,8.259-12.808,15.881-20.766,22.659c-7.91,6.754-16.773,12.525-26.123,17.604
						c-9.306,5.108-19.092,9.65-28.419,15.066l-1.762,1.006l-1.719,1.078l-3.44,2.156c-1.166,0.692-2.254,1.5-3.362,2.281
						l-3.319,2.351c-0.561,0.38-1.102,0.792-1.624,1.23l-1.587,1.282l-3.176,2.566c-2.038,1.799-3.968,3.652-5.985,5.51
						c-7.672,7.707-14.071,16.637-19.455,25.971c-5.432,9.352-9.952,19.1-15.072,28.426c-5.076,9.342-10.834,18.194-17.609,26.128
						c-2.75,3.227-5.648,6.281-8.669,9.175h1.149c2.835-2.742,5.557-5.628,8.137-8.648c6.809-7.938,12.656-16.883,17.759-26.238
						c5.148-9.336,9.696-19.088,15.112-28.372c5.397-9.31,11.73-18.102,19.354-25.738c7.656-7.639,16.432-13.954,25.734-19.35
						c9.31-5.43,19.023-9.957,28.381-15.116c9.346-5.102,18.28-10.934,26.242-17.764c1.928-1.761,3.895-3.462,5.772-5.257
						c1.814-1.87,3.623-3.733,5.425-5.59c1.68-1.963,3.354-3.919,5.021-5.866c1.545-2.046,3.085-4.084,4.618-6.114
						c9.768-13.707,16.26-28.745,23.799-42.393V109.83z"/>
				</g>
				<g>
					
						<linearGradient id="SVGID_00000074438450847011561470000007808636074150697903_" gradientUnits="userSpaceOnUse" x1="139.9556" y1="179.3933" x2="407.6182" y2="179.3933">
						<stop  offset="0.0108" style="stop-color:#E6EBF0"/>
						<stop  offset="1" style="stop-color:#0686FF"/>
					</linearGradient>
					<path style="fill:url(#SVGID_00000074438450847011561470000007808636074150697903_);" d="M407.618,41.165
						c-3.845,3.048-7.609,6.371-11.214,9.998c-6.094,6.182-11.771,13.263-16.743,21.015c-5.041,7.764-9.379,16.206-13.804,24.812
						c-4.443,8.607-8.973,17.366-14.746,25.619c-5.726,8.225-12.645,15.797-20.625,22.364c-7.959,6.583-16.921,12.017-26.272,16.901
						c-9.321,4.914-18.972,9.515-28.109,15.097c-9.145,5.534-17.867,12.067-25.484,19.647c-7.593,7.633-14.117,16.351-19.644,25.48
						c-5.597,9.163-10.179,18.779-15.102,28.116c-4.889,9.354-10.3,18.29-16.907,26.278l-0.6,0.762l-0.636,0.71l-1.29,1.435
						l-2.573,2.863c-1.778,1.842-3.644,3.589-5.452,5.38c-1.917,1.666-3.832,3.321-5.762,4.947
						c-2.027,1.511-4.025,3.088-6.054,4.527c-8.221,5.753-17.018,10.307-25.611,14.742c-3.721,1.913-7.412,3.816-11.036,5.764h1.418
						c3.263-1.73,6.583-3.431,9.935-5.147c8.604-4.419,17.438-8.968,25.726-14.743c8.275-5.733,15.955-12.722,22.571-20.736
						l2.409-3.05c0.802-1.02,1.631-2.02,2.353-3.115l2.243-3.226l1.124-1.616c0.361-0.547,0.694-1.112,1.043-1.667
						c2.824-4.422,5.398-9.031,7.871-13.701c4.942-9.33,9.554-18.951,15.121-28.024c5.553-9.128,11.997-17.691,19.557-25.271
						c7.597-7.572,16.155-14.006,25.267-19.551c9.1-5.584,18.687-10.175,28.032-15.125c9.344-4.903,18.387-10.406,26.382-17.048
						c7.993-6.602,14.989-14.276,20.733-22.573c5.754-8.256,10.327-17.129,14.738-25.719c4.406-8.613,8.725-17.053,13.715-24.772
						c4.97-7.777,10.563-14.775,16.632-20.961c3.478-3.513,7.097-6.73,10.794-9.693V41.165z"/>
					
						<linearGradient id="SVGID_00000008839984495840500330000007051525679801557183_" gradientUnits="userSpaceOnUse" x1="154.6875" y1="183.7976" x2="407.6182" y2="183.7976">
						<stop  offset="0.0108" style="stop-color:#E6EBF0"/>
						<stop  offset="1" style="stop-color:#0686FF"/>
					</linearGradient>
					<path style="fill:url(#SVGID_00000008839984495840500330000007051525679801557183_);" d="M407.618,49.974
						c-1.96,1.703-3.889,3.475-5.77,5.339c-6.156,6.179-11.853,13.293-16.831,21.101c-10.106,15.606-17.019,34.115-28.683,50.638
						c-1.516,2.005-3.037,4.019-4.565,6.04c-1.654,1.924-3.314,3.856-4.98,5.795c-1.783,1.825-3.573,3.657-5.368,5.495
						c-1.918,1.723-3.842,3.452-5.772,5.185c-7.939,6.687-16.832,12.302-26.207,17.255c-9.318,4.996-19.07,9.521-28.301,15.023
						c-2.281,1.429-4.564,2.86-6.848,4.292l-6.605,4.682l-6.321,5.106l-5.92,5.499c-7.672,7.674-14.143,16.477-19.601,25.719
						c-5.518,9.26-10.015,18.96-15.024,28.307c-4.955,9.368-10.548,18.242-17.263,26.213c-1.728,1.923-3.451,3.84-5.168,5.751
						c-1.841,1.799-3.676,3.591-5.504,5.377c-1.936,1.664-3.864,3.322-5.785,4.973c-2.028,1.532-4.048,3.058-6.059,4.578
						c-8.475,5.983-17.484,10.72-26.356,15.28h1.519c8.497-4.358,17.111-8.933,25.27-14.665
						c8.265-5.824,15.988-12.806,22.721-20.792c1.611-2.039,3.227-4.085,4.848-6.135c1.499-2.156,3.002-4.319,4.509-6.487
						c1.386-2.24,2.775-4.486,4.169-6.738c1.289-2.311,2.58-4.629,3.874-6.95c5.027-9.336,9.559-19.053,15.055-28.233
						c1.428-2.268,2.856-4.537,4.286-6.809l4.655-6.539l5.066-6.248l5.471-5.872l5.912-5.507l6.234-5.054l6.55-4.661
						c2.267-1.427,4.533-2.853,6.796-4.278c9.209-5.513,18.875-10.016,28.238-15.059c9.359-4.968,18.357-10.667,26.317-17.405
						c1.933-1.744,3.86-3.482,5.781-5.214c1.81-1.859,3.615-3.713,5.412-5.56c1.673-1.955,3.34-3.902,5.001-5.842
						c1.538-2.043,3.069-4.079,4.594-6.105c11.675-16.617,18.569-35.176,28.592-50.708c4.964-7.817,10.583-14.854,16.71-21.034
						c1.75-1.741,3.539-3.4,5.353-4.995V49.974z"/>
					
						<linearGradient id="SVGID_00000096018425851006494920000010942175481305374889_" gradientUnits="userSpaceOnUse" x1="169.2256" y1="188.4251" x2="407.6182" y2="188.4251">
						<stop  offset="0.0108" style="stop-color:#E6EBF0"/>
						<stop  offset="1" style="stop-color:#0686FF"/>
					</linearGradient>
					<path style="fill:url(#SVGID_00000096018425851006494920000010942175481305374889_);" d="M407.618,59.229
						c-0.093,0.09-0.189,0.175-0.282,0.266c-6.266,6.146-11.981,13.29-16.934,21.168c-10.003,15.749-17.055,34.293-28.869,50.798
						c-5.874,8.258-12.809,15.881-20.766,22.659c-7.911,6.754-16.774,12.525-26.124,17.604c-9.306,5.108-19.093,9.65-28.419,15.067
						l-1.762,1.007l-1.72,1.077l-3.44,2.156c-1.165,0.692-2.255,1.5-3.362,2.281l-3.319,2.352c-0.561,0.38-1.102,0.791-1.623,1.23
						l-1.588,1.282l-3.175,2.565c-2.032,1.793-3.98,3.665-5.972,5.498c-7.698,7.732-14.078,16.644-19.469,25.983
						c-5.432,9.352-9.951,19.1-15.071,28.427c-5.078,9.341-10.834,18.194-17.61,26.128c-6.762,7.935-14.381,14.878-22.661,20.765
						c-5.251,3.759-10.713,7.035-16.228,10.081h1.469c5.156-2.87,10.269-5.958,15.211-9.48c8.268-5.85,16.035-12.887,22.826-20.837
						c6.809-7.938,12.655-16.883,17.76-26.238c5.147-9.336,9.694-19.089,15.111-28.372c5.391-9.304,11.743-18.114,19.341-25.725
						c1.991-1.828,3.94-3.715,5.959-5.501l3.13-2.537l1.565-1.269c0.513-0.433,1.046-0.841,1.604-1.22l3.29-2.34
						c1.098-0.777,2.177-1.582,3.334-2.271l3.414-2.148l1.706-1.074l1.746-1.002c9.31-5.432,19.022-9.958,28.38-15.117
						c9.347-5.102,18.281-10.934,26.243-17.764c1.927-1.761,3.894-3.462,5.772-5.257c1.815-1.87,3.623-3.733,5.425-5.59
						c1.68-1.963,3.354-3.918,5.022-5.866c1.545-2.046,3.084-4.084,4.617-6.113c11.845-16.625,18.872-35.211,28.794-50.892
						c4.898-7.825,10.512-14.866,16.675-20.96V59.229z"/>
				</g>
				<g>
					
						<linearGradient id="SVGID_00000041999683281569932160000012947987334029414574_" gradientUnits="userSpaceOnUse" x1="86.7857" y1="161.4668" x2="407.6182" y2="161.4668">
						<stop  offset="0.0108" style="stop-color:#E6EBF0"/>
						<stop  offset="1" style="stop-color:#0686FF"/>
					</linearGradient>
					<path style="fill:url(#SVGID_00000041999683281569932160000012947987334029414574_);" d="M407.618,5.312
						c-4.456,2.503-8.956,5.222-13.518,8.192c-6.664,4.52-13.241,9.828-19.366,15.989c-6.095,6.181-11.77,13.263-16.744,21.014
						c-5.042,7.765-9.379,16.207-13.804,24.813c-4.444,8.607-8.973,17.366-14.746,25.619c-5.726,8.224-12.646,15.797-20.626,22.363
						c-7.959,6.583-16.921,12.016-26.272,16.901c-9.32,4.915-18.971,9.516-28.108,15.097l-3.408,2.135
						c-1.135,0.714-2.287,1.403-3.364,2.206l-3.287,2.33l-1.643,1.166c-0.556,0.377-1.093,0.782-1.609,1.217
						c-2.086,1.704-4.219,3.363-6.267,5.107l-5.893,5.475c-7.617,7.657-14.123,16.358-19.655,25.492
						c-5.597,9.164-10.178,18.78-15.102,28.116c-4.89,9.354-10.3,18.29-16.907,26.278c-6.553,7.959-14.119,14.887-22.365,20.624
						c-8.221,5.752-17.019,10.306-25.612,14.741c-8.598,4.42-17.064,8.772-24.806,13.8c-6.427,4.121-12.37,8.724-17.729,13.634
						h0.886c5.227-4.722,10.959-9.116,17.188-13.097c7.742-5.005,16.157-9.309,24.778-13.72c8.604-4.419,17.438-8.968,25.727-14.742
						c8.274-5.734,15.955-12.723,22.57-20.737l2.41-3.05c0.802-1.021,1.631-2.02,2.352-3.115l2.243-3.226l1.123-1.616
						c0.362-0.547,0.694-1.112,1.044-1.667c2.825-4.423,5.398-9.031,7.872-13.701c4.943-9.33,9.554-18.951,15.121-28.024
						l2.135-3.393c0.714-1.129,1.404-2.28,2.202-3.344l2.317-3.255l1.159-1.628c0.376-0.55,0.778-1.082,1.21-1.592
						c1.693-2.063,3.337-4.17,5.071-6.2l5.45-5.848l5.886-5.484c2.03-1.734,4.129-3.371,6.189-5.062
						c0.508-0.431,1.039-0.832,1.592-1.209l1.63-1.161l3.26-2.321c1.067-0.8,2.212-1.487,3.339-2.199l3.382-2.129
						c9.1-5.583,18.687-10.174,28.032-15.125c9.344-4.904,18.387-10.406,26.382-17.048c7.993-6.602,14.989-14.275,20.734-22.572
						c5.753-8.256,10.327-17.129,14.737-25.719c4.406-8.613,8.725-17.053,13.716-24.772c4.97-7.777,10.563-14.775,16.632-20.961
						c6.097-6.155,12.613-11.433,19.249-15.955c4.434-2.906,8.852-5.582,13.215-8.054V5.312z"/>
					
						<linearGradient id="SVGID_00000016068680686376160720000009248576170190959242_" gradientUnits="userSpaceOnUse" x1="97.2168" y1="165.3792" x2="407.6182" y2="165.3792">
						<stop  offset="0.0108" style="stop-color:#E6EBF0"/>
						<stop  offset="1" style="stop-color:#0686FF"/>
					</linearGradient>
					<path style="fill:url(#SVGID_00000016068680686376160720000009248576170190959242_);" d="M407.618,13.137
						c-2.557,1.54-5.145,3.098-7.787,4.689c-6.772,4.417-13.456,9.676-19.653,15.816c-6.157,6.179-11.854,13.292-16.832,21.1
						c-10.105,15.607-17.017,34.116-28.683,50.639c-1.515,2.005-3.037,4.019-4.564,6.04c-1.653,1.924-3.313,3.856-4.979,5.795
						c-1.783,1.826-3.572,3.658-5.367,5.496c-1.918,1.723-3.842,3.452-5.771,5.186c-7.94,6.687-16.834,12.301-26.207,17.254
						c-9.316,4.993-19.077,9.523-28.295,15.018c-2.283,1.43-4.569,2.862-6.854,4.295l-6.605,4.682l-6.321,5.105l-5.933,5.511
						c-7.647,7.65-14.137,16.47-19.587,25.707c-5.518,9.259-10.017,18.96-15.025,28.307c-4.955,9.367-10.547,18.242-17.262,26.214
						c-1.729,1.923-3.452,3.84-5.169,5.751c-1.841,1.799-3.676,3.591-5.504,5.377c-1.936,1.664-3.864,3.322-5.786,4.973
						c-2.027,1.532-4.047,3.058-6.059,4.578c-16.503,11.652-35.034,18.578-50.623,28.673c-4.048,2.58-7.9,5.354-11.534,8.278h0.977
						c3.443-2.725,7.074-5.309,10.891-7.734c15.551-10.033,34.087-16.913,50.723-28.603c8.266-5.824,15.988-12.807,22.722-20.791
						c1.611-2.039,3.227-4.084,4.848-6.135c1.499-2.157,3.001-4.319,4.508-6.487c1.386-2.24,2.776-4.486,4.169-6.738
						c1.288-2.312,2.58-4.629,3.873-6.951c5.026-9.336,9.559-19.053,15.056-28.233c1.427-2.268,2.855-4.538,4.285-6.809l4.654-6.539
						l5.066-6.249l5.484-5.884l5.899-5.495l6.235-5.054l6.549-4.661c2.266-1.426,4.528-2.85,6.79-4.273
						c9.222-5.521,18.878-10.019,28.245-15.063c9.359-4.968,18.357-10.666,26.318-17.404c1.933-1.744,3.86-3.482,5.78-5.214
						c1.811-1.86,3.614-3.713,5.412-5.561c1.673-1.955,3.34-3.902,5-5.842c1.537-2.043,3.069-4.079,4.594-6.105
						c11.677-16.616,18.57-35.175,28.592-50.708c4.964-7.817,10.583-14.854,16.711-21.033c6.173-6.14,12.78-11.356,19.531-15.78
						c2.499-1.633,5.001-3.162,7.492-4.613V13.137z"/>
					
						<linearGradient id="SVGID_00000173155757711664969540000004585101345779339444_" gradientUnits="userSpaceOnUse" x1="108.627" y1="169.3496" x2="407.6182" y2="169.3496">
						<stop  offset="0.0108" style="stop-color:#E6EBF0"/>
						<stop  offset="1" style="stop-color:#0686FF"/>
					</linearGradient>
					<path style="fill:url(#SVGID_00000173155757711664969540000004585101345779339444_);" d="M407.618,21.078
						c-0.66,0.398-1.31,0.789-1.975,1.189c-6.924,4.252-13.696,9.469-19.977,15.559c-6.267,6.146-11.981,13.29-16.935,21.167
						c-10.002,15.75-17.055,34.292-28.867,50.799c-5.875,8.257-12.809,15.88-20.767,22.659
						c-7.911,6.754-16.774,12.525-26.124,17.604c-9.306,5.108-19.092,9.65-28.419,15.067l-1.762,1.007l-1.72,1.078l-3.44,2.156
						c-1.165,0.691-2.254,1.5-3.362,2.281l-3.319,2.352c-0.562,0.38-1.102,0.792-1.623,1.23l-1.588,1.282l-3.176,2.566
						c-2.032,1.793-3.98,3.665-5.972,5.498c-7.7,7.731-14.078,16.643-19.469,25.983c-5.432,9.352-9.952,19.1-15.072,28.427
						c-5.077,9.341-10.833,18.194-17.608,26.129c-6.763,7.934-14.38,14.877-22.66,20.765c-8.225,5.875-17.016,10.625-25.678,15.11
						c-8.65,4.479-17.262,8.751-25.108,13.748c-1.487,0.935-2.938,1.905-4.371,2.892h1.112c1.181-0.797,2.373-1.584,3.592-2.347
						c15.697-9.935,34.26-16.944,50.905-28.803c8.267-5.851,16.033-12.889,22.825-20.838c6.809-7.938,12.654-16.884,17.758-26.238
						c5.147-9.336,9.695-19.088,15.112-28.372c5.392-9.304,11.742-18.115,19.342-25.725c1.991-1.828,3.939-3.715,5.959-5.501
						l3.13-2.537l1.565-1.268c0.513-0.433,1.046-0.842,1.604-1.221l3.29-2.34c1.098-0.777,2.177-1.582,3.333-2.271l3.414-2.149
						l1.706-1.074l1.745-1.002c9.31-5.431,19.023-9.958,28.38-15.117c9.347-5.101,18.281-10.933,26.243-17.764
						c1.927-1.761,3.894-3.461,5.771-5.257c1.815-1.87,3.623-3.733,5.425-5.59c1.68-1.962,3.354-3.918,5.022-5.866
						c1.546-2.045,3.085-4.083,4.618-6.113c11.844-16.625,18.871-35.211,28.793-50.893c4.931-7.875,10.586-14.961,16.797-21.083
						c6.27-6.101,12.965-11.273,19.854-15.526c0.571-0.345,1.128-0.682,1.695-1.025V21.078z"/>
				</g>
				<g>
					
						<linearGradient id="SVGID_00000062161970684985027000000010580337711734244262_" gradientUnits="userSpaceOnUse" x1="46.3955" y1="148.1299" x2="396.2579" y2="148.1299">
						<stop  offset="0.0108" style="stop-color:#E6EBF0"/>
						<stop  offset="1" style="stop-color:#0686FF"/>
					</linearGradient>
					<path style="fill:url(#SVGID_00000062161970684985027000000010580337711734244262_);" d="M395.26-21.362
						c-0.96,0.497-1.924,1.002-2.891,1.528c-6.539,3.367-13.177,7.264-19.938,11.668c-6.664,4.52-13.242,9.828-19.365,15.989
						c-6.097,6.18-11.772,13.262-16.743,21.015c-5.042,7.764-9.38,16.206-13.805,24.811c-4.444,8.607-8.973,17.366-14.747,25.619
						c-5.727,8.224-12.646,15.796-20.626,22.363c-7.958,6.584-16.921,12.017-26.272,16.901c-9.32,4.915-18.972,9.516-28.108,15.097
						l-3.408,2.135c-1.135,0.714-2.288,1.403-3.365,2.206l-3.286,2.33l-1.644,1.166c-0.556,0.378-1.093,0.782-1.609,1.217
						c-2.085,1.704-4.219,3.363-6.267,5.107l-5.893,5.476c-7.619,7.656-14.124,16.357-19.657,25.491
						c-5.597,9.164-10.178,18.78-15.102,28.116c-4.889,9.354-10.299,18.29-16.907,26.278l-0.6,0.762l-0.636,0.709l-1.29,1.435
						l-2.572,2.863c-1.778,1.843-3.644,3.59-5.452,5.38c-1.917,1.666-3.833,3.321-5.762,4.947c-2.027,1.511-4.025,3.088-6.054,4.527
						c-8.221,5.753-17.018,10.307-25.611,14.742c-8.598,4.419-17.065,8.772-24.806,13.8c-7.769,4.98-14.845,10.659-21.017,16.742
						c-5.924,5.888-11.035,12.179-15.432,18.561h0.657c4.353-6.255,9.378-12.391,15.177-18.134
						c6.196-6.082,13.198-11.673,20.96-16.632c7.742-5.005,16.157-9.31,24.778-13.72c8.604-4.42,17.438-8.968,25.726-14.743
						c8.275-5.733,15.955-12.722,22.571-20.736l2.41-3.05c0.802-1.021,1.631-2.02,2.352-3.115l2.243-3.226l1.123-1.616
						c0.362-0.547,0.694-1.112,1.043-1.667c2.825-4.423,5.397-9.032,7.871-13.702c4.943-9.33,9.554-18.951,15.121-28.024
						l2.135-3.393c0.714-1.129,1.404-2.279,2.202-3.344l2.318-3.255l1.159-1.628c0.376-0.551,0.778-1.082,1.21-1.592
						c1.693-2.063,3.337-4.17,5.071-6.199l5.45-5.848l5.886-5.484c2.029-1.734,4.129-3.372,6.189-5.062
						c0.509-0.43,1.04-0.833,1.592-1.209l1.631-1.161l3.26-2.321c1.068-0.801,2.213-1.487,3.339-2.199l3.383-2.129
						c9.1-5.583,18.686-10.174,28.032-15.125c9.344-4.903,18.387-10.405,26.381-17.048c7.993-6.603,14.989-14.276,20.734-22.572
						c5.754-8.256,10.327-17.129,14.738-25.719c4.406-8.613,8.725-17.053,13.717-24.772c4.968-7.778,10.56-14.776,16.631-20.961
						c6.096-6.156,12.613-11.434,19.249-15.956c6.703-4.393,13.382-8.31,19.863-11.69c1.224-0.673,2.445-1.317,3.661-1.95H395.26z"
						/>
					
						<linearGradient id="SVGID_00000082357670366642175860000000301651739958951317_" gradientUnits="userSpaceOnUse" x1="54.7271" y1="148.7981" x2="407.6182" y2="148.7981">
						<stop  offset="0.0108" style="stop-color:#E6EBF0"/>
						<stop  offset="1" style="stop-color:#0686FF"/>
					</linearGradient>
					<path style="fill:url(#SVGID_00000082357670366642175860000000301651739958951317_);" d="M407.618-20.025
						c-3.013,1.532-6.104,3.105-9.278,4.72c-3.254,1.735-6.592,3.515-10.009,5.337c-3.315,1.997-6.706,4.039-10.169,6.125
						c-6.772,4.417-13.457,9.676-19.654,15.815c-6.157,6.18-11.852,13.294-16.831,21.101
						c-10.105,15.607-17.019,34.115-28.685,50.637c-1.515,2.006-3.036,4.02-4.563,6.042c-1.654,1.924-3.314,3.856-4.98,5.795
						c-1.783,1.825-3.572,3.657-5.368,5.495c-1.918,1.723-3.841,3.452-5.771,5.186c-7.939,6.687-16.833,12.302-26.207,17.256
						c-9.319,4.995-19.071,9.519-28.301,15.022c-2.281,1.429-4.564,2.859-6.848,4.291l-6.605,4.682l-6.321,5.105l-5.933,5.511
						c-7.646,7.65-14.137,16.469-19.587,25.707c-5.519,9.259-10.015,18.961-15.026,28.306c-4.954,9.368-10.546,18.242-17.261,26.214
						c-1.729,1.923-3.452,3.84-5.169,5.751c-1.841,1.798-3.676,3.591-5.505,5.377c-1.936,1.664-3.864,3.322-5.785,4.973
						c-2.028,1.532-4.048,3.058-6.059,4.578c-16.502,11.651-35.034,18.578-50.624,28.672c-7.824,4.988-14.935,10.688-21.101,16.829
						c-4.161,4.197-7.898,8.613-11.251,13.119h0.688c3.287-4.369,6.926-8.63,10.964-12.692c6.193-6.143,13.234-11.755,21.033-16.712
						c15.55-10.033,34.086-16.912,50.723-28.602c8.266-5.824,15.987-12.807,22.722-20.79c1.611-2.039,3.227-4.085,4.848-6.135
						c1.499-2.157,3.002-4.319,4.508-6.487c1.386-2.24,2.776-4.486,4.168-6.738c1.288-2.312,2.58-4.629,3.873-6.951
						c5.029-9.335,9.559-19.053,15.056-28.233c1.427-2.268,2.856-4.538,4.285-6.809l4.654-6.539l5.066-6.248l5.484-5.885
						l5.899-5.495l6.234-5.054l6.55-4.661c2.268-1.427,4.533-2.853,6.796-4.277c9.208-5.514,18.874-10.016,28.238-15.059
						c9.359-4.969,18.357-10.667,26.317-17.405c1.933-1.744,3.86-3.481,5.78-5.214c1.811-1.86,3.614-3.713,5.412-5.56
						c1.673-1.955,3.34-3.902,5-5.842c1.537-2.044,3.068-4.079,4.593-6.106c11.677-16.616,18.572-35.174,28.594-50.707
						c4.965-7.816,10.582-14.854,16.709-21.034c6.175-6.139,12.782-11.354,19.532-15.779c9.975-6.521,20.011-11.407,29.162-16.156
						V-20.025z"/>
					
						<linearGradient id="SVGID_00000127018745725745907260000008940547026887604919_" gradientUnits="userSpaceOnUse" x1="63.3833" y1="152.6133" x2="407.6182" y2="152.6133">
						<stop  offset="0.0108" style="stop-color:#E6EBF0"/>
						<stop  offset="1" style="stop-color:#0686FF"/>
					</linearGradient>
					<path style="fill:url(#SVGID_00000127018745725745907260000008940547026887604919_);" d="M407.618-12.395
						c-1.086,0.551-2.179,1.105-3.282,1.671c-3.309,1.647-6.638,3.488-10.077,5.304c-0.858,0.457-1.721,0.918-2.589,1.381
						c-0.841,0.506-1.687,1.016-2.538,1.527c-1.701,1.024-3.421,2.06-5.159,3.107c-6.924,4.251-13.694,9.471-19.978,15.558
						c-6.267,6.146-11.98,13.291-16.934,21.167c-10.002,15.75-17.053,34.294-28.867,50.799c-5.876,8.257-12.809,15.881-20.766,22.66
						c-7.911,6.754-16.774,12.525-26.125,17.603c-9.306,5.108-19.092,9.65-28.418,15.068l-1.762,1.007l-1.719,1.077l-3.441,2.156
						c-1.165,0.691-2.254,1.5-3.362,2.281l-3.319,2.352c-0.561,0.38-1.102,0.791-1.623,1.23l-1.588,1.282l-3.176,2.566
						c-2.037,1.798-3.967,3.652-5.984,5.51c-7.674,7.706-14.071,16.637-19.456,25.971c-5.432,9.352-9.953,19.099-15.072,28.426
						c-5.076,9.342-10.833,18.195-17.608,26.129c-6.763,7.934-14.381,14.877-22.661,20.765
						c-16.485,11.798-35.053,18.867-50.786,28.858c-7.892,4.961-15.031,10.678-21.168,16.934c-2.4,2.477-4.657,5.027-6.776,7.629
						h0.726c2.029-2.461,4.186-4.872,6.47-7.22c6.13-6.223,13.221-11.875,21.082-16.798c15.698-9.934,34.26-16.944,50.906-28.803
						c8.267-5.851,16.033-12.888,22.825-20.837c6.809-7.939,12.655-16.883,17.758-26.239c5.147-9.335,9.696-19.088,15.113-28.372
						c5.397-9.31,11.729-18.103,19.354-25.737c7.655-7.641,16.432-13.954,25.734-19.35c9.309-5.432,19.022-9.959,28.38-15.117
						c9.347-5.101,18.281-10.933,26.243-17.763c1.927-1.762,3.894-3.462,5.771-5.258c1.814-1.87,3.623-3.733,5.425-5.591
						c1.68-1.962,3.353-3.918,5.021-5.866c1.545-2.045,3.085-4.084,4.618-6.113c11.845-16.624,18.871-35.211,28.793-50.893
						c4.932-7.875,10.585-14.962,16.797-21.083c6.272-6.099,12.966-11.273,19.855-15.526c1.736-1.05,3.454-2.089,5.153-3.117
						c0.85-0.514,1.695-1.025,2.535-1.533c0.864-0.463,1.724-0.923,2.577-1.381c3.425-1.82,6.736-3.65,10.038-5.323
						c1.028-0.536,2.047-1.059,3.061-1.581V-12.395z"/>
				</g>
				<g>
					
						<linearGradient id="SVGID_00000018952719164956887310000013521199284509566107_" gradientUnits="userSpaceOnUse" x1="12.0074" y1="148.1299" x2="340.4488" y2="148.1299">
						<stop  offset="0.0108" style="stop-color:#E6EBF0"/>
						<stop  offset="1" style="stop-color:#0686FF"/>
					</linearGradient>
					<path style="fill:url(#SVGID_00000018952719164956887310000013521199284509566107_);" d="M339.572-21.362
						c-2.79,2.352-5.528,4.848-8.178,7.514C325.3-7.666,319.623-0.586,314.65,7.167c-5.041,7.765-9.379,16.207-13.803,24.812
						c-4.444,8.607-8.972,17.366-14.746,25.62c-5.727,8.223-12.646,15.797-20.626,22.363c-7.959,6.582-16.921,12.017-26.272,16.901
						c-9.321,4.914-18.972,9.515-28.109,15.096c-9.145,5.536-17.868,12.068-25.484,19.649c-7.594,7.632-14.117,16.351-19.645,25.479
						c-5.597,9.164-10.178,18.781-15.101,28.117c-4.89,9.354-10.3,18.29-16.907,26.279c-6.553,7.959-14.119,14.886-22.365,20.624
						c-8.221,5.752-17.018,10.307-25.612,14.742c-8.598,4.42-17.064,8.773-24.806,13.8c-7.77,4.98-14.845,10.66-21.016,16.743
						c-6.175,6.136-11.474,12.71-15.992,19.369c-4.399,6.753-8.313,13.416-11.669,19.941c-0.167,0.308-0.325,0.614-0.489,0.921
						h0.535c0.127-0.233,0.248-0.465,0.376-0.698c3.392-6.496,7.293-13.148,11.69-19.86c4.524-6.641,9.808-13.163,15.951-19.247
						c6.196-6.081,13.198-11.673,20.959-16.633c7.743-5.005,16.158-9.309,24.778-13.72c8.604-4.42,17.438-8.969,25.727-14.743
						c8.274-5.733,15.955-12.722,22.571-20.736l2.41-3.05c0.802-1.02,1.631-2.019,2.353-3.115l2.242-3.226l1.124-1.616
						c0.362-0.547,0.694-1.112,1.044-1.667c2.824-4.423,5.397-9.032,7.871-13.701c4.942-9.33,9.553-18.952,15.12-28.025
						c5.554-9.128,11.997-17.691,19.558-25.27c7.596-7.574,16.155-14.007,25.266-19.553c9.1-5.583,18.687-10.174,28.033-15.124
						c9.344-4.904,18.387-10.407,26.382-17.048c7.993-6.603,14.988-14.277,20.734-22.573c5.753-8.256,10.327-17.129,14.737-25.719
						c4.405-8.613,8.725-17.053,13.715-24.773c4.969-7.778,10.564-14.774,16.632-20.961c2.798-2.826,5.689-5.458,8.635-7.925
						H339.572z"/>
					
						<linearGradient id="SVGID_00000000210064186272838820000007533204222464732032_" gradientUnits="userSpaceOnUse" x1="19.6587" y1="148.1299" x2="351.441" y2="148.1299">
						<stop  offset="0.0108" style="stop-color:#E6EBF0"/>
						<stop  offset="1" style="stop-color:#0686FF"/>
					</linearGradient>
					<path style="fill:url(#SVGID_00000000210064186272838820000007533204222464732032_);" d="M350.515-21.362
						c-4.707,3.463-9.315,7.339-13.678,11.662c-6.155,6.181-11.851,13.294-16.83,21.102C309.9,27.008,302.988,45.517,291.323,62.04
						c-1.515,2.005-3.038,4.019-4.565,6.041c-1.654,1.924-3.314,3.856-4.98,5.795c-1.783,1.825-3.572,3.657-5.368,5.495
						c-1.918,1.723-3.841,3.452-5.772,5.186c-7.939,6.687-16.833,12.302-26.206,17.255c-9.318,4.996-19.07,9.52-28.301,15.023
						c-2.281,1.429-4.563,2.859-6.849,4.291l-6.605,4.682l-6.321,5.105l-5.933,5.511c-7.646,7.65-14.136,16.47-19.587,25.707
						c-5.518,9.26-10.015,18.961-15.025,28.307c-4.956,9.367-10.548,18.241-17.263,26.213c-1.729,1.923-3.451,3.84-5.168,5.752
						c-1.841,1.798-3.676,3.591-5.504,5.377c-1.936,1.664-3.864,3.321-5.786,4.973c-2.028,1.532-4.048,3.058-6.059,4.577
						c-16.503,11.652-35.034,18.579-50.623,28.674c-7.824,4.987-14.936,10.688-21.102,16.829
						c-6.156,6.212-11.405,12.894-15.817,19.655c-3.311,5.072-6.188,10.158-8.832,15.135h0.566
						c2.625-4.887,5.466-9.873,8.708-14.831c4.431-6.763,9.654-13.372,15.776-19.532c6.193-6.143,13.234-11.755,21.034-16.711
						c15.55-10.033,34.086-16.913,50.722-28.604c8.266-5.823,15.988-12.806,22.722-20.79c1.611-2.039,3.227-4.084,4.848-6.135
						c1.499-2.157,3.002-4.319,4.509-6.487c1.386-2.24,2.775-4.486,4.168-6.737c1.289-2.312,2.58-4.629,3.874-6.951
						c5.027-9.336,9.558-19.053,15.055-28.233c1.427-2.268,2.856-4.538,4.286-6.809l4.654-6.539l5.065-6.248l5.484-5.885
						l5.899-5.495l6.235-5.054l6.55-4.661c2.267-1.427,4.533-2.852,6.796-4.277c9.208-5.514,18.875-10.017,28.238-15.06
						c9.358-4.968,18.356-10.667,26.317-17.405c1.933-1.744,3.86-3.482,5.78-5.214c1.81-1.86,3.614-3.713,5.412-5.56
						c1.673-1.955,3.34-3.902,5.001-5.842c1.537-2.043,3.068-4.079,4.594-6.106c11.676-16.617,18.57-35.175,28.593-50.707
						c4.965-7.817,10.582-14.854,16.708-21.035c4.534-4.507,9.302-8.512,14.188-12.077H350.515z"/>
					
						<linearGradient id="SVGID_00000060022640465604477500000006485066085514511781_" gradientUnits="userSpaceOnUse" x1="27.4273" y1="148.1299" x2="363.8184" y2="148.1299">
						<stop  offset="0.0108" style="stop-color:#E6EBF0"/>
						<stop  offset="1" style="stop-color:#0686FF"/>
					</linearGradient>
					<path style="fill:url(#SVGID_00000060022640465604477500000006485066085514511781_);" d="M362.781-21.362
						c-0.161,0.097-0.317,0.191-0.477,0.288c-6.924,4.252-13.695,9.47-19.978,15.558c-6.267,6.145-11.981,13.289-16.934,21.167
						c-10.001,15.75-17.054,34.293-28.868,50.799c-5.874,8.258-12.809,15.88-20.766,22.66c-7.912,6.753-16.775,12.524-26.124,17.604
						c-9.306,5.107-19.093,9.648-28.419,15.066l-1.763,1.007l-1.719,1.077l-3.441,2.156c-1.165,0.692-2.254,1.5-3.362,2.281
						l-3.319,2.352c-0.562,0.38-1.102,0.792-1.624,1.229l-1.588,1.282l-3.176,2.565c-2.032,1.793-3.98,3.665-5.971,5.498
						c-7.699,7.73-14.078,16.644-19.469,25.983c-5.432,9.352-9.951,19.1-15.07,28.427c-5.078,9.341-10.835,18.193-17.61,26.127
						c-6.763,7.935-14.38,14.878-22.661,20.765c-16.484,11.799-35.053,18.868-50.786,28.858
						c-7.892,4.961-15.031,10.678-21.168,16.934c-6.103,6.297-11.308,13.059-15.559,19.977c-1.048,1.741-2.086,3.463-3.112,5.167
						c-0.513,0.852-1.023,1.7-1.53,2.542c-0.288,0.541-0.574,1.077-0.861,1.614h0.585c0.243-0.453,0.484-0.904,0.729-1.359
						c0.507-0.839,1.018-1.683,1.53-2.531c1.026-1.697,2.063-3.412,3.112-5.145c4.255-6.894,9.44-13.599,15.525-19.855
						c6.129-6.224,13.221-11.876,21.081-16.799c15.699-9.932,34.261-16.943,50.906-28.803c8.268-5.85,16.034-12.888,22.825-20.837
						c6.809-7.938,12.655-16.883,17.76-26.237c5.146-9.336,9.693-19.09,15.111-28.373c5.392-9.304,11.742-18.115,19.341-25.725
						c1.991-1.829,3.939-3.715,5.959-5.502l3.13-2.537l1.565-1.268c0.513-0.433,1.046-0.841,1.604-1.22l3.29-2.34
						c1.098-0.777,2.177-1.582,3.334-2.271l3.414-2.148l1.705-1.074l1.746-1.002c9.309-5.432,19.022-9.957,28.38-15.117
						c9.346-5.102,18.28-10.934,26.243-17.764c1.927-1.761,3.893-3.463,5.771-5.258c1.814-1.87,3.623-3.733,5.425-5.59
						c1.68-1.963,3.353-3.919,5.021-5.866c1.545-2.046,3.084-4.084,4.618-6.113c11.844-16.625,18.872-35.211,28.794-50.893
						c4.931-7.876,10.585-14.961,16.797-21.083c6.271-6.1,12.966-11.272,19.855-15.526c0.417-0.252,0.822-0.497,1.236-0.747H362.781
						z"/>
				</g>
				<g>
					
						<linearGradient id="SVGID_00000080885442591984995490000006875266190650720920_" gradientUnits="userSpaceOnUse" x1="-16.8608" y1="144.6639" x2="298.4761" y2="144.6639">
						<stop  offset="0.0108" style="stop-color:#E6EBF0"/>
						<stop  offset="1" style="stop-color:#0686FF"/>
					</linearGradient>
					<path style="fill:url(#SVGID_00000080885442591984995490000006875266190650720920_);" d="M297.702-21.362
						c-1.631,2.223-3.212,4.505-4.722,6.858c-5.042,7.765-9.379,16.206-13.804,24.812c-4.444,8.607-8.973,17.366-14.747,25.619
						c-5.726,8.224-12.645,15.797-20.626,22.363c-7.958,6.583-16.921,12.017-26.272,16.901c-9.32,4.914-18.972,9.516-28.108,15.097
						l-3.407,2.135c-1.135,0.714-2.288,1.403-3.365,2.206l-3.287,2.33l-1.644,1.165c-0.556,0.378-1.093,0.783-1.609,1.217
						c-2.086,1.704-4.219,3.363-6.267,5.107l-5.894,5.476c-7.618,7.657-14.124,16.357-19.655,25.492
						c-5.597,9.163-10.18,18.779-15.102,28.116c-4.889,9.354-10.3,18.289-16.907,26.278c-6.553,7.959-14.119,14.886-22.365,20.624
						c-8.221,5.752-17.019,10.306-25.612,14.741c-8.598,4.42-17.064,8.772-24.806,13.8c-7.768,4.981-14.845,10.66-21.016,16.743
						c-6.175,6.136-11.474,12.709-15.992,19.369c-4.399,6.753-8.313,13.415-11.67,19.941c-1.752,3.227-3.32,6.431-4.906,9.52
						c-0.908,1.831-1.848,3.602-2.781,5.341v0.799c1.052-1.931,2.119-3.9,3.148-5.943c1.604-3.08,3.195-6.285,4.961-9.494
						c3.391-6.496,7.293-13.148,11.69-19.86c4.524-6.641,9.809-13.162,15.952-19.246c6.196-6.082,13.198-11.672,20.959-16.633
						c7.742-5.005,16.157-9.309,24.778-13.72c8.604-4.419,17.438-8.968,25.726-14.743c8.275-5.733,15.955-12.722,22.571-20.736
						l2.41-3.05c0.802-1.021,1.631-2.02,2.352-3.116l2.243-3.226l1.124-1.616c0.362-0.547,0.694-1.111,1.043-1.667
						c2.824-4.423,5.398-9.031,7.871-13.701c4.941-9.331,9.553-18.951,15.121-28.024l2.135-3.393c0.714-1.13,1.404-2.28,2.202-3.344
						l2.317-3.255l1.159-1.628c0.376-0.551,0.777-1.082,1.209-1.592c1.693-2.063,3.337-4.17,5.071-6.2l5.45-5.848l5.886-5.484
						c2.03-1.734,4.129-3.371,6.189-5.062c0.509-0.431,1.04-0.833,1.592-1.21l1.631-1.161l3.26-2.321
						c1.068-0.8,2.213-1.486,3.339-2.198l3.382-2.129c9.1-5.583,18.686-10.175,28.032-15.126
						c9.343-4.903,18.387-10.406,26.381-17.048c7.993-6.602,14.99-14.276,20.734-22.573c5.753-8.256,10.327-17.129,14.738-25.719
						c4.406-8.612,8.725-17.053,13.716-24.772c1.59-2.489,3.251-4.888,4.964-7.216H297.702z"/>
					
						<linearGradient id="SVGID_00000042003778714567864340000009566405728512789950_" gradientUnits="userSpaceOnUse" x1="-13.2456" y1="148.1299" x2="307.0459" y2="148.1299">
						<stop  offset="0.0108" style="stop-color:#E6EBF0"/>
						<stop  offset="1" style="stop-color:#0686FF"/>
					</linearGradient>
					<path style="fill:url(#SVGID_00000042003778714567864340000009566405728512789950_);" d="M306.257-21.362
						c-2.797,3.507-5.448,7.214-7.921,11.093c-10.105,15.607-17.018,34.116-28.683,50.639c-1.516,2.005-3.037,4.019-4.565,6.041
						c-1.654,1.924-3.314,3.856-4.98,5.795c-1.783,1.825-3.572,3.657-5.368,5.495c-1.918,1.723-3.842,3.451-5.772,5.185
						c-7.939,6.687-16.833,12.302-26.207,17.256c-9.315,4.993-19.077,9.524-28.295,15.018c-2.282,1.431-4.567,2.863-6.854,4.296
						l-6.605,4.682l-6.321,5.106l-5.932,5.511c-7.647,7.649-14.137,16.469-19.588,25.706c-5.518,9.26-10.016,18.96-15.024,28.307
						c-4.955,9.367-10.548,18.242-17.264,26.212c-1.728,1.923-3.451,3.841-5.168,5.752c-1.841,1.799-3.676,3.591-5.504,5.378
						c-1.936,1.664-3.864,3.321-5.786,4.972c-2.027,1.532-4.048,3.058-6.059,4.577c-16.503,11.652-35.033,18.58-50.623,28.673
						c-7.825,4.987-14.935,10.689-21.101,16.83c-6.157,6.21-11.407,12.893-15.818,19.654c-8.387,12.85-13.993,25.792-20.065,36.806
						h0.427c6.099-10.939,11.783-23.81,20.08-36.502c4.43-6.763,9.654-13.372,15.777-19.531
						c6.193-6.143,13.234-11.756,21.033-16.712c15.551-10.032,34.086-16.913,50.723-28.603c8.266-5.823,15.989-12.805,22.721-20.791
						c1.611-2.039,3.228-4.084,4.848-6.135c1.499-2.156,3.002-4.319,4.509-6.486c1.386-2.241,2.775-4.487,4.168-6.738
						c1.289-2.312,2.58-4.629,3.874-6.951c5.026-9.337,9.559-19.053,15.055-28.233c1.428-2.268,2.856-4.537,4.286-6.809l4.655-6.539
						l5.065-6.248l5.484-5.884l5.899-5.495l6.234-5.054l6.55-4.661c2.265-1.426,4.528-2.851,6.789-4.274
						c9.223-5.52,18.879-10.018,28.245-15.062c9.359-4.968,18.356-10.668,26.317-17.405c1.933-1.743,3.86-3.481,5.781-5.213
						c1.81-1.86,3.614-3.713,5.412-5.56c1.673-1.955,3.34-3.902,5.001-5.842c1.537-2.043,3.068-4.079,4.594-6.105
						c11.676-16.617,18.57-35.175,28.591-50.708c2.556-4.025,5.289-7.839,8.172-11.44H306.257z"/>
					
						<linearGradient id="SVGID_00000036250276849622127250000004547312180762502031_" gradientUnits="userSpaceOnUse" x1="-5.5771" y1="148.1299" x2="315.96" y2="148.1299">
						<stop  offset="0.0108" style="stop-color:#E6EBF0"/>
						<stop  offset="1" style="stop-color:#0686FF"/>
					</linearGradient>
					<path style="fill:url(#SVGID_00000036250276849622127250000004547312180762502031_);" d="M315.159-21.362
						c-4.135,4.699-7.977,9.836-11.438,15.343c-10.002,15.749-17.054,34.293-28.868,50.798
						c-5.875,8.258-12.809,15.881-20.767,22.659c-7.91,6.755-16.773,12.525-26.124,17.604c-9.306,5.108-19.092,9.65-28.419,15.067
						l-1.762,1.007l-1.72,1.078l-3.44,2.156c-1.165,0.691-2.254,1.5-3.362,2.281l-3.319,2.352c-0.562,0.38-1.101,0.792-1.623,1.23
						l-1.588,1.282l-3.176,2.565c-2.037,1.798-3.968,3.652-5.985,5.51c-7.672,7.707-14.069,16.637-19.455,25.971
						c-5.432,9.352-9.952,19.099-15.072,28.426c-5.077,9.341-10.833,18.194-17.609,26.128c-6.762,7.935-14.38,14.878-22.66,20.765
						c-16.485,11.799-35.054,18.866-50.785,28.859c-7.894,4.96-15.031,10.678-21.169,16.933
						c-6.104,6.297-11.309,13.059-15.559,19.977c-1.048,1.741-2.085,3.463-3.112,5.167c-0.513,0.852-1.023,1.699-1.53,2.542
						c-0.463,0.867-0.923,1.729-1.38,2.586c-1.815,3.435-3.654,6.762-5.3,10.07c-1.689,3.288-3.276,6.521-4.96,9.594
						c-0.188,0.346-0.37,0.689-0.555,1.034h0.466c0.152-0.279,0.3-0.555,0.454-0.835c1.701-3.062,3.309-6.29,5.018-9.572
						c1.674-3.302,3.508-6.616,5.328-10.043c0.458-0.855,0.919-1.715,1.383-2.58c0.507-0.839,1.018-1.683,1.53-2.531
						c1.026-1.696,2.064-3.411,3.112-5.145c4.254-6.895,9.438-13.6,15.524-19.856c6.13-6.222,13.221-11.875,21.082-16.797
						c15.696-9.936,34.259-16.945,50.904-28.804c8.268-5.85,16.034-12.888,22.825-20.838c6.81-7.938,12.655-16.883,17.759-26.238
						c5.148-9.336,9.695-19.088,15.113-28.372c5.398-9.31,11.73-18.102,19.354-25.738c7.656-7.638,16.432-13.954,25.734-19.35
						c9.309-5.431,19.023-9.958,28.38-15.117c9.347-5.101,18.281-10.933,26.242-17.764c1.927-1.761,3.894-3.462,5.772-5.257
						c1.814-1.87,3.623-3.733,5.425-5.59c1.68-1.963,3.355-3.918,5.021-5.866c1.546-2.046,3.085-4.083,4.618-6.113
						c11.844-16.625,18.87-35.211,28.793-50.893c3.544-5.662,7.468-10.907,11.699-15.687H315.159z"/>
				</g>
				<g>
					
						<linearGradient id="SVGID_00000070108182202805842490000000224163011849056948_" gradientUnits="userSpaceOnUse" x1="-16.8608" y1="114.8426" x2="263.4771" y2="114.8426">
						<stop  offset="0.0108" style="stop-color:#E6EBF0"/>
						<stop  offset="1" style="stop-color:#0686FF"/>
					</linearGradient>
					<path style="fill:url(#SVGID_00000070108182202805842490000000224163011849056948_);" d="M262.712-21.362
						c-1.753,3.288-3.474,6.63-5.207,9.999c-4.444,8.607-8.973,17.366-14.746,25.62c-5.727,8.223-12.646,15.796-20.626,22.363
						c-7.959,6.583-16.922,12.016-26.272,16.901c-9.32,4.915-18.972,9.515-28.109,15.097c-9.145,5.536-17.867,12.068-25.484,19.648
						c-7.593,7.633-14.116,16.351-19.643,25.48c-5.598,9.164-10.178,18.78-15.102,28.116c-4.89,9.354-10.3,18.29-16.907,26.278
						l-0.6,0.762l-0.636,0.709l-1.29,1.435l-2.572,2.863c-1.778,1.843-3.644,3.59-5.452,5.38c-1.917,1.667-3.833,3.321-5.762,4.947
						c-2.027,1.511-4.025,3.088-6.053,4.527c-8.221,5.752-17.019,10.306-25.612,14.741c-8.598,4.419-17.064,8.772-24.806,13.8
						c-7.769,4.981-14.845,10.66-21.016,16.743c-5.153,5.121-9.689,10.548-13.678,16.074v0.923
						c4.094-5.713,8.764-11.306,14.08-16.571c6.196-6.082,13.198-11.672,20.96-16.632c7.742-5.005,16.158-9.309,24.778-13.72
						c8.604-4.419,17.438-8.968,25.727-14.742c8.275-5.733,15.954-12.723,22.57-20.737l2.41-3.05c0.802-1.02,1.631-2.02,2.353-3.115
						l2.242-3.226l1.124-1.617c0.361-0.546,0.694-1.111,1.043-1.667c2.824-4.422,5.398-9.032,7.871-13.701
						c4.943-9.33,9.553-18.952,15.121-28.024c5.553-9.128,11.996-17.691,19.556-25.271c7.597-7.572,16.156-14.006,25.267-19.552
						c9.1-5.583,18.687-10.174,28.032-15.125c9.344-4.904,18.387-10.406,26.381-17.048c7.993-6.603,14.989-14.275,20.735-22.572
						c5.753-8.257,10.327-17.13,14.737-25.72c1.781-3.481,3.55-6.93,5.352-10.318H262.712z"/>
					
						<linearGradient id="SVGID_00000089541179710985724760000013876712278889330340_" gradientUnits="userSpaceOnUse" x1="-16.8608" y1="120.9871" x2="271.1895" y2="120.9871">
						<stop  offset="0.0108" style="stop-color:#E6EBF0"/>
						<stop  offset="1" style="stop-color:#0686FF"/>
					</linearGradient>
					<path style="fill:url(#SVGID_00000089541179710985724760000013876712278889330340_);" d="M270.434-21.362
						c-7.109,13.012-13.329,27.141-22.452,40.061c-1.515,2.005-3.037,4.02-4.564,6.041c-1.654,1.924-3.314,3.856-4.98,5.795
						c-1.783,1.826-3.572,3.658-5.368,5.496c-1.918,1.723-3.841,3.452-5.771,5.186c-7.939,6.687-16.833,12.302-26.206,17.255
						c-9.316,4.993-19.077,9.523-28.296,15.017c-2.282,1.431-4.567,2.863-6.854,4.296l-6.605,4.682l-6.321,5.105l-5.92,5.499
						l-5.534,5.959l-5.094,6.308l-4.689,6.616c-1.429,2.28-2.857,4.559-4.283,6.836c-5.518,9.26-10.015,18.96-15.025,28.307
						c-4.955,9.367-10.547,18.242-17.263,26.213c-1.728,1.923-3.451,3.841-5.168,5.752c-1.841,1.798-3.676,3.591-5.505,5.377
						c-1.935,1.664-3.864,3.322-5.785,4.973c-2.027,1.532-4.047,3.059-6.059,4.578c-16.502,11.652-35.034,18.578-50.623,28.673
						c-7.825,4.986-14.936,10.688-21.101,16.829c-6.158,6.21-11.408,12.893-15.818,19.653c-0.691,1.058-1.356,2.116-2.01,3.174
						v1.017c0.795-1.296,1.606-2.592,2.453-3.887c4.43-6.763,9.654-13.372,15.777-19.531c6.192-6.143,13.234-11.756,21.033-16.711
						c15.55-10.033,34.087-16.912,50.723-28.603c8.265-5.825,15.988-12.806,22.721-20.791c1.611-2.039,3.228-4.084,4.848-6.135
						c1.499-2.156,3.002-4.319,4.509-6.487c1.386-2.241,2.775-4.487,4.168-6.738c1.288-2.312,2.579-4.629,3.873-6.951
						c5.027-9.336,9.559-19.053,15.055-28.233c1.427-2.268,2.856-4.538,4.286-6.809l4.654-6.539l5.066-6.248l5.472-5.873
						l5.912-5.507l6.235-5.054l6.549-4.661c2.265-1.426,4.528-2.851,6.789-4.274c9.223-5.52,18.879-10.018,28.246-15.061
						c9.359-4.968,18.356-10.667,26.317-17.405c1.933-1.744,3.86-3.482,5.781-5.214c1.81-1.86,3.614-3.713,5.411-5.561
						c1.673-1.955,3.34-3.902,5.001-5.842c1.537-2.043,3.068-4.079,4.593-6.106c9.206-13.099,15.443-27.399,22.579-40.478H270.434z"
						/>
					
						<linearGradient id="SVGID_00000126310106494463277000000016801592851975073959_" gradientUnits="userSpaceOnUse" x1="-16.8608" y1="127.8914" x2="279.0039" y2="127.8914">
						<stop  offset="0.0108" style="stop-color:#E6EBF0"/>
						<stop  offset="1" style="stop-color:#0686FF"/>
					</linearGradient>
					<path style="fill:url(#SVGID_00000126310106494463277000000016801592851975073959_);" d="M278.254-21.362
						c-8.134,14.249-14.806,30.128-25.072,44.47c-5.875,8.258-12.808,15.881-20.766,22.66c-7.911,6.754-16.774,12.523-26.124,17.603
						c-9.306,5.108-19.093,9.649-28.419,15.067l-1.762,1.007l-1.719,1.077l-3.441,2.156c-1.165,0.692-2.255,1.5-3.362,2.281
						l-3.319,2.352c-0.561,0.38-1.101,0.791-1.623,1.229l-1.588,1.282l-3.176,2.565c-2.032,1.793-3.981,3.664-5.972,5.497
						c-7.699,7.731-14.077,16.645-19.468,25.984c-5.432,9.352-9.953,19.099-15.073,28.426c-5.076,9.342-10.832,18.195-17.608,26.129
						c-6.762,7.935-14.381,14.877-22.661,20.764c-16.485,11.799-35.054,18.867-50.786,28.859
						c-7.893,4.96-15.031,10.678-21.168,16.933c-6.103,6.297-11.308,13.059-15.559,19.977c-1.048,1.741-2.086,3.463-3.112,5.167
						c-0.513,0.852-1.023,1.699-1.53,2.542c-0.462,0.867-0.922,1.73-1.379,2.587c-0.143,0.271-0.286,0.536-0.429,0.806v1.085
						c0.292-0.547,0.586-1.091,0.879-1.643c0.458-0.855,0.919-1.715,1.383-2.58c0.507-0.839,1.017-1.683,1.53-2.531
						c1.026-1.697,2.063-3.412,3.112-5.145c4.255-6.894,9.439-13.6,15.524-19.855c6.13-6.223,13.221-11.875,21.082-16.797
						c15.698-9.934,34.261-16.944,50.906-28.803c8.267-5.851,16.034-12.888,22.826-20.837c6.809-7.939,12.654-16.883,17.757-26.239
						c5.147-9.336,9.696-19.088,15.113-28.372c5.391-9.305,11.742-18.115,19.34-25.726c1.991-1.828,3.939-3.715,5.959-5.501
						l3.13-2.537l1.565-1.269c0.513-0.433,1.046-0.841,1.604-1.22l3.29-2.34c1.098-0.777,2.177-1.582,3.334-2.271l3.414-2.148
						l1.706-1.074l1.746-1.002c9.309-5.432,19.022-9.958,28.38-15.118c9.346-5.102,18.281-10.933,26.243-17.763
						c1.927-1.761,3.895-3.462,5.771-5.257c1.814-1.87,3.623-3.734,5.425-5.591c1.68-1.962,3.354-3.918,5.021-5.866
						c1.545-2.046,3.085-4.083,4.618-6.113c10.371-14.554,17.047-30.613,25.207-44.909H278.254z"/>
				</g>
				<g>
					
						<linearGradient id="SVGID_00000090982412743905917130000017994796465058108546_" gradientUnits="userSpaceOnUse" x1="-16.8608" y1="92.2932" x2="230.4849" y2="92.2932">
						<stop  offset="0.0108" style="stop-color:#E6EBF0"/>
						<stop  offset="1" style="stop-color:#0686FF"/>
					</linearGradient>
					<path style="fill:url(#SVGID_00000090982412743905917130000017994796465058108546_);" d="M229.662-21.362
						c-2.612,4.729-5.4,9.416-8.571,13.95c-5.727,8.223-12.647,15.796-20.627,22.362c-7.958,6.583-16.921,12.016-26.272,16.901
						c-9.32,4.916-18.972,9.516-28.108,15.097c-9.146,5.536-17.868,12.068-25.484,19.649c-7.594,7.633-14.116,16.351-19.644,25.479
						c-5.597,9.164-10.177,18.781-15.1,28.117c-4.89,9.354-10.301,18.289-16.908,26.278c-6.553,7.959-14.119,14.887-22.365,20.624
						c-8.221,5.752-17.019,10.306-25.612,14.741c-8.598,4.42-17.065,8.773-24.806,13.8c-4.601,2.95-8.952,6.15-13.023,9.528v0.783
						c4.167-3.472,8.623-6.742,13.368-9.774c7.742-5.005,16.157-9.309,24.778-13.72c8.604-4.419,17.439-8.968,25.727-14.743
						c8.275-5.733,15.955-12.722,22.571-20.737l2.41-3.05c0.802-1.02,1.631-2.019,2.353-3.115l2.243-3.226l1.124-1.616
						c0.362-0.546,0.694-1.111,1.043-1.667c2.825-4.423,5.398-9.031,7.872-13.701c4.942-9.33,9.553-18.952,15.119-28.025
						c5.554-9.128,11.997-17.691,19.558-25.271c7.597-7.573,16.155-14.006,25.267-19.552c9.1-5.583,18.687-10.174,28.032-15.126
						c9.344-4.904,18.387-10.406,26.381-17.048c7.993-6.602,14.99-14.275,20.735-22.572c3.238-4.647,6.095-9.49,8.767-14.368
						H229.662z"/>
					
						<linearGradient id="SVGID_00000036248143010282978670000007829551527730579848_" gradientUnits="userSpaceOnUse" x1="-16.8608" y1="96.8116" x2="238.2388" y2="96.8116">
						<stop  offset="0.0108" style="stop-color:#E6EBF0"/>
						<stop  offset="1" style="stop-color:#0686FF"/>
					</linearGradient>
					<path style="fill:url(#SVGID_00000036248143010282978670000007829551527730579848_);" d="M237.43-21.362
						c-3.338,6.235-6.918,12.442-11.118,18.391c-1.515,2.005-3.037,4.019-4.564,6.04c-1.654,1.924-3.314,3.856-4.98,5.795
						c-1.783,1.825-3.572,3.657-5.368,5.495c-1.917,1.723-3.841,3.452-5.771,5.186c-7.939,6.687-16.833,12.302-26.207,17.255
						c-9.318,4.995-19.07,9.52-28.301,15.023c-2.281,1.429-4.563,2.859-6.849,4.291l-6.605,4.682l-6.321,5.105l-5.933,5.511
						c-7.646,7.65-14.136,16.47-19.586,25.707c-5.518,9.26-10.015,18.96-15.027,28.306c-4.954,9.368-10.546,18.242-17.261,26.214
						c-1.729,1.923-3.451,3.84-5.169,5.751c-1.841,1.798-3.676,3.591-5.504,5.377c-1.936,1.663-3.864,3.321-5.786,4.973
						c-2.027,1.532-4.047,3.058-6.059,4.577c-16.502,11.653-35.034,18.579-50.623,28.674c-6.252,3.983-12.037,8.429-17.259,13.186
						v0.807c5.325-4.875,11.199-9.386,17.592-13.448c15.55-10.034,34.087-16.913,50.723-28.604
						c8.266-5.823,15.988-12.806,22.722-20.79c1.611-2.039,3.227-4.084,4.848-6.135c1.499-2.157,3.002-4.319,4.508-6.487
						c1.386-2.24,2.775-4.487,4.168-6.738c1.289-2.312,2.58-4.629,3.873-6.951c5.029-9.335,9.56-19.052,15.057-28.232
						c1.427-2.268,2.856-4.538,4.286-6.809l4.654-6.539l5.065-6.248l5.484-5.885l5.899-5.495l6.235-5.054l6.55-4.661
						c2.267-1.427,4.533-2.853,6.796-4.277c9.208-5.514,18.874-10.018,28.238-15.06c9.359-4.968,18.356-10.666,26.317-17.405
						c1.933-1.744,3.86-3.482,5.78-5.214c1.811-1.86,3.614-3.713,5.412-5.56c1.673-1.955,3.34-3.902,5.001-5.842
						c1.537-2.043,3.068-4.079,4.594-6.106c4.279-6.09,7.914-12.441,11.297-18.808H237.43z"/>
					
						<linearGradient id="SVGID_00000052076346539032189520000012242570822857712820_" gradientUnits="userSpaceOnUse" x1="-16.8608" y1="101.5804" x2="245.9156" y2="101.5804">
						<stop  offset="0.0108" style="stop-color:#E6EBF0"/>
						<stop  offset="1" style="stop-color:#0686FF"/>
					</linearGradient>
					<path style="fill:url(#SVGID_00000052076346539032189520000012242570822857712820_);" d="M245.124-21.362
						c-4.047,7.72-8.357,15.461-13.61,22.8c-5.876,8.257-12.809,15.88-20.766,22.66c-7.911,6.753-16.773,12.525-26.124,17.604
						c-9.306,5.107-19.093,9.649-28.418,15.067l-1.762,1.007l-1.719,1.077l-3.441,2.156c-1.165,0.691-2.254,1.5-3.362,2.281
						l-3.319,2.352c-0.562,0.38-1.102,0.791-1.623,1.229l-1.588,1.282l-3.176,2.565c-2.031,1.793-3.98,3.665-5.971,5.498
						c-7.7,7.73-14.079,16.643-19.469,25.983c-5.432,9.352-9.952,19.1-15.072,28.427c-5.076,9.341-10.833,18.194-17.608,26.128
						c-6.763,7.935-14.381,14.877-22.662,20.765c-16.484,11.8-35.053,18.867-50.785,28.858
						c-7.892,4.962-15.031,10.678-21.168,16.934c-0.115,0.119-0.225,0.241-0.339,0.36v0.852c0.254-0.267,0.501-0.537,0.759-0.802
						c6.129-6.224,13.221-11.874,21.081-16.798c15.697-9.934,34.261-16.942,50.905-28.803c8.267-5.851,16.034-12.888,22.825-20.837
						c6.809-7.938,12.655-16.883,17.758-26.238c5.148-9.336,9.696-19.088,15.113-28.372c5.391-9.305,11.742-18.115,19.342-25.725
						c1.991-1.829,3.939-3.715,5.958-5.502l3.131-2.537l1.564-1.269c0.513-0.433,1.046-0.841,1.604-1.22l3.29-2.34
						c1.099-0.777,2.178-1.581,3.334-2.271l3.414-2.148l1.706-1.074l1.746-1.002c9.309-5.432,19.022-9.959,28.38-15.117
						c9.347-5.101,18.28-10.934,26.242-17.764c1.927-1.761,3.895-3.462,5.771-5.258c1.814-1.87,3.623-3.733,5.425-5.59
						c1.68-1.963,3.354-3.919,5.021-5.866c1.545-2.046,3.085-4.083,4.618-6.113c5.341-7.496,9.7-15.39,13.788-23.238H245.124z"/>
				</g>
				<g>
					
						<linearGradient id="SVGID_00000039851566164473337730000001910342530797028249_" gradientUnits="userSpaceOnUse" x1="-16.8608" y1="74.0733" x2="194.5118" y2="74.0733">
						<stop  offset="0.0108" style="stop-color:#E6EBF0"/>
						<stop  offset="1" style="stop-color:#0686FF"/>
					</linearGradient>
					<path style="fill:url(#SVGID_00000039851566164473337730000001910342530797028249_);" d="M193.507-21.362
						c-4.394,5.267-9.304,10.19-14.714,14.642c-7.959,6.582-16.921,12.018-26.273,16.902c-9.32,4.914-18.972,9.515-28.108,15.096
						l-3.408,2.135c-1.135,0.715-2.288,1.403-3.365,2.206l-3.286,2.33l-1.645,1.165c-0.556,0.378-1.093,0.783-1.608,1.217
						c-2.086,1.704-4.219,3.363-6.267,5.107l-5.894,5.475c-7.618,7.656-14.124,16.357-19.657,25.491
						c-5.597,9.163-10.178,18.78-15.1,28.117c-4.889,9.354-10.301,18.289-16.908,26.278c-6.553,7.959-14.118,14.886-22.365,20.625
						c-8.22,5.752-17.018,10.306-25.612,14.741c-5.492,2.823-10.929,5.622-16.16,8.584v0.758c5.32-3.011,10.852-5.847,16.477-8.725
						c8.604-4.419,17.439-8.968,25.727-14.742c8.274-5.734,15.954-12.723,22.57-20.737l2.41-3.05
						c0.802-1.021,1.631-2.019,2.353-3.115l2.243-3.226l1.124-1.616c0.362-0.546,0.694-1.111,1.043-1.667
						c2.825-4.422,5.399-9.031,7.872-13.701c4.941-9.33,9.553-18.952,15.119-28.025l2.136-3.393c0.714-1.13,1.404-2.279,2.202-3.344
						l2.317-3.255l1.159-1.628c0.376-0.551,0.778-1.082,1.21-1.592c1.692-2.063,3.337-4.17,5.071-6.199l5.45-5.848l5.885-5.484
						c2.03-1.734,4.13-3.371,6.189-5.062c0.508-0.431,1.04-0.833,1.592-1.209l1.631-1.161l3.26-2.321
						c1.068-0.8,2.213-1.486,3.339-2.199l3.383-2.128c9.1-5.583,18.687-10.174,28.032-15.125
						c9.344-4.903,18.386-10.407,26.381-17.048c5.587-4.615,10.673-9.761,15.199-15.269H193.507z"/>
					
						<linearGradient id="SVGID_00000111874476684268806410000011254643979451904929_" gradientUnits="userSpaceOnUse" x1="-16.8608" y1="77.9949" x2="203.1177" y2="77.9949">
						<stop  offset="0.0108" style="stop-color:#E6EBF0"/>
						<stop  offset="1" style="stop-color:#0686FF"/>
					</linearGradient>
					<path style="fill:url(#SVGID_00000111874476684268806410000011254643979451904929_);" d="M202.165-21.362
						c-0.696,0.921-1.388,1.837-2.086,2.761c-1.654,1.924-3.314,3.855-4.98,5.794c-1.783,1.825-3.572,3.657-5.368,5.495
						c-1.917,1.723-3.841,3.452-5.771,5.186c-7.939,6.687-16.834,12.301-26.206,17.256c-9.316,4.993-19.078,9.523-28.295,15.018
						c-2.282,1.43-4.567,2.862-6.855,4.295l-6.605,4.682l-6.321,5.106l-5.92,5.498l-5.533,5.96l-5.094,6.308l-4.689,6.616
						c-1.429,2.28-2.857,4.559-4.284,6.835c-5.518,9.259-10.016,18.96-15.024,28.307c-4.956,9.367-10.548,18.242-17.264,26.213
						c-1.728,1.923-3.451,3.841-5.168,5.751c-1.841,1.799-3.676,3.592-5.504,5.378c-1.936,1.663-3.864,3.322-5.786,4.973
						c-2.028,1.532-4.047,3.058-6.059,4.578C14.377,161.22-2.26,167.91-16.861,176.599v0.753
						c14.65-8.73,31.438-15.403,46.645-26.088c8.267-5.823,15.988-12.807,22.721-20.792c1.611-2.039,3.228-4.084,4.848-6.135
						c1.499-2.157,3.002-4.319,4.509-6.487c1.386-2.241,2.775-4.487,4.168-6.738c1.289-2.312,2.58-4.629,3.874-6.95
						c5.026-9.337,9.558-19.054,15.055-28.233c1.428-2.268,2.856-4.538,4.286-6.809l4.654-6.539l5.065-6.249l5.472-5.872
						l5.912-5.507l6.234-5.054l6.55-4.662c2.265-1.426,4.528-2.85,6.789-4.273c9.222-5.521,18.879-10.018,28.245-15.062
						c9.358-4.969,18.356-10.667,26.317-17.406c1.933-1.743,3.86-3.482,5.78-5.214c1.811-1.86,3.614-3.713,5.412-5.56
						c1.673-1.955,3.34-3.902,5.001-5.842c0.816-1.086,1.627-2.163,2.44-3.243H202.165z"/>
					
						<linearGradient id="SVGID_00000003810409232082384300000011391046916697729426_" gradientUnits="userSpaceOnUse" x1="-16.8608" y1="81.9998" x2="211.5401" y2="81.9998">
						<stop  offset="0.0108" style="stop-color:#E6EBF0"/>
						<stop  offset="1" style="stop-color:#0686FF"/>
					</linearGradient>
					<path style="fill:url(#SVGID_00000003810409232082384300000011391046916697729426_);" d="M210.626-21.362
						c-0.263,0.376-0.516,0.757-0.784,1.131c-5.876,8.257-12.81,15.879-20.767,22.659c-7.911,6.754-16.774,12.525-26.124,17.604
						c-9.306,5.108-19.093,9.649-28.419,15.066l-1.763,1.007l-1.719,1.077l-3.44,2.156c-1.166,0.692-2.255,1.5-3.362,2.281
						l-3.319,2.352c-0.562,0.38-1.102,0.792-1.623,1.23l-1.588,1.282l-3.176,2.566c-2.037,1.798-3.968,3.652-5.984,5.51
						c-7.672,7.706-14.071,16.636-19.456,25.97c-5.433,9.352-9.951,19.1-15.071,28.427c-5.076,9.341-10.833,18.194-17.608,26.128
						c-6.763,7.934-14.381,14.877-22.661,20.765c-16.429,11.758-34.924,18.82-50.623,28.757v0.755
						c0.057-0.036,0.112-0.074,0.169-0.109c15.698-9.934,34.26-16.944,50.906-28.803c8.267-5.851,16.034-12.889,22.825-20.837
						c6.81-7.938,12.655-16.883,17.759-26.238c5.147-9.336,9.694-19.089,15.112-28.373c5.397-9.31,11.73-18.102,19.355-25.737
						c7.655-7.64,16.432-13.954,25.733-19.35c9.31-5.432,19.022-9.957,28.38-15.116c9.347-5.102,18.281-10.934,26.243-17.764
						c1.927-1.761,3.894-3.462,5.771-5.258c1.814-1.87,3.623-3.733,5.425-5.59c1.68-1.962,3.354-3.918,5.021-5.866
						c1.546-2.045,3.085-4.084,4.618-6.112c0.37-0.52,0.722-1.046,1.083-1.569H210.626z"/>
				</g>
				<g>
					
						<linearGradient id="SVGID_00000140707838071860140130000012777430225518439607_" gradientUnits="userSpaceOnUse" x1="-16.8608" y1="57.5332" x2="149.1333" y2="57.5332">
						<stop  offset="0.0108" style="stop-color:#E6EBF0"/>
						<stop  offset="1" style="stop-color:#0686FF"/>
					</linearGradient>
					<path style="fill:url(#SVGID_00000140707838071860140130000012777430225518439607_);" d="M147.662-21.362
						c-5.356,3.597-11.009,6.841-16.811,9.872c-9.32,4.914-18.972,9.516-28.108,15.097l-3.408,2.135
						C98.2,6.457,97.047,7.146,95.97,7.949l-3.287,2.33l-1.644,1.166c-0.556,0.378-1.093,0.782-1.608,1.217
						c-2.086,1.704-4.219,3.363-6.267,5.107l-5.894,5.476C69.652,30.9,63.146,39.602,57.615,48.736
						c-5.597,9.164-10.18,18.779-15.102,28.116c-4.889,9.354-10.299,18.291-16.907,26.279c-6.553,7.959-14.119,14.886-22.365,20.623
						c-6.471,4.527-13.297,8.31-20.102,11.878v0.796c6.929-3.611,13.905-7.441,20.533-12.059
						c8.275-5.733,15.955-12.722,22.571-20.736l2.41-3.05c0.802-1.021,1.631-2.02,2.352-3.115l2.243-3.226l1.123-1.617
						c0.362-0.546,0.694-1.111,1.043-1.667c2.825-4.423,5.398-9.032,7.871-13.701c4.941-9.33,9.554-18.951,15.121-28.024
						l2.135-3.393c0.714-1.13,1.404-2.28,2.202-3.344l2.317-3.255l1.159-1.628c0.376-0.551,0.778-1.082,1.21-1.592
						c1.692-2.063,3.337-4.17,5.07-6.199l5.451-5.848l5.885-5.484c2.03-1.734,4.13-3.371,6.189-5.062
						c0.508-0.43,1.04-0.833,1.592-1.209l1.631-1.161l3.26-2.321c1.068-0.8,2.212-1.486,3.339-2.198l3.383-2.129
						c9.1-5.583,18.686-10.174,28.032-15.125c6.163-3.234,12.186-6.737,17.872-10.646H147.662z"/>
					
						<linearGradient id="SVGID_00000137116180795317283860000010634920365338380200_" gradientUnits="userSpaceOnUse" x1="-16.8608" y1="61.3726" x2="160.5992" y2="61.3726">
						<stop  offset="0.0108" style="stop-color:#E6EBF0"/>
						<stop  offset="1" style="stop-color:#0686FF"/>
					</linearGradient>
					<path style="fill:url(#SVGID_00000137116180795317283860000010634920365338380200_);" d="M159.298-21.362
						c-7.158,5.632-15.003,10.481-23.216,14.822c-9.316,4.993-19.078,9.523-28.295,15.018c-2.283,1.43-4.568,2.862-6.855,4.295
						l-6.605,4.682l-6.321,5.106l-5.92,5.499l-5.534,5.959l-5.094,6.308l-4.688,6.616c-1.429,2.28-2.857,4.559-4.283,6.835
						c-5.519,9.259-10.015,18.96-15.025,28.307c-4.956,9.367-10.548,18.242-17.263,26.213c-1.728,1.923-3.451,3.841-5.168,5.751
						c-1.841,1.799-3.676,3.591-5.504,5.377c-1.935,1.664-3.864,3.321-5.786,4.973c-2.027,1.532-4.047,3.058-6.059,4.578
						c-7.898,5.576-16.26,10.068-24.542,14.345v0.784c8.401-4.313,16.911-8.848,24.975-14.514
						c8.266-5.824,15.988-12.806,22.721-20.791c1.611-2.039,3.228-4.085,4.848-6.135c1.499-2.157,3.002-4.319,4.509-6.487
						c1.386-2.24,2.775-4.486,4.168-6.738c1.289-2.312,2.58-4.628,3.874-6.95c5.027-9.335,9.559-19.053,15.056-28.233
						c1.427-2.268,2.855-4.538,4.285-6.809l4.654-6.538l5.066-6.248l5.472-5.872l5.912-5.507l6.235-5.054l6.549-4.662
						c2.265-1.426,4.528-2.85,6.79-4.274c9.222-5.521,18.878-10.018,28.245-15.062c8.504-4.516,16.701-9.642,24.103-15.594H159.298z
						"/>
					
						<linearGradient id="SVGID_00000135659744561358844760000011855364440478267575_" gradientUnits="userSpaceOnUse" x1="-16.8608" y1="65.1941" x2="170.9727" y2="65.1941">
						<stop  offset="0.0108" style="stop-color:#E6EBF0"/>
						<stop  offset="1" style="stop-color:#0686FF"/>
					</linearGradient>
					<path style="fill:url(#SVGID_00000135659744561358844760000011855364440478267575_);" d="M169.816-21.362
						c-0.795,0.713-1.594,1.423-2.41,2.118c-7.91,6.755-16.774,12.525-26.124,17.605c-9.306,5.108-19.093,9.649-28.42,15.066
						l-1.762,1.007l-1.72,1.078l-3.44,2.156c-1.165,0.692-2.254,1.5-3.363,2.281L99.26,22.3c-0.562,0.38-1.102,0.792-1.624,1.23
						l-1.587,1.282l-3.176,2.565c-2.031,1.793-3.98,3.665-5.972,5.498c-7.699,7.731-14.078,16.644-19.469,25.983
						C62,68.211,57.479,77.958,52.361,87.286c-5.077,9.341-10.833,18.193-17.609,26.128c-6.762,7.936-14.38,14.878-22.66,20.766
						c-9.283,6.644-19.226,11.788-28.953,16.798v0.772c9.834-5.041,19.93-10.221,29.405-16.971
						c8.267-5.851,16.033-12.888,22.825-20.838c6.808-7.939,12.655-16.883,17.758-26.238c5.146-9.336,9.695-19.089,15.112-28.372
						c5.392-9.304,11.742-18.115,19.342-25.725c1.991-1.828,3.939-3.715,5.959-5.501l3.13-2.537l1.565-1.269
						c0.513-0.433,1.046-0.841,1.604-1.22l3.29-2.341c1.098-0.777,2.177-1.582,3.334-2.271l3.414-2.149l1.706-1.074l1.746-1.002
						c9.309-5.432,19.023-9.957,28.38-15.116c9.347-5.103,18.281-10.934,26.242-17.765c1.003-0.917,2.016-1.818,3.023-2.724H169.816
						z"/>
				</g>
				<g>
					
						<linearGradient id="SVGID_00000058563745984802930130000018138309150065416070_" gradientUnits="userSpaceOnUse" x1="-16.8608" y1="40.2603" x2="88.6094" y2="40.2603">
						<stop  offset="0.0108" style="stop-color:#E6EBF0"/>
						<stop  offset="1" style="stop-color:#0686FF"/>
					</linearGradient>
					<path style="fill:url(#SVGID_00000058563745984802930130000018138309150065416070_);" d="M86.729-21.362
						c-1.902,1.069-3.792,2.16-5.658,3.3C71.925-12.527,63.204-5.994,55.587,1.586C47.994,9.22,41.471,17.937,35.943,27.066
						c-5.597,9.164-10.177,18.78-15.101,28.117c-4.889,9.353-10.3,18.29-16.908,26.278l-0.6,0.762l-0.636,0.709l-1.29,1.435
						l-2.572,2.863c-1.778,1.843-3.644,3.589-5.452,5.38c-1.918,1.666-3.832,3.321-5.762,4.947c-1.502,1.119-2.99,2.258-4.484,3.367
						v0.958c7.838-5.578,15.123-12.275,21.433-19.919l2.41-3.05c0.802-1.021,1.631-2.019,2.352-3.115l2.243-3.225l1.123-1.616
						c0.362-0.547,0.694-1.111,1.043-1.667c2.825-4.423,5.398-9.031,7.872-13.701c4.941-9.33,9.552-18.952,15.119-28.025
						c5.554-9.128,11.998-17.69,19.558-25.271c7.597-7.573,16.155-14.007,25.267-19.552c2.322-1.425,4.677-2.784,7.051-4.102H86.729
						z"/>
					
						<linearGradient id="SVGID_00000094600702793862997600000001592538288542887312_" gradientUnits="userSpaceOnUse" x1="-16.8608" y1="44.4012" x2="103.1348" y2="44.4012">
						<stop  offset="0.0108" style="stop-color:#E6EBF0"/>
						<stop  offset="1" style="stop-color:#0686FF"/>
					</linearGradient>
					<path style="fill:url(#SVGID_00000094600702793862997600000001592538288542887312_);" d="M101.153-21.362
						c-5.067,2.594-10.129,5.245-15.037,8.17c-2.283,1.431-4.568,2.862-6.854,4.295l-6.605,4.682l-6.321,5.106l-5.933,5.511
						c-7.646,7.649-14.136,16.47-19.587,25.706c-5.518,9.26-10.015,18.961-15.026,28.307c-4.954,9.368-10.546,18.242-17.261,26.214
						c-1.729,1.923-3.452,3.84-5.169,5.751c-1.841,1.798-3.676,3.591-5.504,5.377c-1.936,1.664-3.865,3.321-5.786,4.973
						c-2.028,1.532-4.048,3.058-6.06,4.577c-0.95,0.671-1.908,1.322-2.871,1.963v0.894c1.108-0.729,2.21-1.474,3.304-2.242
						c8.266-5.823,15.989-12.805,22.722-20.79c1.611-2.039,3.227-4.084,4.848-6.135c1.499-2.157,3.002-4.319,4.509-6.487
						c1.386-2.24,2.775-4.487,4.168-6.738c1.288-2.312,2.579-4.629,3.873-6.951c5.029-9.335,9.56-19.052,15.056-28.233
						c1.427-2.267,2.856-4.537,4.286-6.809l4.654-6.539l5.066-6.249l5.484-5.884l5.9-5.495l6.235-5.054l6.549-4.662
						c2.265-1.426,4.528-2.851,6.789-4.274c5.417-3.242,10.984-6.131,16.554-8.986H101.153z"/>
					
						<linearGradient id="SVGID_00000028327279397432317200000008823436702497300362_" gradientUnits="userSpaceOnUse" x1="-16.8608" y1="48.4253" x2="117.8555" y2="48.4253">
						<stop  offset="0.0108" style="stop-color:#E6EBF0"/>
						<stop  offset="1" style="stop-color:#0686FF"/>
					</linearGradient>
					<path style="fill:url(#SVGID_00000028327279397432317200000008823436702497300362_);" d="M115.996-21.362
						c-8.202,4.344-16.677,8.399-24.803,13.12l-1.762,1.007l-1.72,1.077l-3.44,2.156c-1.165,0.691-2.255,1.5-3.362,2.281L77.59,0.63
						c-0.562,0.38-1.102,0.791-1.624,1.229l-1.587,1.282l-3.176,2.565c-2.038,1.798-3.967,3.652-5.984,5.51
						c-7.672,7.707-14.071,16.637-19.456,25.971c-5.432,9.352-9.952,19.1-15.072,28.427c-5.076,9.341-10.833,18.194-17.61,26.128
						c-6.761,7.935-14.38,14.878-22.66,20.765c-2.387,1.709-4.822,3.31-7.282,4.843v0.861c2.61-1.61,5.196-3.295,7.734-5.104
						c8.267-5.851,16.034-12.888,22.825-20.838c6.81-7.938,12.656-16.882,17.759-26.238c5.148-9.336,9.696-19.088,15.113-28.372
						C51.967,28.35,58.3,19.559,65.924,11.923C73.579,4.283,82.356-2.03,91.658-7.426c8.589-5.011,17.518-9.258,26.197-13.935
						H115.996z"/>
				</g>
				<g>
					
						<linearGradient id="SVGID_00000066491442833676978990000007893452554340393117_" gradientUnits="userSpaceOnUse" x1="-16.8608" y1="19.3155" x2="36.6812" y2="19.3155">
						<stop  offset="0.0108" style="stop-color:#E6EBF0"/>
						<stop  offset="1" style="stop-color:#0686FF"/>
					</linearGradient>
					<path style="fill:url(#SVGID_00000066491442833676978990000007893452554340393117_);" d="M35.246-21.362
						c-0.442,0.426-0.894,0.844-1.329,1.277c-7.593,7.633-14.116,16.351-19.643,25.48C8.677,14.559,4.095,24.175-0.828,33.511
						c-4.669,8.932-9.825,17.473-16.033,25.182v1.299l2.172-2.75c0.802-1.021,1.631-2.019,2.352-3.115l2.243-3.225l1.124-1.616
						c0.362-0.547,0.694-1.112,1.043-1.667c2.824-4.423,5.397-9.032,7.871-13.701c4.942-9.33,9.554-18.951,15.121-28.024
						c5.553-9.128,11.997-17.691,19.557-25.271c0.676-0.674,1.368-1.328,2.059-1.983H35.246z"/>
					
						<linearGradient id="SVGID_00000091697987079142374490000013649166036052138381_" gradientUnits="userSpaceOnUse" x1="-16.8608" y1="24.4803" x2="46.9463" y2="24.4803">
						<stop  offset="0.0108" style="stop-color:#E6EBF0"/>
						<stop  offset="1" style="stop-color:#0686FF"/>
					</linearGradient>
					<path style="fill:url(#SVGID_00000091697987079142374490000013649166036052138381_);" d="M45.386-21.362l-0.721,0.582
						l-5.92,5.499l-5.534,5.96l-5.094,6.308l-4.689,6.616c-1.429,2.28-2.856,4.559-4.283,6.836
						C13.627,19.698,9.13,29.398,4.119,38.745c-4.954,9.368-10.546,18.242-17.262,26.213c-1.243,1.384-2.48,2.761-3.718,4.138v1.227
						c1.489-1.579,2.948-3.193,4.354-4.861c1.611-2.039,3.227-4.084,4.848-6.135c1.499-2.157,3.002-4.319,4.509-6.487
						c1.386-2.241,2.775-4.487,4.168-6.738c1.289-2.313,2.58-4.629,3.873-6.951c5.028-9.336,9.559-19.053,15.056-28.232
						c1.428-2.268,2.856-4.538,4.286-6.809l4.654-6.539l5.066-6.248l5.471-5.873l5.912-5.507l1.609-1.304H45.386z"/>
					
						<linearGradient id="SVGID_00000073684342911659776940000010043404346891682203_" gradientUnits="userSpaceOnUse" x1="-16.8608" y1="29.2967" x2="58.0303" y2="29.2967">
						<stop  offset="0.0108" style="stop-color:#E6EBF0"/>
						<stop  offset="1" style="stop-color:#0686FF"/>
					</linearGradient>
					<path style="fill:url(#SVGID_00000073684342911659776940000010043404346891682203_);" d="M56.374-21.362l-0.455,0.322
						c-0.562,0.38-1.101,0.792-1.623,1.23l-1.587,1.282l-3.176,2.565c-2.037,1.798-3.967,3.652-5.984,5.51
						C35.875-2.745,29.477,6.185,24.092,15.519c-5.433,9.352-9.951,19.1-15.071,28.427C3.943,53.287-1.813,62.14-8.588,70.074
						c-2.631,3.087-5.395,6.018-8.273,8.8v1.081c3.104-2.953,6.084-6.07,8.889-9.354c6.809-7.938,12.654-16.883,17.759-26.238
						c5.148-9.336,9.693-19.09,15.111-28.373c5.397-9.31,11.73-18.102,19.355-25.738c4.274-4.266,8.907-8.105,13.777-11.615H56.374z
						"/>
				</g>
				<g>
					
						<linearGradient id="SVGID_00000080199330869914711790000018296961075354333337_" gradientUnits="userSpaceOnUse" x1="-16.8608" y1="12.1016" x2="-11.9316" y2="12.1016">
						<stop  offset="0.0108" style="stop-color:#E6EBF0"/>
						<stop  offset="1" style="stop-color:#0686FF"/>
					</linearGradient>
					<path style="fill:url(#SVGID_00000080199330869914711790000018296961075354333337_);" d="M-14.094,11.212
						c-0.757,1.362-1.693,3.046-2.767,4.979v0.806c1.154-2.235,2.149-4.165,2.94-5.697c1.266-2.606,1.989-4.094,1.989-4.094
						S-12.718,8.663-14.094,11.212z"/>
					
						<linearGradient id="SVGID_00000030466801684063835230000004898012080129060012_" gradientUnits="userSpaceOnUse" x1="-16.8608" y1="20.7212" x2="-5.8642" y2="20.7212">
						<stop  offset="0.0108" style="stop-color:#E6EBF0"/>
						<stop  offset="1" style="stop-color:#0686FF"/>
					</linearGradient>
					<path style="fill:url(#SVGID_00000030466801684063835230000004898012080129060012_);" d="M-8.113,14.467
						c-1.465,2.631-3.558,6.391-6.068,10.902c-0.851,1.4-1.747,2.899-2.679,4.441v1.329c1.124-1.93,2.165-3.765,3.169-5.493
						c1.233-2.278,2.294-4.389,3.261-6.254c0.961-1.866,1.798-3.493,2.488-4.832c1.322-2.709,2.078-4.257,2.078-4.257
						S-6.682,11.817-8.113,14.467z"/>
				</g>
			</g>
		</g>
	</g>
</g>
</svg>
