<?xml version="1.0" encoding="utf-8"?>
<!-- Generator: Adobe Adobe Illustrator 28.5.0, SVG Export Plug-In . SVG Version: 6.00 Build 0)  -->
<svg version="1.1" xmlns="http://www.w3.org/2000/svg" xmlns:xlink="http://www.w3.org/1999/xlink" x="0px" y="0px"
	 viewBox="0 0 241.87 244" style="enable-background:new 0 0 241.87 244;" xml:space="preserve">
<style type="text/css">
	.st0{fill:#F0F0F0;}
	.st1{fill:#253668;}
</style>
<g id="Layer_5">
	<rect x="-628.78" y="-624.65" class="st0" width="1200" height="1200"/>
</g>
<g id="Layer_6">
	<g>
		<path class="st1" d="M328.27,481.26c4.47,8.52,31.34,25.13,48.22,28.24c11.12,2.05,37.04-4.48,39.51-10.66
			c-8.46,1.76-47.99-8.62-62.78-32.24c-13.12-24.6-2.41-64.04,3.33-70.5c-6.59-0.94-25.16,18.28-28.93,28.94
			c-5.72,16.18-4.71,47.76,0.45,55.88"/>
		<path class="st1" d="M420.06,321.2c-9.62-0.39-37.44,14.58-48.57,27.64c-7.33,8.61-14.64,34.32-10.52,39.55
			c2.71-8.2,31.46-37.25,59.32-38.25c27.86,0.94,56.66,29.93,59.39,38.13c4.11-5.23-3.25-30.93-10.6-39.53
			c-11.15-13.05-39-27.96-48.62-27.55"/>
		<path class="st1" d="M512.78,480.73c5.15-8.13,6.09-39.71,0.34-55.88c-3.79-10.66-22.4-29.84-28.99-28.88
			c5.75,6.45,16.53,45.87,3.47,70.49c-14.74,23.66-54.26,34.11-62.72,32.37c2.48,6.18,28.41,12.65,39.53,10.59
			c16.87-3.14,43.71-19.8,48.17-28.33"/>
		<path class="st1" d="M420.44,501.4c-4.23,6.7-27.8,15.52-40.16,14.81c14.84,8.33,30.8,14.22,40.19,13.56
			c9.39,0.65,25.34-5.28,40.17-13.64C448.27,516.86,424.68,508.09,420.44,501.4z"/>
		<path class="st1" d="M356.54,390.96c-3.69-7.01,0.46-31.84,7.26-42.19c-14.64,8.69-27.72,19.56-31.84,28.03
			c-5.26,7.81-8.1,24.58-8.27,41.6C329.23,407.33,348.63,391.29,356.54,390.96z"/>
		<path class="st1" d="M484.13,390.84c7.92,0.31,27.34,16.31,32.91,27.38c-0.21-17.02-3.08-33.78-8.35-41.59
			c-4.14-8.46-17.24-19.3-31.89-27.97C483.61,359,487.8,383.82,484.13,390.84z"/>
		<path class="st1" d="M420.44,496.28c-0.03,0-0.05,0-0.08,0c-6.88,0.32-22.31-2.16-29.97-7.92c-8.08-6.09-14.66-23.29-11.65-34.65
			c6.6,13.11,22.49,22.17,41.67,23.34c19.18-1.21,35.05-10.29,41.62-23.42c3.03,11.35-3.51,28.57-11.58,34.67
			c-7.64,5.78-23.07,8.29-29.95,7.98C420.49,496.28,420.46,496.28,420.44,496.28z"/>
		<path class="st1" d="M360.97,393.52c0.01-0.02,0.03-0.04,0.04-0.06c3.16-6.12,13.03-18.24,21.85-21.99
			c9.31-3.96,27.5-1.05,35.83,7.24c-14.66-0.84-30.44,8.39-41.04,24.42c-8.54,17.21-8.61,35.5-0.53,47.76
			c-11.35-3.05-22.98-17.32-24.23-27.36c-1.18-9.51,4.36-24.12,8.06-29.93C360.95,393.56,360.96,393.54,360.97,393.52z"/>
		<path class="st1" d="M479.7,393.4c0.01,0.02,0.02,0.05,0.04,0.07c3.72,5.8,9.28,20.4,8.12,29.91
			c-1.23,10.04-12.84,24.34-24.18,27.41c8.05-12.27,7.95-30.56-0.63-47.75c-10.63-16-26.44-25.2-41.09-24.34
			c8.32-8.3,26.49-11.24,35.81-7.31c8.83,3.73,18.71,15.83,21.89,21.95C479.67,393.36,479.69,393.38,479.7,393.4z"/>
		<path class="st1" d="M375.96,453.43c-2.76,6.55-1.12,22.82,5.09,30.04c-10.17-2.01-20.2-11.41-24.51-18.8
			c-4.26-7.42-7.41-20.8-4.09-30.62C355.62,443.03,368.9,452.56,375.96,453.43z"/>
		<path class="st1" d="M420.32,376.42c-4.29-5.67-19.2-12.38-28.56-10.61c6.83-7.8,19.98-11.79,28.54-11.82
			c8.56,0.02,21.72,3.98,28.56,11.77C439.5,364.01,424.6,370.74,420.32,376.42z"/>
		<path class="st1" d="M464.83,453.35c7.05-0.88,20.32-10.44,23.47-19.43c3.34,9.81,0.22,23.2-4.03,30.63
			c-4.3,7.41-14.31,16.82-24.47,18.85C466,476.16,467.61,459.89,464.83,453.35z"/>
		<path class="st1" d="M381.59,450.31c10.29,20.14,31.13,12.75,37.07,2.3c-8.88,2.75-19.68,0.81-25.66-9.04
			c-5.56-10.1-1.86-20.43,4.95-26.75c-12.01-0.06-28.81,14.32-16.48,33.28"/>
		<path class="st1" d="M420.2,382.86c-22.59-1.16-26.6,20.59-20.52,30.95c2.05-9.07,9.14-17.45,20.66-17.7
			c11.52,0.23,18.62,8.6,20.69,17.66c6.06-10.37,2-32.12-20.58-30.91"/>
		<path class="st1" d="M459.32,450.03c12.3-18.98-4.53-33.34-16.54-33.25c6.83,6.31,10.54,16.64,5,26.74
			c-5.96,9.86-16.76,11.83-25.64,9.09c5.95,10.44,26.81,17.79,37.06-2.37"/>
		<path class="st1" d="M420.4,454.26c-4.8,6.64-11.56,12.66-17.81,13.3c5.65,3.12,11.74,4.68,17.83,4.67
			c6.09-0.01,12.18-1.57,17.82-4.71C431.98,466.9,425.21,460.88,420.4,454.26z"/>
		<path class="st1" d="M397.39,414.49c-3.35-7.47-5.19-16.34-2.62-22.07c-5.53,3.33-9.92,7.83-12.96,13.1
			c-3.04,5.28-4.72,11.33-4.83,17.78C380.65,418.2,389.24,415.35,397.39,414.49z"/>
		<path class="st1" d="M443.33,414.45c8.15,0.84,16.74,3.68,20.43,8.77c-0.12-6.45-1.82-12.5-4.87-17.77
			c-3.05-5.27-7.45-9.76-12.98-13.08C448.48,398.1,446.66,406.97,443.33,414.45z"/>
		<path class="st1" d="M436.94,418.07c1.51-11.42-10.46-18.23-16.59-11.49c-6.14-6.73-18.1,0.11-16.57,11.53
			c-10.94,4.91-10.85,18.68-1.66,20.11c-3.05,9.19,8.85,16.13,18.26,8.58c9.43,7.53,21.31,0.56,18.25-8.62
			C447.83,436.74,447.89,422.96,436.94,418.07z M427.02,431.6c0.29,4.39-3.52,5.53-6.64,3.15c-3.12,2.39-6.93,1.25-6.65-3.14
			c-3.84-1.76-2.92-5.63,0.59-7.33c-0.4-3.71,2.48-6.45,6.04-4.19c3.55-2.27,6.44,0.47,6.05,4.18
			C429.93,425.96,430.86,429.83,427.02,431.6z"/>
	</g>
	<g>
		<g>
			<path class="st1" d="M-477.93,244c5.99-6.45,20.82-29.21,15.7-51.07c-3.12-13.3-11.4-15.91-15.7-15.91
				c-4.3,0-12.58,2.61-15.7,15.91C-498.76,214.79-483.92,237.55-477.93,244z M-543.38,224.78c8.52-2.19,33.31-13.31,40.82-34.48
				c4.57-12.88-0.99-19.55-4.6-21.87c-3.61-2.32-11.99-4.6-21.81,4.9C-545.11,188.96-544.93,216.12-543.38,224.78z M-588.04,173.24
				c8.35,2.77,35.22,6.81,52.98-6.94c10.8-8.36,9.74-16.98,7.95-20.89c-1.78-3.91-7.6-10.36-21-7.67
				C-570.13,142.16-584.67,165.11-588.04,173.24z M-597.75,105.72c5.53,6.84,25.95,24.77,48.32,22.81
				c13.61-1.19,17.37-9.02,17.98-13.27c0.61-4.25-0.8-12.82-13.52-17.8C-565.88,89.27-590.52,100.72-597.75,105.72z M-569.42,43.68
				c0.95,8.75,8.44,34.86,28.32,45.31c12.09,6.35,19.49,1.8,22.31-1.44c2.81-3.25,6.26-11.22-1.75-22.28
				C-533.71,47.07-560.62,43.38-569.42,43.68z M-512.04,6.81c-3.93,7.87-11.75,33.89-0.67,53.43c6.74,11.88,15.42,12.06,19.55,10.85
				c4.12-1.21,11.33-6.05,10.58-19.69C-483.83,28.96-504.48,11.31-512.04,6.81z M-443.83,6.81c-7.56,4.5-28.21,22.16-29.45,44.58
				c-0.76,13.64,6.46,18.48,10.58,19.69c4.12,1.21,12.81,1.04,19.55-10.85C-432.08,40.7-439.9,14.68-443.83,6.81z M-386.45,43.68
				c-8.79-0.3-35.71,3.39-48.88,21.58c-8.01,11.07-4.56,19.04-1.75,22.28c2.81,3.25,10.21,7.8,22.31,1.44
				C-394.89,78.55-387.4,52.43-386.45,43.68z M-358.12,105.72c-7.23-5.01-31.87-16.46-52.79-8.27
				c-12.72,4.98-14.13,13.55-13.52,17.8c0.61,4.25,4.38,12.08,17.98,13.27C-384.06,130.49-363.65,112.57-358.12,105.72z
				 M-367.83,173.24c-3.38-8.12-17.92-31.08-39.94-35.5c-13.39-2.69-19.21,3.76-21,7.67c-1.78,3.91-2.85,12.53,7.95,20.89
				C-403.04,180.05-376.18,176-367.83,173.24z M-412.49,224.78c1.55-8.66,1.73-35.83-14.41-51.45c-9.81-9.5-18.2-7.22-21.81-4.9
				c-3.61,2.32-9.17,9-4.6,21.87C-445.8,211.47-421.01,222.6-412.49,224.78z M-477.93,183c7.87,0,13.59,13.53,0,38.84
				C-491.53,196.53-485.8,183-477.93,183z M-510.4,173.47c6.62,4.25,4.12,18.73-21,32.67C-529.15,177.5-517.02,169.21-510.4,173.47z
				 M-532.56,147.9c3.27,7.16-6.66,17.99-35.33,16.13C-550.52,141.15-535.83,140.74-532.56,147.9z M-537.37,114.41
				c-1.12,7.79-15.33,11.53-38.44-5.53C-548.83,99.02-536.25,106.62-537.37,114.41z M-523.32,83.63
				c-5.15,5.95-19.13,1.41-29.35-25.43C-524.64,64.49-518.16,77.68-523.32,83.63z M-494.85,65.33c-7.55,2.22-16.86-9.15-10.94-37.26
				C-485.62,48.52-487.3,63.12-494.85,65.33z M-461.02,65.33c-7.55-2.22-9.23-16.81,10.94-37.26
				C-444.16,56.18-453.47,67.55-461.02,65.33z M-432.55,83.63c-5.15-5.95,1.32-19.14,29.35-25.43
				C-413.42,85.04-427.4,89.57-432.55,83.63z M-418.5,114.41c-1.12-7.79,11.46-15.38,38.44-5.53
				C-403.17,125.94-417.38,122.2-418.5,114.41z M-423.31,147.9c3.27-7.16,17.96-6.74,35.33,16.13
				C-416.65,165.89-426.58,155.06-423.31,147.9z M-445.47,173.47c6.62-4.26,18.75,4.03,21,32.67
				C-449.59,192.2-452.09,177.72-445.47,173.47z"/>
		</g>
		<g>
			<path class="st1" d="M-477.93,244c5.99-6.45,20.82-29.21,15.7-51.07c-3.12-13.3-11.4-15.91-15.7-15.91
				c-4.3,0-12.58,2.61-15.7,15.91C-498.76,214.79-483.92,237.55-477.93,244z M-543.38,224.78c8.52-2.19,33.31-13.31,40.82-34.48
				c4.57-12.88-0.99-19.55-4.6-21.87c-3.61-2.32-11.99-4.6-21.81,4.9C-545.11,188.96-544.93,216.12-543.38,224.78z M-588.04,173.24
				c8.35,2.77,35.22,6.81,52.98-6.94c10.8-8.36,9.74-16.98,7.95-20.89c-1.78-3.91-7.6-10.36-21-7.67
				C-570.13,142.16-584.67,165.11-588.04,173.24z M-597.75,105.72c5.53,6.84,25.95,24.77,48.32,22.81
				c13.61-1.19,17.37-9.02,17.98-13.27c0.61-4.25-0.8-12.82-13.52-17.8C-565.88,89.27-590.52,100.72-597.75,105.72z M-569.42,43.68
				c0.95,8.75,8.44,34.86,28.32,45.31c12.09,6.35,19.49,1.8,22.31-1.44c2.81-3.25,6.26-11.22-1.75-22.28
				C-533.71,47.07-560.62,43.38-569.42,43.68z M-512.04,6.81c-3.93,7.87-11.75,33.89-0.67,53.43c6.74,11.88,15.42,12.06,19.55,10.85
				c4.12-1.21,11.33-6.05,10.58-19.69C-483.83,28.96-504.48,11.31-512.04,6.81z M-443.83,6.81c-7.56,4.5-28.21,22.16-29.45,44.58
				c-0.76,13.64,6.46,18.48,10.58,19.69c4.12,1.21,12.81,1.04,19.55-10.85C-432.08,40.7-439.9,14.68-443.83,6.81z M-386.45,43.68
				c-8.79-0.3-35.71,3.39-48.88,21.58c-8.01,11.07-4.56,19.04-1.75,22.28c2.81,3.25,10.21,7.8,22.31,1.44
				C-394.89,78.55-387.4,52.43-386.45,43.68z M-358.12,105.72c-7.23-5.01-31.87-16.46-52.79-8.27
				c-12.72,4.98-14.13,13.55-13.52,17.8c0.61,4.25,4.38,12.08,17.98,13.27C-384.06,130.49-363.65,112.57-358.12,105.72z
				 M-367.83,173.24c-3.38-8.12-17.92-31.08-39.94-35.5c-13.39-2.69-19.21,3.76-21,7.67c-1.78,3.91-2.85,12.53,7.95,20.89
				C-403.04,180.05-376.18,176-367.83,173.24z M-412.49,224.78c1.55-8.66,1.73-35.83-14.41-51.45c-9.81-9.5-18.2-7.22-21.81-4.9
				c-3.61,2.32-9.17,9-4.6,21.87C-445.8,211.47-421.01,222.6-412.49,224.78z M-477.93,183c7.87,0,13.59,13.53,0,38.84
				C-491.53,196.53-485.8,183-477.93,183z M-510.4,173.47c6.62,4.25,4.12,18.73-21,32.67C-529.15,177.5-517.02,169.21-510.4,173.47z
				 M-532.56,147.9c3.27,7.16-6.66,17.99-35.33,16.13C-550.52,141.15-535.83,140.74-532.56,147.9z M-537.37,114.41
				c-1.12,7.79-15.33,11.53-38.44-5.53C-548.83,99.02-536.25,106.62-537.37,114.41z M-523.32,83.63
				c-5.15,5.95-19.13,1.41-29.35-25.43C-524.64,64.49-518.16,77.68-523.32,83.63z M-494.85,65.33c-7.55,2.22-16.86-9.15-10.94-37.26
				C-485.62,48.52-487.3,63.12-494.85,65.33z M-461.02,65.33c-7.55-2.22-9.23-16.81,10.94-37.26
				C-444.16,56.18-453.47,67.55-461.02,65.33z M-432.55,83.63c-5.15-5.95,1.32-19.14,29.35-25.43
				C-413.42,85.04-427.4,89.57-432.55,83.63z M-418.5,114.41c-1.12-7.79,11.46-15.38,38.44-5.53
				C-403.17,125.94-417.38,122.2-418.5,114.41z M-423.31,147.9c3.27-7.16,17.96-6.74,35.33,16.13
				C-416.65,165.89-426.58,155.06-423.31,147.9z M-445.47,173.47c6.62-4.26,18.75,4.03,21,32.67
				C-449.59,192.2-452.09,177.72-445.47,173.47z"/>
		</g>
		<g>
			<path class="st1" d="M-477.93,244c5.99-6.45,20.82-29.21,15.7-51.07c-3.12-13.3-11.4-15.91-15.7-15.91
				c-4.3,0-12.58,2.61-15.7,15.91C-498.76,214.79-483.92,237.55-477.93,244z M-543.38,224.78c8.52-2.19,33.31-13.31,40.82-34.48
				c4.57-12.88-0.99-19.55-4.6-21.87c-3.61-2.32-11.99-4.6-21.81,4.9C-545.11,188.96-544.93,216.12-543.38,224.78z M-588.04,173.24
				c8.35,2.77,35.22,6.81,52.98-6.94c10.8-8.36,9.74-16.98,7.95-20.89c-1.78-3.91-7.6-10.36-21-7.67
				C-570.13,142.16-584.67,165.11-588.04,173.24z M-597.75,105.72c5.53,6.84,25.95,24.77,48.32,22.81
				c13.61-1.19,17.37-9.02,17.98-13.27c0.61-4.25-0.8-12.82-13.52-17.8C-565.88,89.27-590.52,100.72-597.75,105.72z M-569.42,43.68
				c0.95,8.75,8.44,34.86,28.32,45.31c12.09,6.35,19.49,1.8,22.31-1.44c2.81-3.25,6.26-11.22-1.75-22.28
				C-533.71,47.07-560.62,43.38-569.42,43.68z M-512.04,6.81c-3.93,7.87-11.75,33.89-0.67,53.43c6.74,11.88,15.42,12.06,19.55,10.85
				c4.12-1.21,11.33-6.05,10.58-19.69C-483.83,28.96-504.48,11.31-512.04,6.81z M-443.83,6.81c-7.56,4.5-28.21,22.16-29.45,44.58
				c-0.76,13.64,6.46,18.48,10.58,19.69c4.12,1.21,12.81,1.04,19.55-10.85C-432.08,40.7-439.9,14.68-443.83,6.81z M-386.45,43.68
				c-8.79-0.3-35.71,3.39-48.88,21.58c-8.01,11.07-4.56,19.04-1.75,22.28c2.81,3.25,10.21,7.8,22.31,1.44
				C-394.89,78.55-387.4,52.43-386.45,43.68z M-358.12,105.72c-7.23-5.01-31.87-16.46-52.79-8.27
				c-12.72,4.98-14.13,13.55-13.52,17.8c0.61,4.25,4.38,12.08,17.98,13.27C-384.06,130.49-363.65,112.57-358.12,105.72z
				 M-367.83,173.24c-3.38-8.12-17.92-31.08-39.94-35.5c-13.39-2.69-19.21,3.76-21,7.67c-1.78,3.91-2.85,12.53,7.95,20.89
				C-403.04,180.05-376.18,176-367.83,173.24z M-412.49,224.78c1.55-8.66,1.73-35.83-14.41-51.45c-9.81-9.5-18.2-7.22-21.81-4.9
				c-3.61,2.32-9.17,9-4.6,21.87C-445.8,211.47-421.01,222.6-412.49,224.78z M-477.93,183c7.87,0,13.59,13.53,0,38.84
				C-491.53,196.53-485.8,183-477.93,183z M-510.4,173.47c6.62,4.25,4.12,18.73-21,32.67C-529.15,177.5-517.02,169.21-510.4,173.47z
				 M-532.56,147.9c3.27,7.16-6.66,17.99-35.33,16.13C-550.52,141.15-535.83,140.74-532.56,147.9z M-537.37,114.41
				c-1.12,7.79-15.33,11.53-38.44-5.53C-548.83,99.02-536.25,106.62-537.37,114.41z M-523.32,83.63
				c-5.15,5.95-19.13,1.41-29.35-25.43C-524.64,64.49-518.16,77.68-523.32,83.63z M-494.85,65.33c-7.55,2.22-16.86-9.15-10.94-37.26
				C-485.62,48.52-487.3,63.12-494.85,65.33z M-461.02,65.33c-7.55-2.22-9.23-16.81,10.94-37.26
				C-444.16,56.18-453.47,67.55-461.02,65.33z M-432.55,83.63c-5.15-5.95,1.32-19.14,29.35-25.43
				C-413.42,85.04-427.4,89.57-432.55,83.63z M-418.5,114.41c-1.12-7.79,11.46-15.38,38.44-5.53
				C-403.17,125.94-417.38,122.2-418.5,114.41z M-423.31,147.9c3.27-7.16,17.96-6.74,35.33,16.13
				C-416.65,165.89-426.58,155.06-423.31,147.9z M-445.47,173.47c6.62-4.26,18.75,4.03,21,32.67
				C-449.59,192.2-452.09,177.72-445.47,173.47z"/>
		</g>
		<g>
			<path class="st1" d="M-477.93,173.08c27.59,0,49.95-22.36,49.95-49.95c0-27.59-22.36-49.95-49.95-49.95
				c-27.59,0-49.95,22.36-49.95,49.95C-527.89,150.71-505.52,173.08-477.93,173.08z M-477.93,80.18c23.72,0,42.94,19.23,42.94,42.94
				s-19.23,42.94-42.94,42.94c-23.72,0-42.94-19.23-42.94-42.94S-501.65,80.18-477.93,80.18z"/>
			<path class="st1" d="M-481.23,131.12h7.31c0.61,0,1.17-0.32,1.47-0.85l3.66-6.33c0.3-0.53,0.3-1.17,0-1.7l-3.66-6.33
				c-0.3-0.53-0.86-0.85-1.47-0.85h-7.31c-0.61,0-1.17,0.32-1.47,0.85l-3.66,6.33c-0.3,0.53-0.3,1.17,0,1.7l3.66,6.33
				C-482.4,130.8-481.84,131.12-481.23,131.12z"/>
			<path class="st1" d="M-485.9,142.97l3.36,5.82c0.33,0.57,0.94,0.92,1.6,0.92h6.72c0.66,0,1.27-0.35,1.6-0.92l3.36-5.82
				c0.33-0.57,0.33-1.27,0-1.85l-3.36-5.82c-0.33-0.57-0.94-0.92-1.6-0.92h-6.72c-0.66,0-1.27,0.35-1.6,0.92l-3.36,5.82
				C-486.22,141.69-486.22,142.4-485.9,142.97z"/>
			<path class="st1" d="M-473.31,153.32c-0.4-0.69-1.13-1.11-1.92-1.11h-4.7c-0.79,0-1.52,0.42-1.92,1.11l-2.35,4.07
				c-0.4,0.69-0.4,1.53,0,2.21l1.92,3.33c0.66,1.14,1.88,1.85,3.2,1.85h2.9c1.37,0,2.64-0.73,3.33-1.92l1.88-3.25
				c0.4-0.69,0.4-1.53,0-2.21L-473.31,153.32z"/>
			<path class="st1" d="M-472.66,97.68c-0.31-0.53-0.88-0.86-1.49-0.86h-6.86c-0.62,0-1.18,0.33-1.49,0.86l-3.43,5.94
				c-0.31,0.53-0.31,1.19,0,1.72l3.43,5.94c0.31,0.53,0.88,0.86,1.49,0.86h6.86c0.62,0,1.18-0.33,1.49-0.86l3.43-5.94
				c0.31-0.53,0.31-1.19,0-1.72L-472.66,97.68z"/>
			<path class="st1" d="M-515.35,129.47c0.67,1.16,1.91,1.88,3.25,1.88h6.06c0.79,0,1.52-0.42,1.92-1.11l3.47-6.02
				c0.4-0.69,0.4-1.53,0-2.21l-3.47-6.02c-0.4-0.69-1.13-1.11-1.92-1.11h-6.06c-1.34,0-2.58,0.72-3.25,1.88
				C-517.62,120.7-517.62,125.54-515.35,129.47z"/>
			<path class="st1" d="M-443.06,115.07h-5.88c-0.79,0-1.53,0.42-1.92,1.11l-3.37,5.83c-0.4,0.69-0.4,1.53,0,2.22l3.37,5.83
				c0.4,0.69,1.13,1.11,1.92,1.11h5.88c1.32,0,2.54-0.71,3.2-1.85c2.21-3.84,2.21-8.56,0-12.4
				C-440.52,115.77-441.74,115.07-443.06,115.07z"/>
			<path class="st1" d="M-488.49,143.82c-0.4-0.69-1.13-1.11-1.92-1.11h-6.95c-0.79,0-1.52,0.42-1.92,1.11l-3.05,5.27
				c-0.66,1.14-0.66,2.55,0,3.7c2.28,3.95,6.49,6.38,11.05,6.38c1.32,0,2.54-0.7,3.2-1.85l3.05-5.27c0.4-0.69,0.4-1.53,0-2.21
				L-488.49,143.82z"/>
			<path class="st1" d="M-470.28,96.02l3.37,5.83c0.4,0.69,1.13,1.11,1.92,1.11h6.73c0.79,0,1.52-0.42,1.92-1.11l2.92-5.06
				c0.67-1.16,0.67-2.59,0-3.76l-1.41-2.44c-1.33-2.31-3.8-3.73-6.46-3.73h-2.82c-1.34,0-2.58,0.72-3.25,1.88l-2.92,5.06
				C-470.68,94.49-470.68,95.34-470.28,96.02z"/>
			<path class="st1" d="M-456.17,144.12c-0.4-0.69-1.13-1.11-1.92-1.11h-6.95c-0.79,0-1.52,0.42-1.92,1.11l-3.48,6.02
				c-0.4,0.69-0.4,1.53,0,2.21l3.05,5.28c0.66,1.14,1.88,1.85,3.2,1.85c4.56,0,8.78-2.43,11.06-6.39c0.66-1.14,0.66-2.55,0-3.7
				L-456.17,144.12z"/>
			<path class="st1" d="M-499.05,102.17c0.4,0.69,1.13,1.11,1.92,1.11h6.73c0.79,0,1.52-0.42,1.92-1.11l3.37-5.83
				c0.4-0.69,0.4-1.53,0-2.22l-2.92-5.06c-0.67-1.16-1.91-1.88-3.25-1.88c-4.41,0-8.48,2.35-10.69,6.17c-0.67,1.16-0.67,2.59,0,3.76
				L-499.05,102.17z"/>
			<path class="st1" d="M-482.03,93.52c0.4,0.69,1.13,1.11,1.92,1.11h5.06c0.79,0,1.53-0.42,1.92-1.11l2.53-4.38
				c0.4-0.69,0.4-1.53,0-2.22l-2.1-3.64c-0.66-1.14-1.88-1.85-3.2-1.85h-3.35c-1.32,0-2.54,0.7-3.2,1.85l-2.1,3.64
				c-0.4,0.69-0.4,1.53,0,2.22L-482.03,93.52z"/>
			<path class="st1" d="M-464.59,140.23h6.86c0.62,0,1.18-0.33,1.49-0.86l3.43-5.94c0.31-0.53,0.31-1.19,0-1.72l-3.43-5.94
				c-0.31-0.53-0.88-0.86-1.49-0.86h-6.86c-0.62,0-1.18,0.33-1.49,0.86l-3.43,5.94c-0.31,0.53-0.31,1.19,0,1.72l3.43,5.94
				C-465.78,139.9-465.21,140.23-464.59,140.23z"/>
			<path class="st1" d="M-442.66,135.62c-0.4-0.69-1.13-1.11-1.92-1.11h-4.69c-0.79,0-1.53,0.42-1.92,1.11l-2.35,4.07
				c-0.4,0.69-0.4,1.53,0,2.22l2.35,4.07c0.4,0.69,1.13,1.11,1.92,1.11h3.84c1.32,0,2.54-0.7,3.2-1.85l1.49-2.59
				c0.66-1.14,0.66-2.55,0-3.7L-442.66,135.62z"/>
			<path class="st1" d="M-490.26,106.13h-6.86c-0.62,0-1.18,0.33-1.49,0.86l-3.43,5.94c-0.31,0.53-0.31,1.19,0,1.72l3.43,5.94
				c0.31,0.53,0.88,0.86,1.49,0.86h6.86c0.62,0,1.18-0.33,1.49-0.86l3.43-5.94c0.31-0.53,0.31-1.19,0-1.72l-3.43-5.94
				C-489.08,106.45-489.65,106.13-490.26,106.13z"/>
			<path class="st1" d="M-512.38,111.05c0.4,0.69,1.13,1.11,1.92,1.11h5.06c0.79,0,1.52-0.42,1.92-1.11l2.53-4.38
				c0.4-0.69,0.4-1.53,0-2.22l-2.53-4.38c-0.4-0.69-1.13-1.11-1.92-1.11h-4.2c-1.32,0-2.54,0.7-3.2,1.85l-1.67,2.9
				c-0.66,1.14-0.66,2.55,0,3.7L-512.38,111.05z"/>
			<path class="st1" d="M-452.81,112.75l-3.43-5.94c-0.31-0.53-0.88-0.86-1.49-0.86h-6.86c-0.62,0-1.18,0.33-1.49,0.86l-3.43,5.94
				c-0.31,0.53-0.31,1.19,0,1.72l3.43,5.94c0.31,0.53,0.88,0.86,1.49,0.86h6.86c0.62,0,1.18-0.33,1.49-0.86l3.43-5.94
				C-452.5,113.94-452.5,113.29-452.81,112.75z"/>
			<path class="st1" d="M-453.54,106.5l2.35,4.07c0.4,0.69,1.13,1.11,1.92,1.11h4.69c0.79,0,1.52-0.42,1.92-1.11l1.92-3.33
				c0.66-1.14,0.66-2.55,0-3.7l-1.45-2.52c-0.68-1.19-1.95-1.92-3.32-1.92h-3.76c-0.79,0-1.53,0.42-1.92,1.11l-2.35,4.07
				C-453.94,104.96-453.94,105.81-453.54,106.5z"/>
			<path class="st1" d="M-502.04,133.25l3.43,5.94c0.31,0.53,0.88,0.86,1.49,0.86h6.86c0.62,0,1.18-0.33,1.49-0.86l3.43-5.94
				c0.31-0.53,0.31-1.19,0-1.72l-3.43-5.94c-0.31-0.53-0.88-0.86-1.49-0.86h-6.86c-0.62,0-1.18,0.33-1.49,0.86l-3.43,5.94
				C-502.35,132.07-502.35,132.72-502.04,133.25z"/>
			<path class="st1" d="M-500.95,139.51l-2.53-4.38c-0.4-0.69-1.13-1.11-1.92-1.11h-5.06c-0.79,0-1.52,0.42-1.92,1.11l-2.1,3.64
				c-0.66,1.14-0.66,2.55,0,3.7l1.67,2.9c0.66,1.14,1.88,1.85,3.2,1.85h4.21c0.79,0,1.52-0.42,1.92-1.11l2.53-4.38
				C-500.55,141.04-500.55,140.2-500.95,139.51z"/>
		</g>
	</g>
	<g>
		<path class="st1" d="M-454.09,419.1c36.17,4.61,71.14,4.93,90.46-50.85c-10.05,8.37-30.17,11.85-51.22,17.11
			c15.08-15.6,28.16-31.29,40.43-35.81c-57.96-11.15-75.17,19.29-89.26,52.92c19.17-52.38,3.51-73.12-14.25-99.02
			c-17.76,25.9-33.42,46.64-14.25,99.02c-14.1-33.63-31.3-64.07-89.27-52.92c12.27,4.52,25.35,20.2,40.43,35.81
			c-21.05-5.26-41.18-8.74-51.22-17.11c19.32,55.77,54.29,55.45,90.46,50.85c-54.95,9.59-65.08,33.52-78.63,61.85
			c31.31,2.43,57.1,5.63,92.88-37.17c-22.08,29.03-39.84,59.15-1.2,103.77c-2.22-12.89,4.82-32.06,10.8-52.92
			c5.97,20.86,13.02,40.03,10.8,52.92c38.64-44.62,20.88-74.74-1.2-103.77c35.78,42.79,61.56,39.6,92.88,37.17
			C-389.01,452.62-399.14,428.69-454.09,419.1z M-399.57,360.91c-11.81,11.7-24.78,26.9-39.64,38.52
			c17.49-7.06,37.14-10.69,53.18-15.07c-18.91,29.95-46.38,30.57-74.55,27.4C-449.24,385.79-434.96,362.31-399.57,360.91z
			 M-477.93,328.89c25.72,26.72,9.64,64.24,0,81.85C-487.58,393.13-503.66,355.61-477.93,328.89z M-471.31,422.49
			c0,3.66-2.97,6.63-6.63,6.63c-3.66,0-6.63-2.97-6.63-6.63s2.97-6.63,6.63-6.63C-474.27,415.86-471.31,418.83-471.31,422.49z
			 M-569.84,384.36c16.04,4.38,35.69,8.01,53.18,15.07c-14.86-11.62-27.83-26.82-39.64-38.52c35.39,1.4,49.67,24.88,61,50.86
			C-523.46,414.94-550.94,414.31-569.84,384.36z M-558.39,468.24c10.28-35.64,50.81-40.47,70.89-40.93
			C-497.93,444.47-522.38,477.15-558.39,468.24z M-464.39,520.1c-4.23-16.08-10.91-34.91-13.54-53.59
			c-2.63,18.68-9.31,37.51-13.54,53.59c-16.48-31.35-3.29-55.46,13.54-78.26C-461.1,464.64-447.91,488.75-464.39,520.1z
			 M-468.37,427.31c20.07,0.45,60.61,5.29,70.89,40.93C-433.49,477.15-457.94,444.47-468.37,427.31z"/>
		<path class="st1" d="M-511.37,356.2c0,0-1.26-32.58-22.58-31.4C-551.47,325.78-521.51,340.21-511.37,356.2z"/>
		<path class="st1" d="M-533.91,518.8c9.6,14.68,7.12-18.48,15.9-35.26C-518.01,483.54-545.6,500.92-533.91,518.8z"/>
		<path class="st1" d="M-404.42,425.62c0,0,28.85,15.2,38.48-3.86C-358.02,406.11-385.49,424.84-404.42,425.62z"/>
		<path class="st1" d="M-421.91,324.8c-21.33-1.18-22.58,31.4-22.58,31.4C-434.36,340.21-404.4,325.78-421.91,324.8z"/>
		<path class="st1" d="M-551.45,425.62c-18.92-0.79-46.4-19.52-38.48-3.86C-580.3,440.83-551.45,425.62-551.45,425.62z"/>
		<path class="st1" d="M-437.85,483.54c8.78,16.78,6.3,49.94,15.9,35.26C-410.26,500.92-437.85,483.54-437.85,483.54z"/>
	</g>
	<g>
		<path class="st1" d="M-477.93-294.9c-10.1,0-36.01,41.49-39.77,49.09c-10.5,21.24,40.97,40.21,24.99,56.33
			c-16.13,15.98-35.09-35.48-56.33-24.99c-7.61,3.76-49.09,29.67-49.09,39.77c0,10.1,41.49,36.01,49.09,39.77
			c21.24,10.5,40.21-40.97,56.33-24.99c15.98,16.13-35.48,35.09-24.99,56.33c3.76,7.61,29.67,49.09,39.77,49.09
			c10.1,0,36.01-41.49,39.77-49.09c10.5-21.24-40.97-40.21-24.99-56.33c16.13-15.98,35.09,35.48,56.33,24.99
			c7.61-3.76,49.09-29.67,49.09-39.77c0-10.1-41.49-36.01-49.09-39.77c-21.24-10.5-40.21,40.97-56.33,24.99
			c-15.98-16.13,35.48-35.09,24.99-56.33C-441.93-253.42-467.84-294.9-477.93-294.9z M-477.93-202.91
			c-8.31-8.73-25.66-25.57-25.66-34.75c0-5.1,18.88-23.72,25.66-23.72c6.78,0,25.66,18.62,25.66,23.72
			C-452.28-228.47-469.62-211.64-477.93-202.91z M-449.73-174.7c8.73-8.31,25.57-25.66,34.75-25.66c5.1,0,23.72,18.88,23.72,25.66
			c0,6.78-18.62,25.66-23.72,25.66C-424.16-149.04-441-166.39-449.73-174.7z M-477.93-146.49c8.31,8.73,25.66,25.57,25.66,34.75
			c0,5.1-18.88,23.72-25.66,23.72c-6.78,0-25.66-18.62-25.66-23.72C-503.59-120.93-486.25-137.76-477.93-146.49z M-506.14-174.7
			c-8.73,8.31-25.57,25.66-34.75,25.66c-5.1,0-23.72-18.88-23.72-25.66c0-6.78,18.62-25.66,23.72-25.66
			C-531.71-200.36-514.87-183.01-506.14-174.7z M-486.2-182.96c4.36-4.37,7.57-10.56,8.26-14.35c0.69,3.78,3.9,9.98,8.26,14.35
			c4.37,4.36,10.56,7.57,14.35,8.26c-3.78,0.69-9.98,3.9-14.35,8.26c-4.36,4.37-7.57,10.56-8.26,14.35
			c-0.69-3.78-3.9-9.98-8.26-14.35c-4.37-4.36-10.56-7.57-14.35-8.26C-496.76-175.39-490.56-178.6-486.2-182.96z"/>
		<path class="st1" d="M-541.83-238.6c0-0.01,0-0.03,0-0.04c-0.18-2.23,1.81-4.05,4.03-3.73c12.56,1.82,21.43,16.49,29.15,36.94
			c-20.46-7.72-35.13-16.59-36.94-29.15c-0.32-2.22,1.49-4.21,3.73-4.03C-541.86-238.6-541.84-238.6-541.83-238.6z"/>
		<path class="st1" d="M-414.04-238.6c0.01,0,0.03,0,0.04,0c2.23-0.18,4.05,1.81,3.73,4.03c-1.82,12.56-16.49,21.43-36.94,29.15
			c7.72-20.46,16.59-35.13,29.15-36.94c2.22-0.32,4.21,1.49,4.03,3.73C-414.04-238.62-414.04-238.61-414.04-238.6z"/>
		<path class="st1" d="M-414.04-110.8c0,0.01,0,0.03,0,0.04c0.18,2.23-1.81,4.05-4.03,3.73c-12.56-1.82-21.43-16.49-29.15-36.94
			c20.46,7.72,35.13,16.59,36.94,29.15c0.32,2.22-1.49,4.21-3.73,4.03C-414.01-110.8-414.03-110.8-414.04-110.8z"/>
		<path class="st1" d="M-541.83-110.8c-0.01,0-0.03,0-0.04,0c-2.23,0.18-4.05-1.81-3.73-4.03c1.82-12.56,16.49-21.43,36.94-29.15
			c-7.72,20.46-16.59,35.13-29.15,36.94c-2.22,0.32-4.21-1.49-4.03-3.73C-541.83-110.78-541.83-110.79-541.83-110.8z"/>
		<path class="st1" d="M-532.84-229.6c6.55-0.02,11.86,8.34,17.24,17.24C-524.5-217.75-532.86-223.05-532.84-229.6z"/>
		<path class="st1" d="M-423.03-229.6c0.02,6.55-8.34,11.86-17.24,17.24C-434.89-221.26-429.58-229.63-423.03-229.6z"/>
		<path class="st1" d="M-423.03-119.79c-6.55,0.02-11.86-8.34-17.24-17.24C-431.37-131.65-423.01-126.35-423.03-119.79z"/>
		<path class="st1" d="M-532.84-119.79c-0.02-6.55,8.34-11.86,17.24-17.24C-520.98-128.14-526.29-119.77-532.84-119.79z"/>
		<path class="st1" d="M-483.41-180.17c1.75-1.76,3.58-3.44,5.47-5.03c1.9,1.6,3.72,3.28,5.47,5.03c1.76,1.75,3.44,3.58,5.04,5.47
			c-1.6,1.9-3.28,3.72-5.04,5.47c-1.75,1.76-3.58,3.44-5.47,5.03c-1.9-1.6-3.72-3.28-5.47-5.03c-1.76-1.75-3.44-3.58-5.03-5.47
			C-486.85-176.6-485.17-178.42-483.41-180.17z"/>
	</g>
	<g>
		<path class="st1" d="M-225.8-61.59c9.54-2.01,13.95-14.55,14.23-34.03C-225.24-81.74-231.07-69.8-225.8-61.59z"/>
		<path class="st1" d="M-291.92-128.17c8.17,5.32,20.15-0.43,34.13-14C-277.28-142.02-289.85-137.7-291.92-128.17z"/>
		<path class="st1" d="M-291.61-222c2.01,9.54,14.55,13.95,34.03,14.23C-271.46-221.44-283.4-227.27-291.61-222z"/>
		<path class="st1" d="M-225.03-288.12c-5.32,8.17,0.43,20.15,14,34.13C-211.18-273.48-215.5-286.05-225.03-288.12z"/>
		<path class="st1" d="M-131.2-287.8c-9.54,2.01-13.95,14.55-14.23,34.03C-131.76-267.66-125.93-279.6-131.2-287.8z"/>
		<path class="st1" d="M-65.07-221.23c-8.17-5.32-20.15,0.43-34.13,14C-79.72-207.38-67.15-211.7-65.07-221.23z"/>
		<path class="st1" d="M-65.39-127.4c-2.01-9.54-14.55-13.95-34.03-14.23C-85.54-127.96-73.6-122.13-65.39-127.4z"/>
		<path class="st1" d="M-131.97-61.27c5.32-8.17-0.43-20.15-14-34.13C-145.82-75.92-141.5-63.35-131.97-61.27z"/>
		<path class="st1" d="M-99.22-141.54"/>
		<path class="st1" d="M-99-207.31"/>
		<path class="st1" d="M-145.34-253.98"/>
		<path class="st1" d="M-211.11-254.2"/>
		<path class="st1" d="M-257.78-207.85"/>
		<path class="st1" d="M-258-142.08"/>
		<path class="st1" d="M-211.66-95.42"/>
		<path class="st1" d="M-145.89-95.2"/>
		<path class="st1" d="M-99.22-141.54"/>
		<path class="st1" d="M-99-207.31"/>
		<path class="st1" d="M-145.34-253.98"/>
		<path class="st1" d="M-211.11-254.2"/>
		<path class="st1" d="M-257.78-207.85"/>
		<path class="st1" d="M-258-142.08"/>
		<path class="st1" d="M-211.66-95.42"/>
		<path class="st1" d="M-145.89-95.2"/>
		<path class="st1" d="M-99.22-141.54"/>
		<path class="st1" d="M-99-207.31"/>
		<path class="st1" d="M-145.34-253.98"/>
		<path class="st1" d="M-211.11-254.2"/>
		<path class="st1" d="M-257.78-207.85"/>
		<path class="st1" d="M-258-142.08"/>
		<path class="st1" d="M-211.66-95.42"/>
		<path class="st1" d="M-145.89-95.2"/>
		<path class="st1" d="M-99.22-141.54"/>
		<path class="st1" d="M-99-207.31"/>
		<path class="st1" d="M-145.34-253.98"/>
		<path class="st1" d="M-211.11-254.2"/>
		<path class="st1" d="M-257.78-207.85"/>
		<path class="st1" d="M-258-142.08"/>
		<path class="st1" d="M-211.66-95.42"/>
		<path class="st1" d="M-145.89-95.2"/>
		<path class="st1" d="M-99.22-141.54"/>
		<path class="st1" d="M-99-207.31"/>
		<path class="st1" d="M-145.34-253.98"/>
		<path class="st1" d="M-211.11-254.2"/>
		<path class="st1" d="M-257.78-207.85"/>
		<path class="st1" d="M-258-142.08"/>
		<path class="st1" d="M-211.66-95.42"/>
		<path class="st1" d="M-145.89-95.2"/>
		<path class="st1" d="M-99.22-141.54"/>
		<path class="st1" d="M-99-207.31"/>
		<path class="st1" d="M-145.34-253.98"/>
		<path class="st1" d="M-211.11-254.2"/>
		<path class="st1" d="M-257.78-207.85"/>
		<path class="st1" d="M-258-142.08"/>
		<path class="st1" d="M-211.66-95.42"/>
		<path class="st1" d="M-145.89-95.2"/>
		<path class="st1" d="M-99.22-141.54"/>
		<path class="st1" d="M-99-207.31"/>
		<path class="st1" d="M-145.34-253.98"/>
		<path class="st1" d="M-211.11-254.2"/>
		<path class="st1" d="M-257.78-207.85"/>
		<path class="st1" d="M-258-142.08"/>
		<path class="st1" d="M-211.66-95.42"/>
		<path class="st1" d="M-145.89-95.2"/>
		<path class="st1" d="M-99.22-141.54"/>
		<path class="st1" d="M-99-207.31"/>
		<path class="st1" d="M-145.34-253.98"/>
		<path class="st1" d="M-211.11-254.2"/>
		<path class="st1" d="M-257.78-207.85"/>
		<path class="st1" d="M-258-142.08"/>
		<path class="st1" d="M-211.66-95.42"/>
		<path class="st1" d="M-145.89-95.2"/>
		<path class="st1" d="M-99.22-141.54"/>
		<path class="st1" d="M-99-207.31"/>
		<path class="st1" d="M-145.34-253.98"/>
		<path class="st1" d="M-211.11-254.2"/>
		<path class="st1" d="M-257.78-207.85"/>
		<path class="st1" d="M-258-142.08"/>
		<path class="st1" d="M-211.66-95.42"/>
		<path class="st1" d="M-145.89-95.2"/>
		<path class="st1" d="M-99.22-141.54"/>
		<path class="st1" d="M-99-207.31"/>
		<path class="st1" d="M-145.34-253.98"/>
		<path class="st1" d="M-211.11-254.2"/>
		<path class="st1" d="M-257.78-207.85"/>
		<path class="st1" d="M-258-142.08"/>
		<path class="st1" d="M-211.66-95.42"/>
		<path class="st1" d="M-145.89-95.2"/>
		<path class="st1" d="M-99.22-141.54"/>
		<path class="st1" d="M-99-207.31"/>
		<path class="st1" d="M-145.34-253.98"/>
		<path class="st1" d="M-211.11-254.2"/>
		<path class="st1" d="M-257.78-207.85"/>
		<path class="st1" d="M-258-142.08"/>
		<path class="st1" d="M-211.66-95.42"/>
		<path class="st1" d="M-145.89-95.2"/>
		<path class="st1" d="M-99.22-141.54"/>
		<path class="st1" d="M-99-207.31"/>
		<path class="st1" d="M-145.34-253.98"/>
		<path class="st1" d="M-211.11-254.2"/>
		<path class="st1" d="M-257.78-207.85"/>
		<path class="st1" d="M-258-142.08"/>
		<path class="st1" d="M-211.66-95.42"/>
		<path class="st1" d="M-145.89-95.2"/>
		<path class="st1" d="M-99.22-141.54"/>
		<path class="st1" d="M-99-207.31"/>
		<path class="st1" d="M-145.34-253.98"/>
		<path class="st1" d="M-211.11-254.2"/>
		<path class="st1" d="M-257.78-207.85"/>
		<path class="st1" d="M-258-142.08"/>
		<path class="st1" d="M-211.66-95.42"/>
		<path class="st1" d="M-145.89-95.2"/>
		<path class="st1" d="M-99.22-141.54"/>
		<path class="st1" d="M-99-207.31"/>
		<path class="st1" d="M-145.34-253.98"/>
		<path class="st1" d="M-211.11-254.2"/>
		<path class="st1" d="M-257.78-207.85"/>
		<path class="st1" d="M-258-142.08"/>
		<path class="st1" d="M-211.66-95.42"/>
		<path class="st1" d="M-145.89-95.2"/>
		<path class="st1" d="M-99.22-141.54"/>
		<path class="st1" d="M-99-207.31"/>
		<path class="st1" d="M-145.34-253.98"/>
		<path class="st1" d="M-211.11-254.2"/>
		<path class="st1" d="M-257.78-207.85"/>
		<path class="st1" d="M-258-142.08"/>
		<path class="st1" d="M-211.66-95.42"/>
		<path class="st1" d="M-145.89-95.2"/>
		<path class="st1" d="M-99.22-141.54"/>
		<path class="st1" d="M-99-207.31"/>
		<path class="st1" d="M-145.34-253.98"/>
		<path class="st1" d="M-211.11-254.2"/>
		<path class="st1" d="M-257.78-207.85"/>
		<path class="st1" d="M-258-142.08"/>
		<path class="st1" d="M-211.66-95.42"/>
		<path class="st1" d="M-145.89-95.2"/>
		<path class="st1" d="M-99.22-141.54"/>
		<path class="st1" d="M-99-207.31"/>
		<path class="st1" d="M-145.34-253.98"/>
		<path class="st1" d="M-211.11-254.2"/>
		<path class="st1" d="M-257.78-207.85"/>
		<path class="st1" d="M-258-142.08"/>
		<path class="st1" d="M-211.66-95.42"/>
		<path class="st1" d="M-145.89-95.2"/>
		<path class="st1" d="M-99.22-141.54"/>
		<path class="st1" d="M-99-207.31"/>
		<path class="st1" d="M-145.34-253.98"/>
		<path class="st1" d="M-211.11-254.2"/>
		<path class="st1" d="M-257.78-207.85"/>
		<path class="st1" d="M-258-142.08"/>
		<path class="st1" d="M-211.66-95.42"/>
		<path class="st1" d="M-145.89-95.2"/>
		<path class="st1" d="M-99.22-141.54"/>
		<path class="st1" d="M-99-207.31"/>
		<path class="st1" d="M-145.34-253.98"/>
		<path class="st1" d="M-211.11-254.2"/>
		<path class="st1" d="M-257.78-207.85"/>
		<path class="st1" d="M-258-142.08"/>
		<path class="st1" d="M-211.66-95.42"/>
		<path class="st1" d="M-145.89-95.2"/>
		<path class="st1" d="M-99.22-141.54"/>
		<path class="st1" d="M-99-207.31"/>
		<path class="st1" d="M-145.34-253.98"/>
		<path class="st1" d="M-211.11-254.2"/>
		<path class="st1" d="M-257.78-207.85"/>
		<path class="st1" d="M-258-142.08"/>
		<path class="st1" d="M-211.66-95.42"/>
		<path class="st1" d="M-145.89-95.2"/>
		<path class="st1" d="M-99.22-141.54"/>
		<path class="st1" d="M-99-207.31"/>
		<path class="st1" d="M-145.34-253.98"/>
		<path class="st1" d="M-211.11-254.2"/>
		<path class="st1" d="M-257.78-207.85"/>
		<path class="st1" d="M-258-142.08"/>
		<path class="st1" d="M-211.66-95.42"/>
		<path class="st1" d="M-145.89-95.2"/>
		<path class="st1" d="M-99.22-141.54"/>
		<path class="st1" d="M-99-207.31"/>
		<path class="st1" d="M-145.34-253.98"/>
		<path class="st1" d="M-211.11-254.2"/>
		<path class="st1" d="M-257.78-207.85"/>
		<path class="st1" d="M-258-142.08"/>
		<path class="st1" d="M-211.66-95.42"/>
		<path class="st1" d="M-145.89-95.2"/>
		<path class="st1" d="M-99.22-141.54"/>
		<path class="st1" d="M-99-207.31"/>
		<path class="st1" d="M-145.34-253.98"/>
		<path class="st1" d="M-211.11-254.2"/>
		<path class="st1" d="M-257.78-207.85"/>
		<path class="st1" d="M-258-142.08"/>
		<path class="st1" d="M-211.66-95.42"/>
		<path class="st1" d="M-145.89-95.2"/>
		<path class="st1" d="M-99.22-141.54"/>
		<path class="st1" d="M-99-207.31"/>
		<path class="st1" d="M-145.34-253.98"/>
		<path class="st1" d="M-211.11-254.2"/>
		<path class="st1" d="M-257.78-207.85"/>
		<path class="st1" d="M-258-142.08"/>
		<path class="st1" d="M-211.66-95.42"/>
		<path class="st1" d="M-145.89-95.2"/>
		<path class="st1" d="M-99.22-141.54"/>
		<path class="st1" d="M-99-207.31"/>
		<path class="st1" d="M-145.34-253.98"/>
		<path class="st1" d="M-211.11-254.2"/>
		<path class="st1" d="M-257.78-207.85"/>
		<path class="st1" d="M-258-142.08"/>
		<path class="st1" d="M-211.66-95.42"/>
		<path class="st1" d="M-145.89-95.2"/>
		<path class="st1" d="M-99.22-141.54"/>
		<path class="st1" d="M-99-207.31"/>
		<path class="st1" d="M-145.34-253.98"/>
		<path class="st1" d="M-211.11-254.2"/>
		<path class="st1" d="M-257.78-207.85"/>
		<path class="st1" d="M-258-142.08"/>
		<path class="st1" d="M-211.66-95.42"/>
		<path class="st1" d="M-145.89-95.2"/>
		<path class="st1" d="M-99.22-141.54"/>
		<path class="st1" d="M-99-207.31"/>
		<path class="st1" d="M-145.34-253.98"/>
		<path class="st1" d="M-211.11-254.2"/>
		<path class="st1" d="M-257.78-207.85"/>
		<path class="st1" d="M-258-142.08"/>
		<path class="st1" d="M-211.66-95.42"/>
		<path class="st1" d="M-145.89-95.2"/>
		<path class="st1" d="M-99.22-141.54"/>
		<path class="st1" d="M-99-207.31"/>
		<path class="st1" d="M-145.34-253.98"/>
		<path class="st1" d="M-211.11-254.2"/>
		<path class="st1" d="M-257.78-207.85"/>
		<path class="st1" d="M-258-142.08"/>
		<path class="st1" d="M-211.66-95.42"/>
		<path class="st1" d="M-145.89-95.2"/>
		<path class="st1" d="M-99.22-141.54"/>
		<path class="st1" d="M-99-207.31"/>
		<path class="st1" d="M-145.34-253.98"/>
		<path class="st1" d="M-211.11-254.2"/>
		<path class="st1" d="M-257.78-207.85"/>
		<path class="st1" d="M-258-142.08"/>
		<path class="st1" d="M-296.64-175.1c15.75,10.42-17.26,38.46,49.97,28.37c-54.95,40.03-11.75,36.81-15.65,55.29
			c18.51-3.77,14.99,39.4,55.39-15.27c-10.55,67.16,17.72,34.34,28.03,50.16c10.42-15.75,38.46,17.26,28.37-49.97
			c40.03,54.95,36.81,11.75,55.29,15.65c-3.77-18.5,39.4-14.99-15.27-55.39c67.16,10.55,34.34-17.72,50.16-28.03
			c-15.75-10.42,17.26-38.46-49.97-28.37c54.95-40.03,11.75-36.81,15.65-55.29c-18.51,3.77-14.99-39.4-55.39,15.27
			c10.55-67.16-17.72-34.34-28.03-50.16c-10.42,15.75-38.46-17.26-28.37,49.97c-40.03-54.95-36.81-11.75-55.29-15.65
			c3.77,18.51-39.4,14.99,15.27,55.39C-313.64-213.68-280.82-185.41-296.64-175.1z M-192.18-180.42
			c-53.12-22.63-57.16-46.01-28.82-37.07c-8.75-28.4,14.61-24.21,36.87,29.07c-21.57-53.56-7.88-72.96,5.83-46.59
			c13.9-26.27,27.45-6.79,5.52,46.63c22.63-53.12,46.01-57.16,37.07-28.82c28.4-8.75,24.21,14.61-29.07,36.87
			c53.56-21.57,72.96-7.88,46.59,5.83c26.27,13.9,6.79,27.45-46.63,5.52c53.12,22.63,57.16,46.01,28.82,37.07
			c8.75,28.4-14.61,24.21-36.87-29.07c21.57,53.56,7.88,72.96-5.83,46.59c-13.9,26.27-27.45,6.79-5.52-46.63
			c-22.63,53.12-46.01,57.16-37.07,28.82c-28.4,8.75-24.21-14.61,29.07-36.87c-53.56,21.57-72.96,7.88-46.59-5.83
			C-265.08-188.8-245.6-202.35-192.18-180.42z"/>
		
			<ellipse transform="matrix(0.9239 -0.3827 0.3827 0.9239 53.267 -81.6071)" class="st1" cx="-178.5" cy="-174.7" rx="24.03" ry="24.03"/>
	</g>
	<g>
		<path class="st1" d="M174.27-452.71c24.6,4.62,46.64-8.63,67.6-22.09c-20.96-13.47-43-26.72-67.6-22.09
			c20.66-14.13,26.88-39.08,32.18-63.42c-24.34,5.3-49.3,11.51-63.42,32.18c4.62-24.6-8.63-46.64-22.09-67.6
			c-13.47,20.96-26.72,43-22.09,67.6c-14.13-20.66-39.08-26.88-63.42-32.18c5.3,24.34,11.51,49.3,32.18,63.42
			C43-501.52,20.96-488.27,0-474.8c20.96,13.47,43,26.72,67.6,22.09c-20.66,14.13-26.88,39.08-32.18,63.42
			c24.34-5.3,49.3-11.51,63.42-32.18c-4.62,24.6,8.63,46.64,22.09,67.6c13.47-20.96,26.72-43,22.09-67.6
			c14.13,20.66,39.08,26.88,63.42,32.18C201.15-413.63,194.94-438.58,174.27-452.71z M220.29-474.8
			c-20.39,14.72-50.98,19.39-85.88,0C169.31-494.19,199.9-489.52,220.29-474.8z M191.19-545.05c-4.01,24.82-22.34,49.76-60.73,60.73
			C141.43-522.72,166.37-541.05,191.19-545.05z M129.53-466.21c-1.81-0.41-4.71,0.77-4.71,0.77s-2.89,1.22-3.88,2.79
			c-0.99-1.57-3.88-2.79-3.88-2.79s-2.9-1.18-4.71-0.77c0.41-1.81-0.77-4.71-0.77-4.71s-1.22-2.89-2.78-3.88
			c1.57-0.99,2.78-3.88,2.78-3.88s1.18-2.9,0.77-4.71c1.81,0.41,4.71-0.77,4.71-0.77s2.89-1.22,3.88-2.79
			c0.99,1.57,3.88,2.79,3.88,2.79s2.9,1.18,4.71,0.77c-0.41,1.81,0.77,4.71,0.77,4.71s1.22,2.89,2.78,3.88
			c-1.57,0.99-2.78,3.88-2.78,3.88S129.12-468.02,129.53-466.21z M120.93-574.15c14.72,20.39,19.39,50.98,0,85.88
			C101.55-523.17,106.22-553.77,120.93-574.15z M50.68-545.05c24.82,4.01,49.76,22.34,60.73,60.73
			C73.02-495.29,54.69-520.23,50.68-545.05z M21.58-474.8c20.39-14.72,50.98-19.39,85.88,0C72.56-455.41,41.97-460.08,21.58-474.8z
			 M50.68-404.55c4.01-24.82,22.34-49.76,60.73-60.73C100.44-426.89,75.5-408.56,50.68-404.55z M120.93-375.45
			c-14.72-20.39-19.39-50.98,0-85.88C140.32-426.43,135.65-395.83,120.93-375.45z M130.46-465.27
			c38.39,10.96,56.72,35.9,60.73,60.73C166.37-408.56,141.43-426.89,130.46-465.27z"/>
		<path class="st1" d="M92.98-542.28c1.76-0.84,2.98-2.63,2.98-4.71c0-2.88-2.33-5.21-5.21-5.21c-0.61,0-1.2,0.11-1.75,0.3
			c-0.53,0.25-1.02,0.59-1.45,1.03c-2.03,2.03-2.03,5.33,0,7.37C89.02-542.03,91.15-541.63,92.98-542.28z"/>
		<path class="st1" d="M148.89-542.28c1.84,0.65,3.97,0.25,5.44-1.22c2.03-2.03,2.03-5.33,0-7.37c-0.43-0.43-0.93-0.78-1.45-1.03
			c-0.55-0.2-1.14-0.3-1.75-0.3c-2.88,0-5.21,2.33-5.21,5.21C145.91-544.91,147.12-543.12,148.89-542.28z"/>
		<path class="st1" d="M189.64-508.19c-1.47,1.47-1.88,3.6-1.22,5.44c0.84,1.76,2.63,2.98,4.71,2.98c2.88,0,5.21-2.33,5.21-5.21
			c0-0.61-0.11-1.2-0.3-1.75c-0.25-0.53-0.59-1.02-1.03-1.45C194.97-510.22,191.67-510.22,189.64-508.19z"/>
		<path class="st1" d="M188.41-446.85c-0.65,1.84-0.25,3.97,1.22,5.44c2.03,2.03,5.33,2.03,7.37,0c0.43-0.43,0.78-0.93,1.03-1.45
			c0.2-0.55,0.3-1.14,0.3-1.75c0-2.88-2.33-5.21-5.21-5.21C191.04-449.83,189.25-448.61,188.41-446.85z"/>
		<path class="st1" d="M148.89-407.32c-1.76,0.84-2.98,2.63-2.98,4.71c0,2.88,2.33,5.21,5.21,5.21c0.61,0,1.2-0.11,1.75-0.3
			c0.53-0.25,1.02-0.59,1.45-1.03c2.03-2.03,2.03-5.33,0-7.37C152.85-407.57,150.72-407.98,148.89-407.32z"/>
		<path class="st1" d="M92.98-407.32c-1.84-0.65-3.97-0.25-5.44,1.22c-2.03,2.03-2.03,5.33,0,7.37c0.43,0.43,0.93,0.78,1.45,1.03
			c0.55,0.2,1.14,0.3,1.75,0.3c2.88,0,5.21-2.33,5.21-5.21C95.96-404.69,94.75-406.49,92.98-407.32z"/>
		<path class="st1" d="M52.23-441.42c1.47-1.47,1.88-3.6,1.22-5.44c-0.84-1.76-2.63-2.98-4.71-2.98c-2.88,0-5.21,2.33-5.21,5.21
			c0,0.61,0.11,1.2,0.3,1.75c0.25,0.53,0.59,1.02,1.03,1.45C46.9-439.38,50.2-439.38,52.23-441.42z"/>
		<path class="st1" d="M53.46-502.75c0.65-1.84,0.25-3.97-1.22-5.44c-2.03-2.03-5.33-2.03-7.37,0c-0.43,0.43-0.78,0.93-1.03,1.45
			c-0.2,0.55-0.3,1.14-0.3,1.75c0,2.88,2.33,5.21,5.21,5.21C50.83-499.77,52.62-500.99,53.46-502.75z"/>
		<path class="st1" d="M126.12-476.95c0,0-0.65-1.61-0.43-2.61c-1,0.22-2.61-0.43-2.61-0.43s-1.6-0.68-2.15-1.54
			c-0.55,0.87-2.15,1.54-2.15,1.54s-1.61,0.65-2.61,0.43c0.22,1-0.43,2.61-0.43,2.61s-0.68,1.6-1.54,2.15
			c0.87,0.55,1.54,2.15,1.54,2.15s0.65,1.61,0.43,2.61c1-0.22,2.61,0.43,2.61,0.43s1.6,0.68,2.15,1.54
			c0.55-0.87,2.15-1.54,2.15-1.54s1.61-0.65,2.61-0.43c-0.22-1,0.43-2.61,0.43-2.61s0.68-1.6,1.54-2.15
			C126.8-475.35,126.12-476.95,126.12-476.95z"/>
	</g>
	<g>
		<path class="st1" d="M-62.72-481.73c-18.68-11.27-38.32-20.21-59.82-16.17c18.07-12.35,25.63-32.57,30.87-53.75
			c0.69-2.8-0.13-5.77-2.18-7.81c-2.04-2.04-5.01-2.86-7.81-2.17c-21.18,5.24-41.39,12.8-53.74,30.86
			c4.04-21.51-4.91-41.15-16.18-59.83c-1.49-2.47-4.17-3.99-7.06-3.99c-2.89,0-5.56,1.52-7.05,3.99
			c-11.27,18.68-20.21,38.32-16.17,59.82c-12.35-18.06-32.57-25.63-53.75-30.87c-2.8-0.69-5.77,0.13-7.81,2.18
			c-2.04,2.04-2.86,5.01-2.17,7.81c5.24,21.18,12.8,41.39,30.87,53.74c-21.35-4.01-40.86,4.78-59.42,15.93
			c-2.57,1.54-4.14,4.32-4.13,7.31c0,2.99,1.58,5.76,4.14,7.3c18.55,11.15,38.07,19.94,59.41,15.92
			c-17.93,12.26-25.51,32.26-30.75,53.27c-0.72,2.9,0.13,5.97,2.24,8.09c2.11,2.12,5.18,2.97,8.09,2.25
			c21.01-5.23,41.02-12.82,53.28-30.75c-4.01,21.35,4.78,40.86,15.93,59.42c1.54,2.57,4.32,4.14,7.31,4.13
			c2.99,0,5.76-1.58,7.3-4.14c11.15-18.55,19.94-38.07,15.92-59.41c12.35,18.07,32.57,25.63,53.75,30.87
			c2.8,0.69,5.77-0.13,7.81-2.18c2.04-2.04,2.86-5.01,2.17-7.81c-5.24-21.18-12.8-41.39-30.87-53.74
			c21.51,4.04,41.15-4.91,59.83-16.18c2.47-1.49,3.99-4.17,3.99-7.06C-58.73-477.57-60.24-480.24-62.72-481.73z M-123.66-535.17
			c1.56-0.45,3.25-0.02,4.4,1.13c1.15,1.15,1.58,2.84,1.13,4.4c-5.42,18.62-20.46,36.32-48.26,45.38c-0.75,0.24-1.58,0.05-2.14-0.51
			c-0.56-0.56-0.76-1.38-0.51-2.14C-159.98-514.71-142.27-529.75-123.66-535.17z M-169.14-474.8c0,5.17-4.19,9.36-9.36,9.36
			s-9.36-4.19-9.36-9.36c0-5.17,4.19-9.36,9.36-9.36S-169.14-479.97-169.14-474.8z M-182.54-556.32c0.78-1.43,2.28-2.32,3.91-2.32
			c1.63,0,3.13,0.89,3.91,2.31c9.33,17,11.22,40.15-2.04,66.22c-0.36,0.7-1.08,1.15-1.87,1.15c-0.79,0-1.51-0.44-1.87-1.15
			C-193.76-516.17-191.87-539.32-182.54-556.32z M-239.13-529.64c-0.46-1.56-0.03-3.25,1.12-4.4c1.15-1.15,2.84-1.59,4.4-1.13
			c18.62,5.42,36.32,20.46,45.39,48.26c0.24,0.75,0.05,1.58-0.51,2.14c-0.56,0.56-1.38,0.76-2.14,0.51
			C-218.67-493.32-233.71-511.02-239.13-529.64z M-260.28-470.76c-1.43-0.78-2.31-2.28-2.31-3.91c0-1.63,0.89-3.13,2.31-3.91
			c17-9.33,40.15-11.21,66.22,2.04c0.7,0.36,1.15,1.08,1.15,1.87c0,0.79-0.44,1.51-1.15,1.87
			C-220.13-459.54-243.29-461.43-260.28-470.76z M-233.61-414.17c-1.56,0.46-3.25,0.02-4.4-1.13c-1.15-1.15-1.58-2.84-1.13-4.4
			c5.42-18.62,20.46-36.32,48.26-45.38c0.75-0.24,1.58-0.05,2.14,0.51c0.56,0.56,0.76,1.38,0.51,2.14
			C-197.28-434.63-214.99-419.59-233.61-414.17z M-174.72-393.02c-0.78,1.43-2.28,2.31-3.91,2.31c-1.63,0-3.13-0.89-3.91-2.31
			c-9.33-17-11.22-40.15,2.04-66.22c0.36-0.7,1.08-1.15,1.87-1.15c0.79,0,1.51,0.44,1.87,1.15
			C-163.5-433.17-165.39-410.01-174.72-393.02z M-118.13-419.7c0.46,1.56,0.02,3.25-1.13,4.4c-1.15,1.15-2.84,1.58-4.4,1.13
			c-18.62-5.42-36.32-20.46-45.38-48.27c-0.24-0.75-0.05-1.58,0.51-2.14c0.56-0.56,1.38-0.76,2.14-0.51
			C-138.59-456.02-123.55-438.31-118.13-419.7z M-96.98-470.76c-17,9.33-40.15,11.22-66.22-2.04c-0.7-0.36-1.15-1.08-1.15-1.87
			c0-0.79,0.44-1.51,1.15-1.87c26.07-13.25,49.22-11.37,66.22-2.04c1.43,0.78,2.32,2.28,2.32,3.91
			C-94.66-473.05-95.55-471.55-96.98-470.76z"/>
		<path class="st1" d="M-260.61-440.71c-1.24-2.6-3.89-4.41-6.97-4.41c-4.26,0-7.71,3.45-7.71,7.71c0,0.91,0.16,1.78,0.45,2.59
			c0.37,0.78,0.87,1.51,1.52,2.15c3.01,3.01,7.89,3.01,10.9,0C-260.25-434.85-259.65-438-260.61-440.71z"/>
		<path class="st1" d="M-267.58-504.22c3.07,0,5.73-1.8,6.97-4.41c0.97-2.72,0.36-5.87-1.81-8.04c-3.01-3.01-7.89-3.01-10.9,0
			c-0.64,0.64-1.15,1.37-1.52,2.15c-0.29,0.81-0.45,1.68-0.45,2.59C-275.29-507.67-271.84-504.22-267.58-504.22z"/>
		<path class="st1" d="M-212.59-556.65c2.6-1.24,4.41-3.89,4.41-6.97c0-4.26-3.45-7.71-7.71-7.71c-0.91,0-1.78,0.16-2.59,0.45
			c-0.78,0.37-1.51,0.87-2.15,1.52c-3.01,3.01-3.01,7.89,0,10.9C-218.46-556.29-215.31-555.69-212.59-556.65z"/>
		<path class="st1" d="M-144.67-556.65c2.72,0.97,5.87,0.36,8.04-1.81c3.01-3.01,3.01-7.89,0-10.9c-0.64-0.64-1.37-1.15-2.15-1.52
			c-0.81-0.29-1.68-0.45-2.59-0.45c-4.26,0-7.71,3.45-7.71,7.71C-149.08-560.54-147.28-557.89-144.67-556.65z"/>
		<path class="st1" d="M-96.65-508.63c1.24,2.6,3.89,4.41,6.97,4.41c4.26,0,7.71-3.45,7.71-7.71c0-0.91-0.16-1.78-0.45-2.59
			c-0.37-0.78-0.87-1.51-1.52-2.15c-3.01-3.01-7.89-3.01-10.9,0C-97.01-514.49-97.62-511.34-96.65-508.63z"/>
		<path class="st1" d="M-89.68-445.12c-3.07,0-5.73,1.8-6.97,4.41c-0.97,2.72-0.36,5.87,1.81,8.04c3.01,3.01,7.89,3.01,10.9,0
			c0.64-0.64,1.15-1.37,1.52-2.15c0.29-0.81,0.45-1.68,0.45-2.59C-81.98-441.67-85.43-445.12-89.68-445.12z"/>
		<path class="st1" d="M-144.67-392.69c-2.6,1.24-4.41,3.89-4.41,6.97c0,4.26,3.45,7.71,7.71,7.71c0.91,0,1.78-0.16,2.59-0.45
			c0.78-0.37,1.51-0.87,2.15-1.52c3.01-3.01,3.01-7.89,0-10.9C-138.81-393.05-141.96-393.65-144.67-392.69z"/>
		<path class="st1" d="M-212.59-392.69c-2.72-0.97-5.87-0.36-8.04,1.81c-3.01,3.01-3.01,7.89,0,10.9c0.64,0.64,1.37,1.15,2.15,1.52
			c0.81,0.29,1.68,0.45,2.59,0.45c4.26,0,7.71-3.45,7.71-7.71C-208.18-388.8-209.99-391.45-212.59-392.69z"/>
	</g>
	<g>
		<path class="st1" d="M-178.5,23.81c-0.89,0-1.78,0.43-2.31,1.29c-13.35,21.65-29.55,48.79-29.55,59.96
			c0,13.24,14.47,49.01,24.09,73.87c-12.54-22.23-28.58-50.8-37.79-58.35c-8.47-6.94-39.13-11.5-63.86-14.83
			c-0.98-0.13-1.87,0.28-2.42,0.95c-0.55,0.68-0.78,1.62-0.46,2.56c8.13,23.58,18.66,52.74,27.13,59.68
			c8.84,7.24,37.89,16.81,61.66,24.56c-18.58-4.21-40.91-9.11-49.08-9.06c-8.09,0.05-27.7,7.78-43.35,14.15
			c-0.62,0.25-0.93,0.67-0.93,1.09c0,0.42,0.32,0.84,0.94,1.08c15.72,6.17,35.43,13.66,43.52,13.61c8.22-0.05,30.22-4.6,48.45-8.57
			c-10.32,3.62-22.08,8.17-31.36,11.32c-3.04,1.03-11.33,11.33-17.42,20.26c-0.64,0.94,0.33,2.2,1.46,2.04
			c9.82-1.36,29.9-4.06,34.83-5.69c3.86-1.27,10.53-7.25,17.22-13.84c-1.54,1.89-2.7,3.51-3.24,4.66
			c-2.42,5.19-3.3,16.36,0.57,22.42c8.09-3,16.69-12.2,19.11-17.39c1.57-3.36,2.26-12.26,2.78-19.98
			c0.52,7.71,1.21,16.61,2.78,19.98c2.42,5.19,11.02,14.39,19.11,17.39c3.88-6.06,2.99-17.23,0.57-22.42
			c-0.54-1.15-1.7-2.78-3.24-4.66c6.68,6.59,13.36,12.57,17.22,13.84c4.93,1.63,25.01,4.33,34.83,5.69c1.13,0.16,2.11-1.1,1.46-2.04
			c-6.09-8.93-14.37-19.22-17.42-20.26c-9.29-3.15-21.04-7.7-31.36-11.32c18.22,3.97,40.22,8.52,48.45,8.57
			c8.09,0.05,27.79-7.44,43.52-13.61c0.63-0.25,0.94-0.66,0.94-1.08c0-0.42-0.31-0.84-0.93-1.09c-15.65-6.37-35.26-14.1-43.35-14.15
			c-8.16-0.05-30.5,4.84-49.08,9.06c23.77-7.75,52.82-17.32,61.66-24.56c8.48-6.94,19-36.09,27.13-59.68
			c0.32-0.94,0.1-1.88-0.46-2.56c-0.55-0.68-1.43-1.08-2.42-0.95c-24.72,3.32-55.38,7.89-63.86,14.83
			c-9.21,7.54-25.25,36.12-37.79,58.35c9.62-24.86,24.09-60.64,24.09-73.87c0-11.17-16.2-38.3-29.55-59.96
			C-176.72,24.24-177.61,23.81-178.5,23.81z M-178.5,180.6c-5.76-31.59-28.13-108.73,0-108.73S-172.74,149.01-178.5,180.6z
			 M-260.24,112.58c18.24-24.12,64.81,42.61,81.37,68.03C-221.11,163.31-275.09,132.22-260.24,112.58z M-178.12,180.6
			c16.56-25.42,63.13-92.15,81.37-68.03C-81.91,132.22-135.89,163.31-178.12,180.6z M-194.83,183.25
			c-30.03,3.78-66.17,8.04-66.17-3.48c0-17.27,49.02-5.74,75.2,0.94c1.61,0.41,2.82,0.72,3.71,0.95
			C-186.1,182.15-190.62,182.72-194.83,183.25z M-174.91,181.66c0.89-0.23,2.09-0.54,3.71-0.95c26.18-6.68,75.2-18.21,75.2-0.94
			c0,11.52-36.14,7.26-66.17,3.48C-166.38,182.72-170.9,182.15-174.91,181.66z M-227.78,206.58c-12.84-4.91,27.73-20.57,46.95-24.33
			C-182.02,184.25-216.71,210.81-227.78,206.58z M-176.17,182.25c19.21,3.76,59.79,19.42,46.95,24.33
			C-140.29,210.81-174.98,184.25-176.17,182.25z M-193.8,213c-7.55,0.76,4.58-20.73,14.21-30.8
			C-179.97,189.87-181.77,211.8-193.8,213z M-177.41,182.2c9.64,10.07,21.76,31.55,14.21,30.8
			C-175.23,211.8-177.03,189.87-177.41,182.2z"/>
		<path class="st1" d="M-212.75,70.26c-3.91,7.97-5.4,13.48-6.06,22.33c-7.97-3.91-13.48-5.4-22.33-6.06
			c3.91-7.97,5.4-13.48,6.06-22.33C-227.11,68.11-221.6,69.61-212.75,70.26z"/>
		<path class="st1" d="M-144.25,70.26c3.91,7.97,5.4,13.48,6.06,22.33c7.97-3.91,13.48-5.4,22.33-6.06
			c-3.91-7.97-5.4-13.48-6.06-22.33C-129.89,68.11-135.4,69.61-144.25,70.26z"/>
		<path class="st1" d="M-262.38,155.36c-5.67,3.83-8.78,6.94-12.61,12.61c-3.83-5.67-6.94-8.78-12.61-12.61
			c5.67-3.83,8.78-6.94,12.61-12.61C-271.16,148.42-268.05,151.53-262.38,155.36z"/>
		<path class="st1" d="M-94.62,155.36c5.67,3.83,8.78,6.94,12.61,12.61c3.83-5.67,6.94-8.78,12.61-12.61
			c-5.67-3.83-8.78-6.94-12.61-12.61C-85.84,148.42-88.95,151.53-94.62,155.36z"/>
		<path class="st1" d="M-251.59,201.07c-2.2,4.28-3.07,7.24-3.53,12.03c-4.28-2.2-7.24-3.07-12.03-3.53
			c2.2-4.28,3.07-7.24,3.53-12.03C-259.34,199.75-256.37,200.62-251.59,201.07z"/>
		<path class="st1" d="M-105.41,201.07c2.2,4.28,3.07,7.24,3.53,12.03c4.28-2.2,7.24-3.07,12.03-3.53
			c-2.2-4.28-3.07-7.24-3.53-12.03C-97.66,199.75-100.63,200.62-105.41,201.07z"/>
		<path class="st1" d="M-206.79,223.2c-2.77,0.14-4.5,0.56-7.03,1.72c-0.14-2.77-0.56-4.5-1.72-7.03c2.77-0.14,4.5-0.56,7.03-1.72
			C-208.38,218.95-207.95,220.68-206.79,223.2z"/>
		<path class="st1" d="M-150.21,223.2c2.77,0.14,4.5,0.56,7.03,1.72c0.14-2.77,0.56-4.5,1.72-7.03c-2.77-0.14-4.5-0.56-7.03-1.72
			C-148.62,218.95-149.05,220.68-150.21,223.2z"/>
	</g>
	<g>
		<path class="st1" d="M420.37-582.89c-13.79,18.04-32.6,37.36-39.12,57.69c-0.87,2.71-1.47,5.51-1.7,8.45
			c-2.98,37.21,24.01,46.28,28.36,86.07c0,0.01,0,0.01,0,0.02c2.7,1.79,9.05,1.98,12.46,1.99c3.41-0.01,9.76-0.19,12.46-1.99
			c0-0.01,0-0.01,0-0.02c4.35-39.79,31.34-48.87,28.36-86.07c-0.23-2.93-0.82-5.73-1.7-8.45
			C452.97-545.53,434.16-564.85,420.37-582.89z M420.37-580.62c-0.12-0.32-0.11-0.62,0-0.92
			C420.48-581.24,420.49-580.94,420.37-580.62z M420.37-432.46c-5.58,0.07-7.49-1.08-8.75-14.44c-2.24-23.63-15.67-36.26-15.67-58.8
			c0-14.29,15.11-29.12,24.43-39.57c9.31,10.45,24.43,25.28,24.43,39.57c0,22.54-13.43,35.17-15.67,58.8
			C427.86-433.54,425.95-432.39,420.37-432.46z"/>
		<path class="st1" d="M379.55-516.75c0.23-2.93,0.82-5.73,1.7-8.45c-11.9-13.05-39.49-38.95-76.83-24.91
			c52.07,21.22,34.06,95.67,97.13,117.51c2.04,0.7,4.14,1.35,6.35,1.94c0-0.01,0.01-0.01,0.01-0.02
			C403.56-470.47,376.57-479.55,379.55-516.75z M339.41-526.79c3.52,0.93,6.82,2.17,9.84,3.57c11.68,5.41,20.54,15.49,24.4,27.78
			c7.67,24.43,24.25,40.07,29.57,59.88C355.64-455.71,355.64-510.56,339.41-526.79z"/>
		<path class="st1" d="M461.19-516.75c-0.23-2.93-0.82-5.73-1.7-8.45c11.9-13.05,39.49-38.95,76.83-24.91
			c-52.07,21.22-34.06,95.67-97.13,117.51c-2.04,0.7-4.14,1.35-6.35,1.94c0-0.01-0.01-0.01-0.01-0.02
			C437.18-470.47,464.17-479.55,461.19-516.75z M501.33-526.79c-3.52,0.93-6.82,2.17-9.84,3.57c-11.68,5.41-20.54,15.49-24.4,27.78
			c-7.67,24.43-24.25,40.07-29.57,59.88C485.1-455.71,485.1-510.56,501.33-526.79z"/>
		<path class="st1" d="M420.37-428.67c-3.41-0.01-9.76-0.19-12.46-1.99c0-0.01,0-0.01,0-0.02l-0.01,0.02
			c-7.47,12.48-26.18,19.48-23.88,33.34c0.61,3.6,3.35,6.58,7.08,9.37c9.54,7.11,20.52,13.96,29.27,21.23
			c8.76-7.28,19.73-14.12,29.27-21.23c3.73-2.79,6.47-5.77,7.08-9.37c2.3-13.86-16.41-20.86-23.88-33.34l-0.01-0.02
			c0,0.01,0,0.01,0,0.02C430.13-428.86,423.78-428.68,420.37-428.67z M420.37-383.12c-2.75-2.54-10.8-7.46-17.48-13.29
			c-2-1.75-3.49-4.01-3.81-6.64c-0.32-2.64,0.69-5.02,2.36-7.08c4-4.94,7.95-9.43,10.29-12.32c1.48-1.83,3.2-3.1,5.54-2.94h6.2
			c2.34-0.16,4.07,1.11,5.54,2.94c2.33,2.88,6.29,7.38,10.29,12.32c1.67,2.07,2.68,4.44,2.36,7.08c-0.32,2.64-1.81,4.9-3.81,6.64
			C431.17-390.58,423.12-385.66,420.37-383.12z"/>
		<path class="st1" d="M401.55-432.6c-34.61,2.1-49.08,45.42-78.24,37.76c16.31,14.92,50.08,24.15,67.8,6.88
			c-3.73-2.79-6.47-5.77-7.08-9.37c-2.3-13.86,16.41-20.86,23.88-33.34C405.69-431.25,403.58-431.89,401.55-432.6z M387.47-417.75
			c-4.58,4.24-6.35,8.76-8.38,15.36c-1.98,6.45-6.22,10.54-13.21,11.43c-7.63,0.97-13.59-0.38-18.16-3.43
			c18.54-8.13,27.3-30.09,53.97-35.68C400.42-427.4,394.07-423.86,387.47-417.75z"/>
		<path class="st1" d="M439.19-432.6c34.61,2.1,49.08,45.42,78.24,37.76c-16.31,14.92-50.08,24.15-67.8,6.88
			c3.73-2.79,6.47-5.77,7.08-9.37c2.3-13.86-16.41-20.86-23.88-33.34C435.05-431.25,437.16-431.89,439.19-432.6z M453.27-417.75
			c4.58,4.24,6.35,8.76,8.38,15.36c1.98,6.45,6.22,10.54,13.21,11.43c7.63,0.97,13.59-0.38,18.16-3.43
			c-18.54-8.13-27.3-30.09-53.97-35.68C440.32-427.4,446.67-423.86,453.27-417.75z"/>
		<path class="st1" d="M379.69-557.26c2.15,9.13,1.82,17.02-0.74,17.62c-2.56,0.6-6.37-6.31-8.52-15.44
			c-2.15-9.13-1.82-17.02,0.74-17.62S377.54-566.39,379.69-557.26z"/>
		<path class="st1" d="M461.05-557.26c-2.15,9.13-1.82,17.02,0.74,17.62c2.56,0.6,6.37-6.31,8.52-15.44
			c2.15-9.13,1.82-17.02-0.74-17.62S463.2-566.39,461.05-557.26z"/>
	</g>
	<g>
		<path class="st1" d="M-175.75,509.29c4.87,0,15.85-3.64,16.37-23.86c0,0-6.5,1.97-16.37,1.97c-9.87,0-16.37-1.97-16.37-1.97
			C-191.59,505.65-180.62,509.29-175.75,509.29z"/>
		<path class="st1" d="M-192.74,459.79c-16.81-40.1-37.33-76.4-106.44-63.1c31.76,11.69,68.06,86.13,123.43,86.13
			s91.67-74.44,123.43-86.13c-69.11-13.3-89.63,23-106.44,63.1c22.86-62.46,4.19-87.18-16.99-118.07
			C-196.93,372.61-215.6,397.33-192.74,459.79z M-155.4,471.69c13.57-31.3,30.53-59.78,73.1-61.47
			C-102.83,430.56-126.29,459.76-155.4,471.69z M-269.19,410.22c42.57,1.69,59.53,30.17,73.1,61.47
			C-225.2,459.76-248.67,430.56-269.19,410.22z M-175.75,372.05c30.67,31.86,11.5,76.6,0,97.6
			C-187.25,448.65-206.42,403.91-175.75,372.05z"/>
	</g>
	<g>
		<path class="st1" d="M-504.51-390.08c-9.17,22.83-74.56,7.08-90.41-13.08c-7.6-9.68,1.63-29.33,15.6-43.61
			c2.73,5.83,10.32,13.26,13.72,17.84c-1.83,1.22-4.12,8.68-2.74,13.11c4.27,13.72,41.41,24.15,43.29,9.76
			c1.83-14.02,5.49-23.47,15.25-24.86c2.95,0.45,5.75,1.4,8.39,2.67c-3.25,3.06-5.75,6.91-6.52,11.84
			C-509.85-404.02-500.23-400.73-504.51-390.08z"/>
		<path class="st1" d="M-451.36-390.08c9.17,22.83,74.56,7.08,90.41-13.08c7.6-9.68-1.63-29.33-15.6-43.61
			c-2.73,5.83-10.32,13.26-13.72,17.84c1.83,1.22,4.12,8.68,2.74,13.11c-4.27,13.72-41.41,24.15-43.29,9.76
			c-1.83-14.02-5.49-23.47-15.25-24.86c-2.95,0.45-5.75,1.4-8.39,2.67c3.25,3.06,5.75,6.91,6.52,11.84
			C-446.02-404.02-455.64-400.73-451.36-390.08z"/>
		<path class="st1" d="M-477.94-546.82c-10.78,0-26.92,16.05-30.12,30.66c-7.23-3.08-15.28-5.49-23.43-7.14
			c7.36-32.45,41.53-54.72,53.34-54.72h0.42c11.81,0,45.98,22.27,53.34,54.72c-8.15,1.64-16.2,4.05-23.43,7.14
			c-3.19-14.61-19.34-30.66-30.12-30.66H-477.94z"/>
		<path class="st1" d="M-478.2-430.61c-2.97,0-5.44-0.36-7.55-0.95c-1.61-0.45-3.01-1.04-4.25-1.71c-1.64-0.85-3.01-1.85-4.25-2.83
			c-0.3-0.26-0.63-0.52-0.91-0.76c-2.2-6.27-0.68-11.4,2.73-14.98c3.46-3.63,8.83-5.68,14.23-5.75h0.53
			c5.4,0.07,10.77,2.11,14.23,5.75c3.41,3.59,4.93,8.72,2.73,14.98c-0.28,0.24-0.61,0.5-0.91,0.76c-1.24,0.97-2.62,1.97-4.25,2.83
			c-1.24,0.66-2.64,1.26-4.25,1.71c-2.1,0.59-4.58,0.95-7.55,0.95H-478.2z"/>
		<path class="st1" d="M-478.07-437.25c-1.51,0-2.76-0.17-3.83-0.46c-0.82-0.22-1.53-0.5-2.16-0.82c-0.83-0.41-1.53-0.89-2.16-1.36
			c-0.15-0.13-0.32-0.25-0.46-0.37c-1.11-3.01-0.34-5.48,1.39-7.2c1.76-1.75,4.48-2.73,7.22-2.76h0.27
			c2.74,0.03,5.47,1.02,7.22,2.76c1.73,1.72,2.5,4.19,1.39,7.2c-0.14,0.11-0.31,0.24-0.46,0.37c-0.63,0.47-1.33,0.95-2.16,1.36
			c-0.63,0.32-1.34,0.6-2.16,0.82c-1.07,0.29-2.32,0.46-3.83,0.46H-478.07z"/>
		<path class="st1" d="M-500.95-428.7c-0.15,0.12-0.3,0.25-0.45,0.4c0.16,0.07,0.34,0.16,0.51,0.25
			C-500.91-428.26-500.94-428.49-500.95-428.7z"/>
		<path class="st1" d="M-454.92-428.7c0.15,0.12,0.3,0.25,0.45,0.4c-0.16,0.07-0.34,0.16-0.51,0.25
			C-454.96-428.26-454.93-428.49-454.92-428.7z"/>
		<path class="st1" d="M-492.35-459.66c1.49-15.47,13.6-16.16,11.85-30.36c-1.33-10.82-12.69-19.86-27.56-26.14
			c-7.23-3.08-15.28-5.49-23.43-7.14c-22.33-4.5-45.29-3.31-53.64,5.92c-10.56,11.68-6.05,45.25,5.81,70.6
			c2.73,5.83,5.83,11.21,9.23,15.79c6.65,8.93,14.39,14.83,22.57,15.02c14.29,0.34,13.77-11.79,29.01-14.82
			c3.03-0.6,5.94-0.6,8.71-0.15c2.95,0.45,5.75,1.4,8.39,2.67c0.19-0.19,0.37-0.36,0.56-0.5c-0.15-1.85-0.22-3.51-0.21-4.93
			c0-0.02,0-0.02,0-0.04c0.04-3.42,0.64-5.47,1.87-5.47c0.21,0,0.41,0,0.62,0.02c2.8,0.22,4.63,1.87,6.86,3.66
			c-1.76-4.93-0.54-8.97,2.19-11.79C-491.43-451.27-492.74-455.61-492.35-459.66z M-504.28-445.12c-4.5-0.99-9.6,0.09-14.85,1.79
			c-8.97,2.91-18.37,7.66-25.95,6.97c-3.64-0.34-7.98-4.52-11.86-10.65c-2.28-3.57-4.41-7.79-6.17-12.27
			c-5.27-13.49-7.19-29.46,0.21-37.74c7.38-8.26,23.5-8.3,37.57-4.75c12.82,3.23,23.93,9.43,25.13,15.11
			c1.87,9.02-3.87,21.58-4.86,32.28C-505.39-451.07-505.24-447.93-504.28-445.12z"/>
		<path class="st1" d="M-463.52-459.66c-1.49-15.47-13.6-16.16-11.85-30.36c1.33-10.82,12.69-19.86,27.56-26.14
			c7.23-3.08,15.28-5.49,23.43-7.14c22.33-4.5,45.29-3.31,53.64,5.92c10.56,11.68,6.05,45.25-5.81,70.6
			c-2.73,5.83-5.83,11.21-9.23,15.79c-6.65,8.93-14.39,14.83-22.57,15.02c-14.29,0.34-13.77-11.79-29.01-14.82
			c-3.03-0.6-5.94-0.6-8.71-0.15c-2.95,0.45-5.75,1.4-8.39,2.67c-0.19-0.19-0.37-0.36-0.56-0.5c0.15-1.85,0.22-3.51,0.21-4.93
			c0-0.02,0-0.02,0-0.04c-0.04-3.42-0.64-5.47-1.87-5.47c-0.21,0-0.41,0-0.62,0.02c-2.8,0.22-4.63,1.87-6.86,3.66
			c1.76-4.93,0.54-8.97-2.19-11.79C-464.44-451.27-463.13-455.61-463.52-459.66z M-451.59-445.12c4.5-0.99,9.6,0.09,14.85,1.79
			c8.97,2.91,18.37,7.66,25.95,6.97c3.64-0.34,7.98-4.52,11.86-10.65c2.28-3.57,4.41-7.79,6.17-12.27
			c5.27-13.49,7.19-29.46-0.21-37.74c-7.38-8.26-23.5-8.3-37.57-4.75c-12.82,3.23-23.93,9.43-25.13,15.11
			c-1.87,9.02,3.87,21.58,4.86,32.28C-450.48-451.07-450.63-447.93-451.59-445.12z"/>
		<path class="st1" d="M-478.15-371.59c-10.18,0-20.74-37.12-22.63-56.35c-0.02-0.28-0.06-0.56-0.07-0.82
			c-0.15-1.85-0.22-3.51-0.21-4.93c0-0.02,0-0.02,0-0.04c0.04-3.42,0.64-5.47,1.87-5.47c0.21,0,0.41,0,0.62,0.02
			c2.8,0.22,4.63,1.87,6.86,3.66c0.22,0.19,0.49,0.39,0.73,0.6c0.99,0.77,2.09,1.55,3.4,2.22c-0.24,0.5-0.45,1.07-0.64,1.66
			c-0.5,1.72-0.77,3.74-0.82,5.92c-0.04,1.27,0,2.6,0.09,3.96c0.15,2.05,0.43,4.18,0.8,6.31c0.02,0.02,0.02,0.02,0.02,0.04
			c2.06,11.43,7.12,22.85,10.18,22.08h0.01c3.06,0.77,8.13-10.65,10.18-22.08c0-0.02,0-0.02,0.02-0.04c0.37-2.13,0.65-4.26,0.8-6.31
			c0.09-1.36,0.13-2.69,0.09-3.96c-0.06-2.19-0.32-4.2-0.82-5.92c-0.19-0.6-0.39-1.16-0.64-1.66c1.31-0.67,2.41-1.46,3.4-2.22
			c0.24-0.21,0.5-0.41,0.73-0.6c2.22-1.79,4.05-3.44,6.86-3.66c0.21-0.02,0.41-0.02,0.62-0.02c1.23,0,1.83,2.06,1.87,5.47
			c0,0.02,0,0.02,0,0.04c0.02,1.42-0.06,3.08-0.21,4.93c-0.02,0.26-0.06,0.54-0.07,0.82c-1.89,19.22-12.44,56.35-22.63,56.35
			H-478.15z"/>
		<polygon class="st1" points="-548.03,-483.41 -504.29,-438.88 -498.63,-446.99 		"/>
		<polygon class="st1" points="-407.84,-483.41 -451.58,-438.88 -457.24,-446.99 		"/>
		<polygon class="st1" points="-477.93,-543.4 -481.12,-455.87 -474.74,-455.87 		"/>
	</g>
	<g>
		<path class="st1" d="M8.57,517.46c3.08,5.34,39.2,18.48,60.29,14.87c13.61-2.33,31.07-14.31,46.76-41.71
			c3.7,4.54,6.95,8.04,7.59,9.41c0.66-1.43,4.2-5.21,8.12-10.07c15.8,27.92,33.46,40.02,47.19,42.37
			c21.09,3.61,57.2-9.52,60.29-14.87c3.08-5.34-3.6-43.19-17.27-59.64c-8.87-10.68-28.11-19.89-60-19.67
			c2.61-6.5,4.3-12.26,5.29-13.66c-1.49,0.13-6.12-0.92-11.88-1.86c15.05-26.54,16.46-47.07,11.76-59.78
			c-7.41-20.07-36.85-44.78-43.02-44.78c-6.17,0-35.6,24.71-43.02,44.78c-4.69,12.69-3.29,33.17,11.68,59.64
			c-6.16,0.96-11.2,2.13-12.76,1.99c0.99,1.4,2.68,7.15,5.28,13.64c-31.33-0.03-50.25,9.12-59.03,19.69
			C12.17,474.27,5.49,512.11,8.57,517.46z M123.21,445.15L96.1,433.72c6.53-1.82,24-4.28,27.11,7.41c3.1-11.7,20.58-9.24,27.11-7.41
			L123.21,445.15z M141.08,421.31c-7.64-0.02-14.77,1.57-17.87,7.09c-2.97-5.29-9.64-6.96-16.91-7.08
			c-14.71-33.35,2.73-50.15,17.39-59.49C138.34,371.17,155.78,387.96,141.08,421.31z M138.98,479.04
			c3.74-6.53,5.82-13.38,2.63-18.75c5.62,0.06,10.14-4.17,13.75-9.76c38.65,3.04,44.76,27.26,45.54,45.04
			c-15.76,8.2-39.71,15.04-61.63-16.66C139.18,478.96,139.08,478.99,138.98,479.04z M123.46,481.12l3.65-29.2l23.46-17.76
			c-1.69,6.57-8.3,22.93-19.98,19.77C139.17,462.46,128.31,476.37,123.46,481.12z M115.82,453.93
			c-11.68,3.16-18.29-13.2-19.98-19.77l23.46,17.76l3.65,29.2C118.1,476.37,107.24,462.46,115.82,453.93z M46.47,495.58
			c0.78-17.65,6.75-41.66,44.6-45c3.6,5.56,8.12,9.78,13.72,9.72c-3.25,5.5-1,12.54,2.9,19.2
			C85.88,510.52,62.13,503.72,46.47,495.58z"/>
		
			<ellipse transform="matrix(0.8784 -0.478 0.478 0.8784 -175.2663 137.9345)" class="st1" cx="183.41" cy="413.36" rx="11.79" ry="11.79"/>
		
			<ellipse transform="matrix(0.3781 -0.9257 0.9257 0.3781 -343.0543 316.0299)" class="st1" cx="63.71" cy="413.36" rx="11.79" ry="11.79"/>
		
			<ellipse transform="matrix(0.9735 -0.2286 0.2286 0.9735 -115.124 41.8464)" class="st1" cx="123.07" cy="517.87" rx="11.79" ry="11.79"/>
	</g>
	<g>
		<path class="st1" d="M460.94-244.93c-0.3-3.42-0.99-6.47-1.98-9.14c-6.65-17.99-33.04-40.15-38.57-40.15s-31.93,22.16-38.57,40.15
			c-0.99,2.67-1.67,5.72-1.98,9.14c-3.11-1.45-6.1-2.38-8.9-2.86c-18.91-3.24-51.29,8.54-54.06,13.33
			c-2.77,4.79,3.23,38.73,15.49,53.48c1.82,2.19,4.12,4.31,6.93,6.28c-2.81,1.97-5.11,4.09-6.93,6.28
			c-12.26,14.75-18.25,48.69-15.49,53.48c2.77,4.79,35.15,16.57,54.06,13.33c2.81-0.48,5.79-1.41,8.9-2.86
			c0.3,3.42,0.99,6.47,1.98,9.14c6.65,17.99,33.04,40.15,38.57,40.15s31.93-22.16,38.57-40.15c0.99-2.67,1.67-5.72,1.98-9.14
			c3.11,1.45,6.1,2.38,8.91,2.86c18.91,3.24,51.29-8.54,54.06-13.33c2.77-4.79-3.23-38.73-15.49-53.48
			c-1.82-2.19-4.12-4.31-6.93-6.28c2.81-1.97,5.11-4.09,6.93-6.28c12.26-14.75,18.25-48.69,15.49-53.48
			c-2.77-4.79-35.15-16.57-54.06-13.33C467.04-247.31,464.06-246.38,460.94-244.93z M404.6-202.05
			c-12.88-29.65,2.71-44.6,15.79-52.94c13.08,8.34,28.67,23.29,15.79,52.94c19.23-25.98,39.97-19.95,53.74-12.79
			c-0.68,15.5-5.83,36.48-37.95,40.14c32.11,3.67,37.27,24.64,37.95,40.14c-13.77,7.16-34.51,13.19-53.74-12.79
			c12.88,29.65-2.71,44.6-15.79,52.94c-13.08-8.34-28.67-23.29-15.79-52.94c-19.23,25.98-39.97,19.95-53.74,12.79
			c0.68-15.5,5.83-36.48,37.95-40.14c-32.11-3.67-37.27-24.64-37.95-40.14C364.63-222.01,385.37-228.03,404.6-202.05z"/>
		<path class="st1" d="M435.95-201.64c-5.12-9.56-14.47-18.63-15.56-20.99c-1.09,2.35-10.44,11.43-15.56,20.99
			c-10.84-0.34-23.37,3.21-25.95,2.98c1.49,2.12,4.68,14.75,10.4,23.96c-5.72,9.21-8.9,21.84-10.4,23.96
			c2.58-0.23,15.12,3.32,25.95,2.98c5.12,9.56,14.46,18.63,15.56,20.99c1.09-2.35,10.44-11.43,15.56-20.99
			c10.84,0.34,23.37-3.21,25.95-2.98c-1.49-2.12-4.68-14.75-10.4-23.96c5.72-9.21,8.9-21.84,10.4-23.96
			C459.32-198.43,446.79-201.99,435.95-201.64z M411.11-190.79c1.82-5.96,6.66-11.7,9.29-14.21c2.63,2.51,7.47,8.25,9.29,14.21
			c6.07-1.41,13.46-0.08,16.95,0.94c-0.86,3.53-3.41,10.59-7.66,15.15c4.26,4.56,6.8,11.62,7.66,15.15
			c-3.49,1.02-10.88,2.35-16.95,0.94c-1.82,5.96-6.66,11.7-9.29,14.21c-2.63-2.51-7.47-8.25-9.29-14.21
			c-6.07,1.41-13.46,0.08-16.95-0.94c0.86-3.53,3.41-10.59,7.66-15.15c-4.26-4.56-6.8-11.62-7.66-15.15
			C397.65-190.87,405.03-192.2,411.11-190.79z"/>
		<path class="st1" d="M364.67-271.22L364.67-271.22c12.56-5.55,13.97,15.43,12.31,21.33C371.04-251.41,353.58-263.12,364.67-271.22
			L364.67-271.22z"/>
		<path class="st1" d="M531.85-174.7L531.85-174.7c-1.47,13.65-20.34,4.38-24.63,0C511.51-179.08,530.38-188.35,531.85-174.7
			C531.85-174.7,531.85-174.7,531.85-174.7z"/>
		<path class="st1" d="M364.67-78.18L364.67-78.18c-11.09-8.1,6.38-19.81,12.31-21.33C378.63-93.6,377.23-72.62,364.67-78.18
			L364.67-78.18z"/>
		<path class="st1" d="M420.42-177.58L420.42-177.58c-5.68-2.24-1.16-29.16,0.82-35.25C422.94-206.66,426.19-179.55,420.42-177.58
			L420.42-177.58z"/>
		<path class="st1" d="M417.89-173.28L417.89-173.28c0.9,6.03-24.68,15.58-30.94,16.91C391.45-160.92,413.29-177.29,417.89-173.28
			L417.89-173.28z"/>
		<path class="st1" d="M422.88-173.24L422.88-173.24c4.78-3.8,25.83,13.58,30.12,18.34C446.8-156.52,421.7-167.25,422.88-173.24
			L422.88-173.24z"/>
		<path class="st1" d="M422.88-176.16L422.88-176.16c4.78,3.8,25.83-13.58,30.12-18.34C446.8-192.88,421.7-182.15,422.88-176.16
			L422.88-176.16z"/>
		<path class="st1" d="M417.89-176.12L417.89-176.12c0.9-6.03-24.68-15.58-30.94-16.91C391.45-188.48,413.29-172.1,417.89-176.12
			C417.89-176.12,417.89-176.12,417.89-176.12z"/>
		<path class="st1" d="M420.42-171.82L420.42-171.82c-5.68,2.24-1.16,29.16,0.82,35.25C422.94-142.74,426.19-169.85,420.42-171.82
			L420.42-171.82z"/>
		<path class="st1" d="M463.89-250.04c-1.59-6.07-0.12-26.59,12.26-21.23C486.97-263.23,469.95-251.7,463.89-250.04z"/>
		<path class="st1" d="M463.89-99.36c6.05,1.66,23.08,13.19,12.26,21.23C463.78-72.77,462.3-93.29,463.89-99.36z"/>
		<path class="st1" d="M333.4-174.7c-4.47,4.41-22.97,13.39-24.51,0C310.43-188.09,328.94-179.11,333.4-174.7z"/>
	</g>
	<g>
		<g>
			<path class="st1" d="M179.33-237.19c-21.13,6.27-29.52,50.7-47.09,50.22c-5.89-16.57,33.77-38.27,33.21-60.3
				c-0.53-20.83-32.16-41.87-44.51-49.54c-12.35,7.68-43.98,28.71-44.51,49.54c-0.56,22.03,39.09,43.74,33.21,60.3
				c-17.57,0.48-25.96-43.94-47.09-50.22c-19.98-5.93-49.76,17.65-60.87,27.02c3.48,14.12,13.71,50.7,33.36,57.64
				c20.78,7.34,53.68-23.66,67.61-12.95c-4.98,16.86-49.82,11.11-62.31,29.27c-11.82,17.17,1.41,52.77,6.89,66.25
				c14.51,1.05,52.46,2.62,65.13-13.92c13.4-17.49-5.92-58.36,8.58-68.31c14.5,9.94-4.82,50.81,8.58,68.31
				c12.67,16.54,50.63,14.97,65.13,13.92c5.48-13.47,18.71-49.08,6.89-66.25c-12.5-18.15-57.34-12.41-62.31-29.27
				c13.94-10.72,46.83,20.29,67.61,12.95c19.65-6.94,29.88-43.52,33.36-57.64C229.09-219.55,199.31-243.12,179.33-237.19z
				 M76.77-172.86c-14.08,3.46-27.54,5.82-33.55,3.87c-12.2-3.96-14.39-24.62-15.43-32.69c5.59-5.92,19.49-21.34,31.69-17.38
				C65.5-217.1,75-207.27,84.36-196.2c6.98,8.26,12.67,16.45,12.5,16.97C96.69-178.72,87.27-175.44,76.77-172.86z M108.66-213.86
				c-7.64-12.32-14.05-24.39-14.05-30.71c0-12.83,18.97-21.29,26.32-24.77c7.35,3.48,26.32,11.95,26.32,24.77
				c0,6.32-6.41,18.39-14.05,30.71c-5.7,9.19-11.72,17.13-12.27,17.13C120.39-196.73,114.36-204.67,108.66-213.86z M105.91-129.86
				c-1.06,14.46-2.97,27.99-6.69,33.1c-7.54,10.38-27.86,6.07-35.85,4.57c-3.9-7.14-14.27-25.14-6.73-35.51
				c3.71-5.11,15.99-11.11,29.41-16.59c10.01-4.08,19.56-6.97,20-6.65C106.5-150.61,106.71-140.64,105.91-129.86z M130.61-158.09
				c-2.75-2.63-7.42-5.86-9.46-6.39c-0.07,0.02-0.14,0.04-0.22,0.06c-0.08-0.02-0.15-0.05-0.22-0.06c-2.04,0.54-6.71,3.76-9.46,6.39
				c1.65-3.43,3.28-8.87,3.16-10.97c-0.04-0.06-0.08-0.12-0.13-0.19c0-0.08,0-0.16-0.01-0.23c-1.14-1.77-5.65-5.22-9-7.02
				c3.77,0.51,9.45,0.37,11.41-0.39c0.05-0.06,0.09-0.12,0.14-0.18c0.08-0.03,0.15-0.05,0.22-0.08c1.33-1.63,3.22-6.99,3.9-10.73
				c0.68,3.74,2.56,9.1,3.9,10.73c0.07,0.03,0.14,0.05,0.22,0.08c0.05,0.06,0.09,0.12,0.14,0.18c1.96,0.76,7.64,0.9,11.41,0.39
				c-3.35,1.8-7.86,5.25-9,7.02c0,0.07-0.01,0.15-0.01,0.23c-0.05,0.07-0.09,0.13-0.13,0.19
				C127.34-166.96,128.96-161.52,130.61-158.09z M155.81-144.29c13.42,5.48,25.7,11.48,29.41,16.59
				c7.54,10.38-2.83,28.37-6.73,35.51c-8,1.5-28.32,5.81-35.85-4.57c-3.71-5.11-5.62-18.65-6.69-33.1
				c-0.79-10.78-0.58-20.75-0.14-21.07C136.26-151.26,145.8-148.37,155.81-144.29z M198.64-168.99c-6.01,1.95-19.47-0.41-33.55-3.87
				c-10.5-2.58-19.92-5.86-20.09-6.38c-0.17-0.52,5.52-8.71,12.5-16.97c9.36-11.07,18.86-20.9,24.86-22.85
				c12.2-3.96,26.11,11.46,31.69,17.38C213.03-193.6,210.84-172.95,198.64-168.99z"/>
		</g>
		<path class="st1" d="M74.72-235.02c-2.76-9.65,1.44-32.94-23.64-32.53C42.95-243.83,66.4-240.62,74.72-235.02z"/>
		<path class="st1" d="M167.15-235.02c8.32-5.6,31.77-8.81,23.64-32.53C165.71-267.96,169.91-244.67,167.15-235.02z"/>
		<path class="st1" d="M195.71-147.12c7.9,6.18,18.19,27.5,38.25,12.43C226.59-158.67,205.74-147.48,195.71-147.12z"/>
		<path class="st1" d="M120.93-92.79c-3.44,9.42-20.53,25.8,0,40.21C141.46-66.99,124.37-83.37,120.93-92.79z"/>
		<path class="st1" d="M46.16-147.12c-10.03-0.36-30.88-11.55-38.25,12.43C27.97-119.62,38.26-140.93,46.16-147.12z"/>
		<path class="st1" d="M125.8-171.36c0,2.53-2.05,4.58-4.58,4.58s-4.58-2.05-4.58-4.58c0-2.53,2.05-4.58,4.58-4.58
			S125.8-173.89,125.8-171.36z"/>
	</g>
	<g>
		<path class="st1" d="M420.37,105.68c-0.11,0.08-0.21,0.16-0.31,0.24c-3.47-5.2-7.51-1.73-4.91,5.78c2,5.79,3.11,6.43,5.22,12.18
			c2.11-5.75,3.22-6.39,5.22-12.18c2.6-7.51-1.44-10.98-4.91-5.78C420.58,105.84,420.48,105.76,420.37,105.68z"/>
		<path class="st1" d="M440.49,115.37c-0.13-0.03-0.26-0.06-0.38-0.09c1.9-5.95-3.33-6.95-7.58-0.24
			c-3.28,5.18-3.09,6.44-6.27,11.68c5.81-1.94,7-1.47,12.78-3.51c7.49-2.65,7.68-7.97,1.46-7.44
			C440.49,115.64,440.49,115.51,440.49,115.37z"/>
		<path class="st1" d="M445.46,137.14c-0.06-0.12-0.11-0.24-0.17-0.36c5.84-2.22,3.36-6.94-4.54-6.07
			c-6.09,0.67-6.96,1.6-13.04,2.38c5.14,3.34,5.51,4.56,10.71,7.8c6.74,4.21,11.02,1.03,6.73-3.5
			C445.25,137.31,445.35,137.23,445.46,137.14z"/>
		<path class="st1" d="M431.53,154.6c0.06-0.12,0.12-0.24,0.17-0.35c5.38,3.18,7.52-1.7,1.92-7.34c-4.32-4.35-5.59-4.44-9.99-8.71
			c0.59,6.1-0.13,7.15,0.58,13.24c0.92,7.9,6.06,9.26,6.93,3.07C431.27,154.54,431.4,154.57,431.53,154.6z"/>
		<path class="st1" d="M409.21,154.6c0.13-0.03,0.26-0.05,0.38-0.08c0.87,6.19,6.02,4.82,6.93-3.07c0.71-6.09-0.01-7.14,0.58-13.24
			c-4.4,4.27-5.67,4.36-9.99,8.71c-5.6,5.64-3.46,10.52,1.92,7.34C409.09,154.36,409.14,154.48,409.21,154.6z"/>
		<path class="st1" d="M395.28,137.14c0.1,0.09,0.21,0.17,0.31,0.25c-4.3,4.54-0.02,7.71,6.73,3.5c5.2-3.24,5.57-4.46,10.71-7.8
			c-6.08-0.78-6.94-1.71-13.04-2.38c-7.9-0.86-10.38,3.85-4.54,6.07C395.4,136.9,395.34,137.02,395.28,137.14z"/>
		<path class="st1" d="M400.25,115.37c0,0.14,0,0.27,0,0.39c-6.23-0.53-6.04,4.79,1.46,7.44c5.78,2.04,6.96,1.58,12.78,3.51
			c-3.18-5.24-2.99-6.5-6.27-11.68c-4.25-6.72-9.48-5.72-7.58,0.24C400.51,115.31,400.38,115.34,400.25,115.37z"/>
		<path class="st1" d="M420.37,11.77c0,0-16.51,7.86-27.01,15.1c-13.73,9.47-11.6,23.2-5.55,36.85
			c-6.9-13.24-16.31-23.47-32.27-18.64c-12.2,3.69-28.64,11.7-28.64,11.7s-4.15,17.81-5.03,30.53
			c-1.16,16.64,10.91,23.53,25.35,27.32c-14.66-2.86-28.52-1.88-34.69,13.61c-4.72,11.84-8.71,29.69-8.71,29.69
			s11.34,14.35,20.73,22.97c12.29,11.28,25.2,6.15,37.16-2.79c-11.37,9.68-19.25,21.12-10.99,35.61
			c6.32,11.08,17.78,25.32,17.78,25.32s18.28,0.08,30.88-1.89c16.48-2.57,20.52-15.87,20.99-30.8c0.47,14.93,4.51,28.22,20.99,30.8
			c12.6,1.97,30.88,1.89,30.88,1.89s11.46-14.24,17.78-25.32c8.26-14.49,0.39-25.94-10.99-35.61c11.96,8.94,24.88,14.07,37.16,2.79
			c9.39-8.62,20.73-22.97,20.73-22.97s-3.99-17.84-8.71-29.69c-6.18-15.49-20.04-16.47-34.69-13.61
			c14.45-3.78,26.51-10.68,25.35-27.32c-0.88-12.72-5.03-30.53-5.03-30.53s-16.44-8.01-28.64-11.7
			c-15.96-4.83-25.37,5.4-32.27,18.64c6.05-13.65,8.18-27.38-5.55-36.85C436.88,19.63,420.37,11.77,420.37,11.77z M410.41,110.65
			c9.5-12.86-7.89-21.58-9.76-37.87c-1.6-13.95,8.1-18.92,19.72-26.36c11.62,7.44,21.32,12.41,19.72,26.36
			c-1.87,16.29-19.27,25.01-9.76,37.87c15.98-0.59,11.95-19.62,23.52-31.24c9.91-9.95,19.85-5.46,32.9-1.02
			c1.43,13.72,3.59,24.41-8.31,31.85c-13.9,8.69-31.56,0.53-35.69,15.98c10.42,12.13,22.79-2.89,39.09-1.09
			c13.96,1.54,16.65,12.11,21.31,25.09c-9.84,9.67-16.84,18.03-30.09,13.36c-15.47-5.45-20.09-24.35-34.75-17.95
			c-2.98,15.71,16.47,16.02,25.23,29.88c7.5,11.87,0.91,20.56-6.33,32.31c-13.69-1.66-24.6-1.93-29.21-15.19
			c-5.38-15.49,6.51-30.89-7.63-38.35c-14.14,7.46-2.25,22.86-7.63,38.35c-4.61,13.27-15.51,13.53-29.21,15.19
			c-7.24-11.74-13.83-20.43-6.33-32.31c8.76-13.87,28.21-14.17,25.23-29.88c-14.65-6.4-19.28,12.49-34.75,17.95
			c-13.24,4.67-20.25-3.69-30.09-13.36c4.67-12.98,7.35-23.55,21.31-25.09c16.3-1.8,28.67,13.22,39.09,1.09
			c-4.13-15.45-21.79-7.28-35.69-15.98c-11.91-7.45-9.74-18.13-8.31-31.85c13.06-4.45,23-8.93,32.91,1.02
			C398.46,91.02,394.43,110.06,410.41,110.65z"/>
		<path class="st1" d="M373.77,34.57c0.77-0.38,1.63-0.6,2.54-0.6c3.14,0,5.68,2.54,5.68,5.68c0,2.29-1.35,4.26-3.29,5.16
			c-1.92,0.96-4.3,0.79-6.09-0.64c-2.45-1.96-2.86-5.53-0.9-7.98C372.29,35.47,373,34.93,373.77,34.57z"/>
		<path class="st1" d="M466.96,34.57c0.78,0.36,1.48,0.9,2.05,1.61c1.96,2.45,1.55,6.03-0.9,7.98c-1.79,1.42-4.17,1.6-6.09,0.64
			c-1.95-0.9-3.29-2.87-3.29-5.16c0-3.14,2.54-5.68,5.68-5.68C465.34,33.97,466.2,34.18,466.96,34.57z"/>
		<path class="st1" d="M525.07,107.43c0.2,0.83,0.22,1.72,0.02,2.61c-0.7,3.06-3.74,4.97-6.8,4.27c-2.23-0.51-3.85-2.26-4.3-4.36
			c-0.51-2.08,0.19-4.37,1.98-5.79c2.45-1.96,6.03-1.55,7.98,0.9C524.52,105.78,524.89,106.59,525.07,107.43z"/>
		<path class="st1" d="M504.33,198.28c-0.52,0.68-1.21,1.25-2.03,1.64c-2.83,1.36-6.22,0.17-7.58-2.65
			c-0.99-2.06-0.63-4.42,0.73-6.08c1.31-1.7,3.53-2.57,5.76-2.06c3.06,0.7,4.97,3.74,4.27,6.8
			C505.28,196.82,504.88,197.62,504.33,198.28z"/>
		<path class="st1" d="M420.37,238.71c-0.86,0.01-1.73-0.17-2.55-0.56c-2.83-1.36-4.02-4.76-2.65-7.58
			c0.99-2.06,3.06-3.25,5.21-3.22c2.14-0.03,4.21,1.16,5.21,3.22c1.36,2.83,0.17,6.22-2.65,7.58
			C422.1,238.55,421.23,238.73,420.37,238.71z"/>
		<path class="st1" d="M336.41,198.28c-0.54-0.66-0.95-1.46-1.15-2.35c-0.7-3.06,1.22-6.11,4.27-6.8c2.23-0.51,4.45,0.37,5.76,2.06
			c1.36,1.66,1.72,4.02,0.73,6.08c-1.36,2.83-4.76,4.02-7.58,2.65C337.62,199.53,336.93,198.96,336.41,198.28z"/>
		<path class="st1" d="M315.67,107.43c0.18-0.84,0.55-1.65,1.12-2.36c1.96-2.45,5.53-2.86,7.98-0.9c1.79,1.42,2.49,3.71,1.98,5.79
			c-0.45,2.1-2.07,3.85-4.3,4.36c-3.06,0.7-6.11-1.22-6.8-4.27C315.45,109.15,315.47,108.26,315.67,107.43z"/>
		<path class="st1" d="M412.84,115.77c2.27-1.1,4.81-1.71,7.49-1.71c0.01,0,0.02,0,0.04,0c0.01,0,0.02,0,0.04,0
			c2.69,0,5.23,0.61,7.49,1.71c2.27,1.09,4.34,2.69,6.01,4.79c0.01,0.01,0.01,0.02,0.02,0.03c0.01,0.01,0.01,0.02,0.02,0.03
			c1.67,2.1,2.78,4.47,3.34,6.93c0.56,2.45,0.6,5.07,0,7.69c0,0.01-0.01,0.02-0.01,0.03c0,0.01-0.01,0.02-0.01,0.03
			c-0.6,2.62-1.76,4.96-3.34,6.93c-1.57,1.97-3.59,3.63-6.01,4.79c-0.01,0.01-0.02,0.01-0.03,0.02c-0.01,0.01-0.02,0.01-0.03,0.02
			c-2.42,1.17-4.98,1.71-7.49,1.71c-2.52,0-5.07-0.55-7.49-1.71c-0.01-0.01-0.02-0.01-0.03-0.02c-0.01-0.01-0.02-0.01-0.03-0.02
			c-2.42-1.17-4.44-2.82-6.01-4.79c-1.57-1.97-2.74-4.31-3.34-6.93c0-0.01-0.01-0.02-0.01-0.03c0-0.01-0.01-0.02-0.01-0.03
			c-0.6-2.62-0.56-5.23,0-7.69c0.56-2.46,1.66-4.83,3.34-6.93c0.01-0.01,0.01-0.02,0.02-0.03s0.01-0.02,0.02-0.03
			C408.5,118.47,410.57,116.86,412.84,115.77z"/>
	</g>
	<g>
		<path class="st1" d="M120.93,27.14c-22.89,14.77-33.44,40.41-36.78,64C73.52,80.83,60.03,73.48,43.1,70.76
			c-7.93,13.92-13.25,37.69-8.62,61.22c-8.91-2.28-17.52-3.08-25.25-1.86c0.47,58.55,58.66,91.38,111.69,70.89
			c53.04,20.49,111.22-12.34,111.69-70.89c-7.72-1.22-16.33-0.41-25.25,1.86c4.63-23.54-0.69-47.3-8.62-61.22
			c-16.93,2.72-30.42,10.07-41.06,20.39C154.37,67.55,143.82,41.91,120.93,27.14z M24.76,147.43c0,0,10.72,0.74,16.94,5.19
			c4.44,10.66,23.99,36.43,48.87,39.99C47.92,203.27,25.71,169.5,24.76,147.43z M151.29,192.6c24.88-3.55,44.43-29.32,48.87-39.99
			c6.22-4.44,16.94-5.19,16.94-5.19C216.16,169.5,193.95,203.27,151.29,192.6z M57.39,151.88c-10.58-21.16-10.19-42.69-2.86-54.15
			c12.92,2.93,31.05,20.8,40.49,41.56c4.44,9.77,11.55,29.32,13.33,46.21C79.91,187.27,64.13,165.36,57.39,151.88z M133.52,185.49
			c1.78-16.88,8.89-36.43,13.33-46.21c9.44-20.76,27.57-38.63,40.49-41.56c7.34,11.46,7.72,32.99-2.86,54.15
			C177.74,165.36,161.96,187.27,133.52,185.49z M120.93,173.05c-27.69-45.32-21.15-93.58,0-106.63
			C142.08,79.47,148.63,127.74,120.93,173.05z"/>
		<circle class="st1" cx="15.05" cy="109.08" r="10.66"/>
		<circle class="st1" cx="226.82" cy="109.08" r="10.66"/>
		
			<ellipse transform="matrix(0.9239 -0.3827 0.3827 0.9239 -14.9511 31.9352)" class="st1" cx="72.8" cy="53.55" rx="17.32" ry="17.32"/>
		
			<ellipse transform="matrix(0.3827 -0.9239 0.9239 0.3827 54.8968 189.2583)" class="st1" cx="169.07" cy="53.55" rx="17.32" ry="17.32"/>
		<path class="st1" d="M120.93,223.67c-3.82,0-19.86-6.2-24.01-12.07c-0.37-0.53,15.04-1.72,24.01-5.84
			c8.98,4.12,24.32,5.05,23.95,5.58C140.73,217.2,124.76,223.67,120.93,223.67z"/>
	</g>
</g>
</svg>
